SplineFontDB: 3.0
FontName: TeXGyreAdventor-Bold
FullName: TeXGyreAdventor-Bold
FamilyName: TeXGyreAdventor
Weight: Bold
Copyright: Copyright 2007-2018 for TeX Gyre extensions by B. Jackowski, J.M. Nowacki, et al. (on behalf of TeX USERS GROUPS). Vietnamese characters were added by Han The Thanh.
UComments: "2018-5-8: Created with FontForge (http://fontforge.org)"
Version: 2.501
ItalicAngle: 0
UnderlinePosition: -100
UnderlineWidth: 90
Ascent: 750
Descent: 250
InvalidEm: 0
sfntRevision: 0x00028042
LayerCount: 2
Layer: 0 0 "Back" 1
Layer: 1 0 "Fore" 0
XUID: [1021 289 65387646 15768]
StyleMap: 0x0020
FSType: 0
OS2Version: 0
OS2_WeightWidthSlopeOnly: 0
OS2_UseTypoMetrics: 1
CreationTime: 1525768197
ModificationTime: 1525768202
PfmFamily: 16
TTFWeight: 700
TTFWidth: 5
LineGap: 0
VLineGap: 90
Panose: 2 0 7 3 2 2 0 0 0 4
OS2TypoAscent: 739
OS2TypoAOffset: 0
OS2TypoDescent: -185
OS2TypoDOffset: 0
OS2TypoLinegap: 0
OS2WinAscent: 0
OS2WinAOffset: 1
OS2WinDescent: 0
OS2WinDOffset: 1
HheadAscent: 739
HheadAOffset: 0
HheadDescent: -185
HheadDOffset: 0
OS2SubXSize: 650
OS2SubYSize: 699
OS2SubXOff: 0
OS2SubYOff: 140
OS2SupXSize: 650
OS2SupYSize: 699
OS2SupXOff: 0
OS2SupYOff: 479
OS2StrikeYSize: 49
OS2StrikeYPos: 258
Lookup: 3 0 0 "'aalt' Access All Alternates lookup 0" { "'aalt' Access All Alternates lookup 0 subtable"  } ['aalt' ('DFLT' <'dflt' > ) ]
Lookup: 3 0 0 "'aalt' Access All Alternates in Latin lookup 0" { "'aalt' Access All Alternates in Latin lookup 0 subtable"  } ['aalt' ('latn' <'ROM ' 'MOL ' 'dflt' 'AZE ' 'CRT ' 'NLD ' 'PLK ' 'TRK ' > ) ]
Lookup: 2 0 0 "ccmp_decomp_sub" { "ccmp_decomp_sub subtable"  } []
Lookup: 1 0 0 "locl_ROM" { "locl_ROM subtable"  } ['locl' ('latn' <'ROM ' 'MOL ' > ) ]
Lookup: 1 0 0 "'smcp' Lowercase to Small Capitals in Latin lookup 2" { "'smcp' Lowercase to Small Capitals in Latin lookup 2 subtable"  } ['smcp' ('latn' <'dflt' 'AZE ' 'CRT ' 'MOL ' 'NLD ' 'PLK ' 'ROM ' 'TRK ' > 'DFLT' <'dflt' > ) ]

StartChar: acute
Encoding: 256 180 0
Width: 420
VWidth: 0
Flags: W
TeX: 825 0
HStem: 604 212
VStem: 117 278
LayerCount: 2
Fore
SplineSet
117 682 m 1
 341 816 l 1
 395 724 l 1
 168 604 l 1
 117 682 l 1
EndSplineSet
Validated: 1
EndChar

StartChar: acute.cap
Encoding: 257 -1 1
Width: 420
VWidth: 0
Flags: W
TeX: 806 0
HStem: 594 212
VStem: 117 278
LayerCount: 2
Fore
SplineSet
117 672 m 1
 341 806 l 1
 395 714 l 1
 168 594 l 1
 117 672 l 1
EndSplineSet
Validated: 1
EndChar

StartChar: circumflex
Encoding: 258 710 2
Width: 540
VWidth: 0
Flags: W
TeX: 768 0
HStem: 631 138
LayerCount: 2
Fore
SplineSet
71 631 m 1
 218 769 l 1
 325 769 l 1
 470 631 l 1
 325 631 l 1
 272 695 l 1
 218 631 l 1
 71 631 l 1
EndSplineSet
Validated: 1
EndChar

StartChar: circumflex.cap
Encoding: 259 -1 3
Width: 540
VWidth: 0
Flags: W
TeX: 759 0
HStem: 621 138
LayerCount: 2
Fore
SplineSet
71 621 m 1
 218 759 l 1
 325 759 l 1
 470 621 l 1
 325 621 l 1
 272 685 l 1
 218 621 l 1
 71 621 l 1
EndSplineSet
Validated: 1
EndChar

StartChar: dieresis
Encoding: 260 168 4
Width: 500
VWidth: 0
Flags: W
TeX: 763 0
HStem: 634 133<74 207 284 417>
VStem: 74 133<634 767> 284 133<634 767>
LayerCount: 2
Fore
SplineSet
74 634 m 1
 74 767 l 1
 207 767 l 1
 207 634 l 1
 74 634 l 1
284 634 m 1
 284 767 l 1
 417 767 l 1
 417 634 l 1
 284 634 l 1
EndSplineSet
Validated: 1
EndChar

StartChar: breve
Encoding: 261 728 5
Width: 480
VWidth: 0
Flags: W
TeX: 769 0
HStem: 631 96<187.001 291.656>
VStem: 74 330
LayerCount: 2
Fore
SplineSet
74 770 m 1
 172 770 l 1
 184 741 207 727 240 727 c 0
 275 727 297 742 302 770 c 1
 404 770 l 1
 401 687 335 631 240 631 c 0
 141 631 80 682 74 770 c 1
EndSplineSet
Validated: 1
EndChar

StartChar: breve.cap
Encoding: 262 -1 6
Width: 480
VWidth: 0
Flags: W
TeX: 760 0
HStem: 621 96<188.001 292.656>
VStem: 75 330
LayerCount: 2
Fore
SplineSet
75 760 m 1
 173 760 l 1
 185 731 208 717 241 717 c 0
 276 717 298 732 303 760 c 1
 405 760 l 1
 402 677 336 621 241 621 c 0
 142 621 81 672 75 760 c 1
EndSplineSet
Validated: 1
EndChar

StartChar: dotaccent
Encoding: 263 729 7
Width: 280
VWidth: 0
Flags: W
TeX: 763 0
HStem: 634 133<74 207>
VStem: 74 133<634 767>
LayerCount: 2
Fore
SplineSet
74 634 m 1
 74 767 l 1
 207 767 l 1
 207 634 l 1
 74 634 l 1
EndSplineSet
Validated: 1
EndChar

StartChar: macron
Encoding: 264 175 8
Width: 420
VWidth: 0
Flags: W
TeX: 748 0
HStem: 650 100<74 351>
VStem: 74 277<650 750>
LayerCount: 2
Fore
SplineSet
74 650 m 1
 74 750 l 1
 351 750 l 1
 351 650 l 1
 74 650 l 1
EndSplineSet
Validated: 1
AlternateSubs2: "'aalt' Access All Alternates lookup 0 subtable" macron.alt
AlternateSubs2: "'aalt' Access All Alternates in Latin lookup 0 subtable" macron.alt
Substitution2: "'ss04' Style Set 4 in Latin lookup 18 subtable" macron.alt
Substitution2: "'ss01' Style Set 1 in Latin lookup 15 subtable" macron.alt
Substitution2: "'salt' Stylistic Alternatives in Latin lookup 14 subtable" macron.alt
EndChar

StartChar: ring
Encoding: 265 730 9
Width: 360
VWidth: 0
Flags: W
TeX: 816 0
HStem: 597 73<145.285 214.529> 750 73<145.553 214.983>
VStem: 67 73<675.285 744.715> 220 73<675.285 744.529>
LayerCount: 2
Fore
SplineSet
67 710 m 0
 67 773 117 823 181 823 c 0
 243 823 293 772 293 710 c 0
 293 647 242 597 180 597 c 0
 117 597 67 647 67 710 c 0
140 710 m 0
 140 688 158 670 180 670 c 0
 202 670 220 688 220 710 c 0
 220 732 202 750 180 750 c 0
 158 750 140 732 140 710 c 0
EndSplineSet
Validated: 1
EndChar

StartChar: hungarumlaut
Encoding: 266 733 10
Width: 700
VWidth: 0
Flags: W
TeX: 825 0
HStem: 594 212
LayerCount: 2
Fore
SplineSet
164 663 m 1
 374 806 l 1
 436 726 l 1
 214 594 l 1
 164 663 l 1
427 663 m 1
 638 806 l 1
 699 726 l 1
 478 594 l 1
 427 663 l 1
EndSplineSet
Validated: 1
EndChar

StartChar: caron
Encoding: 267 711 11
Width: 540
VWidth: 0
Flags: W
TeX: 768 0
HStem: 631 138
LayerCount: 2
Fore
SplineSet
71 769 m 1
 216 769 l 1
 269 705 l 1
 323 769 l 1
 470 769 l 1
 323 631 l 1
 216 631 l 1
 71 769 l 1
EndSplineSet
Validated: 1
EndChar

StartChar: tilde
Encoding: 268 732 12
Width: 480
VWidth: 0
Flags: W
TeX: 772 0
HStem: 624 96<256.631 333.253> 679 97<144.948 222.369>
VStem: 76 327
LayerCount: 2
Fore
SplineSet
76 715 m 1x60
 94 747 122 776 158 776 c 0x60
 185 776 208 763 231 749 c 0
 251 737 278 720 295 720 c 0
 322 720 339 746 353 771 c 1
 403 684 l 1
 385 652 357 624 321 624 c 0xa0
 294 624 271 637 248 651 c 0
 228 663 201 679 184 679 c 0
 157 679 140 653 126 629 c 1
 76 715 l 1x60
EndSplineSet
Validated: 1
EndChar

StartChar: ogonek
Encoding: 269 731 13
Width: 340
VWidth: 0
Flags: W
TeX: 5 -250
HStem: -250 106<184.033 274.556> -20 20G<131 276>
VStem: 74 106<-141.382 -65.2256>
LayerCount: 2
Fore
SplineSet
74 -135 m 0
 74 -87 108 -36 154 0 c 1
 276 0 l 1
 210 -21 180 -64 180 -91 c 0
 180 -127 189 -144 218 -144 c 0
 230 -144 246 -144 276 -131 c 1
 276 -231 l 1
 244 -244 222 -250 200 -250 c 0
 131 -250 74 -202 74 -135 c 0
EndSplineSet
Validated: 1
EndChar

StartChar: cedilla
Encoding: 270 184 14
Width: 340
VWidth: 0
Flags: W
TeX: 0 -251
HStem: -256 64<136.861 209.761> -19 20G<140.773 224>
VStem: 215 64<-186.62 -114.093>
LayerCount: 2
Fore
SplineSet
68 -165 m 1
 134 -165 l 1
 140 -181 155 -192 173 -192 c 0
 196 -192 215 -174 215 -150 c 0
 215 -127 196 -108 173 -108 c 0
 159 -108 147 -115 139 -125 c 1
 89 -87 l 1
 156 1 l 1
 224 1 l 1
 189 -46 l 1
 240 -53 279 -97 279 -150 c 0
 279 -209 232 -256 173 -256 c 0
 120 -256 75 -217 68 -165 c 1
EndSplineSet
Validated: 1
EndChar

StartChar: space_uni0309
Encoding: 271 -1 15
Width: 257
VWidth: 0
Flags: W
TeX: 347 0
HStem: 798 75<92.08 168.698>
VStem: 0 84<754 790.841> 82 85<608 671.002> 172 85<735.753 792.837>
LayerCount: 2
Fore
SplineSet
0 754 m 1xd0
 4 841 64 873 129 873 c 0
 201 873 257 826 257 764 c 0
 257 731 242 708 199 679 c 0
 171 660 167 650 167 608 c 1
 82 608 l 1
 82 623 l 2xb0
 82 677 97 699 151 736 c 0
 164 745 172 755 172 766 c 0
 172 784 154 798 127 798 c 0
 103 798 89 784 84 754 c 1
 0 754 l 1xd0
EndSplineSet
Validated: 1
EndChar

StartChar: space_uni0309.cap
Encoding: 272 -1 16
Width: 257
VWidth: 0
Flags: W
TeX: 347 0
HStem: 798 75<92.08 168.698>
VStem: 0 84<754 790.841> 82 85<608 671.002> 172 85<735.753 792.837>
LayerCount: 2
Fore
SplineSet
0 754 m 1xd0
 4 841 64 873 129 873 c 0
 201 873 257 826 257 764 c 0
 257 731 242 708 199 679 c 0
 171 660 167 650 167 608 c 1
 82 608 l 1
 82 623 l 2xb0
 82 677 97 699 151 736 c 0
 164 745 172 755 172 766 c 0
 172 784 154 798 127 798 c 0
 103 798 89 784 84 754 c 1
 0 754 l 1xd0
EndSplineSet
Validated: 1
EndChar

StartChar: dotlessi
Encoding: 273 305 17
Width: 240
VWidth: 0
GlyphClass: 2
Flags: W
TeX: 554 0
HStem: 0 21G<54 187> 534 20G<54 187>
VStem: 54 133<0 554>
AnchorPoint: "bot_acc" 121 -146 basechar 0
AnchorPoint: "dotbelow" 121 -146 basechar 0
AnchorPoint: "ogon_acc" 86 -146 basechar 0
AnchorPoint: "top_accl" 121 700 basechar 0
AnchorPoint: "dotabove" 121 700 basechar 0
LayerCount: 2
Fore
SplineSet
54 0 m 1
 54 554 l 1
 187 554 l 1
 187 0 l 1
 54 0 l 1
EndSplineSet
Validated: 1
AlternateSubs2: "'aalt' Access All Alternates lookup 0 subtable" dotlessi.sc
AlternateSubs2: "'aalt' Access All Alternates in Latin lookup 0 subtable" dotlessi.sc
Substitution2: "'smcp' Lowercase to Small Capitals in Latin lookup 2 subtable" dotlessi.sc
EndChar

StartChar: i
Encoding: 105 105 18
Width: 240
VWidth: 0
GlyphClass: 2
Flags: W
TeX: 767 0
HStem: 0 21G<54 187> 534 20G<54 187> 634 133<55 188>
VStem: 54 133<0 554 634 767>
AnchorPoint: "bot_acc" 121 -146 basechar 0
AnchorPoint: "dotbelow" 121 -146 basechar 0
AnchorPoint: "ogon_acc" 86 -146 basechar 0
LayerCount: 2
Fore
SplineSet
54 0 m 1
 54 554 l 1
 187 554 l 1
 187 0 l 1
 54 0 l 1
55 634 m 1
 55 767 l 1
 188 767 l 1
 188 634 l 1
 55 634 l 1
EndSplineSet
Validated: 1
AlternateSubs2: "'aalt' Access All Alternates lookup 0 subtable" dotlessi i.sc
AlternateSubs2: "'aalt' Access All Alternates in Latin lookup 0 subtable" dotlessi i.sc
Substitution2: "ccmp_sub_acc subtable" dotlessi
Substitution2: "'smcp' Lowercase to Small Capitals in Latin lookup 2 subtable" i.sc
EndChar

StartChar: Lslash
Encoding: 163 321 19
Width: 480
VWidth: 0
GlyphClass: 2
Flags: W
TeX: 739 0
HStem: 0 128<247 473> 719 20G<110 247>
VStem: 110 137<128 273 474 739>
AnchorPoint: "bot_acc" 292 -146 basechar 0
AnchorPoint: "dotbelow" 292 -146 basechar 0
AnchorPoint: "ogon_acc" 372 -146 basechar 0
AnchorPoint: "top_accu" 179 875 basechar 0
AnchorPoint: "dotabove" 179 875 basechar 0
LayerCount: 2
Fore
SplineSet
14 194 m 1
 14 318 l 1
 110 397 l 1
 110 739 l 1
 247 739 l 1
 247 474 l 1
 389 584 l 1
 389 461 l 1
 247 350 l 1
 247 128 l 1
 473 128 l 1
 473 0 l 1
 110 0 l 1
 110 273 l 1
 14 194 l 1
EndSplineSet
Validated: 1
AlternateSubs2: "'aalt' Access All Alternates lookup 0 subtable" lslash.sc
AlternateSubs2: "'aalt' Access All Alternates in Latin lookup 0 subtable" lslash.sc
Substitution2: "'c2sc' Capitals to Small Capitals in Latin lookup 13 subtable" lslash.sc
Position2: "'cpsp' Capital Spacing in Latin lookup 13 subtable" dx=7 dy=0 dh=14 dv=0
EndChar

StartChar: lslash
Encoding: 179 322 20
Width: 320
VWidth: 0
GlyphClass: 2
Flags: W
TeX: 739 0
HStem: 0 21G<98 231> 719 20G<98 231>
VStem: 98 133<0 317 482 739>
AnchorPoint: "bot_acc" 165 -146 basechar 0
AnchorPoint: "dotbelow" 165 -146 basechar 0
AnchorPoint: "ogon_acc" 130 -146 basechar 0
AnchorPoint: "top_accl" 165 885 basechar 0
AnchorPoint: "dotabove" 165 885 basechar 0
LayerCount: 2
Fore
SplineSet
17 255 m 1
 17 354 l 1
 98 417 l 1
 98 739 l 1
 231 739 l 1
 231 482 l 1
 312 545 l 1
 312 446 l 1
 231 383 l 1
 231 0 l 1
 98 0 l 1
 98 317 l 1
 17 255 l 1
EndSplineSet
Validated: 1
AlternateSubs2: "'aalt' Access All Alternates lookup 0 subtable" lslash.sc
AlternateSubs2: "'aalt' Access All Alternates in Latin lookup 0 subtable" lslash.sc
Substitution2: "'smcp' Lowercase to Small Capitals in Latin lookup 2 subtable" lslash.sc
EndChar

StartChar: exclam
Encoding: 33 33 21
Width: 280
VWidth: 0
Flags: W
TeX: 739 0
HStem: 0 128<72 205> 719 20G<72 205>
VStem: 72 133<0 128 188 739>
LayerCount: 2
Fore
SplineSet
72 0 m 1
 72 128 l 1
 205 128 l 1
 205 0 l 1
 72 0 l 1
72 188 m 1
 72 739 l 1
 205 739 l 1
 205 188 l 1
 72 188 l 1
EndSplineSet
Validated: 1
EndChar

StartChar: quotedbl
Encoding: 34 34 22
Width: 360
VWidth: 0
Flags: W
TeX: 739 0
HStem: 513 226<74 150 207 283>
VStem: 74 76<513 739> 207 76<513 739>
LayerCount: 2
Fore
SplineSet
74 513 m 1
 74 739 l 1
 150 739 l 1
 150 513 l 1
 74 513 l 1
207 513 m 1
 207 739 l 1
 283 739 l 1
 283 513 l 1
 207 513 l 1
EndSplineSet
Validated: 1
EndChar

StartChar: numbersign
Encoding: 35 35 23
Width: 560
VWidth: 0
Flags: W
TeX: 739 0
HStem: 0 21G<99 192.661 276 368.747> 233 100<34 131 234 308 411 500> 422 99<60 156 260 333 437 526> 719 20G<196.339 289 373.339 466>
LayerCount: 2
Fore
SplineSet
34 233 m 1
 34 333 l 1
 144 333 l 1
 156 422 l 1
 60 422 l 1
 60 521 l 1
 170 521 l 1
 199 739 l 1
 289 739 l 1
 260 521 l 1
 347 521 l 1
 376 739 l 1
 466 739 l 1
 437 521 l 1
 526 521 l 1
 526 422 l 1
 423 422 l 1
 411 333 l 1
 500 333 l 1
 500 233 l 1
 398 233 l 1
 366 0 l 1
 276 0 l 1
 308 233 l 1
 221 233 l 1
 190 0 l 1
 99 0 l 1
 131 233 l 1
 34 233 l 1
234 333 m 1
 321 333 l 1
 333 422 l 1
 247 422 l 1
 234 333 l 1
EndSplineSet
Validated: 1
EndChar

StartChar: dollar
Encoding: 36 36 24
Width: 560
VWidth: 0
Flags: W
TeX: 856 -86
HStem: -86 249<220.933 334.118> 613 243<234.911 327.166>
VStem: 88 133<494.312 599.481> 220 127<-86 51.8142 717.11 856> 361 133<190.751 301.593>
LayerCount: 2
Fore
SplineSet
59 236 m 2xd8
 59 249 l 1
 193 249 l 1
 196 197 229 163 277 163 c 0
 325 163 361 199 361 246 c 0
 361 278 350 298 322 316 c 0
 304 327 304 328 217 361 c 0
 132 392 88 453 88 541 c 0xe8
 88 627 130 702 220 723 c 1
 220 856 l 1
 347 856 l 1
 347 723 l 1xd8
 415 710 468 636 471 551 c 1
 345 551 l 1
 337 591 314 613 280 613 c 0
 246 613 221 586 221 549 c 0xe8
 221 503 236 486 335 449 c 0
 459 406 494 358 494 251 c 0
 494 148 440 72 347 46 c 1
 347 -86 l 1
 220 -86 l 1
 220 46 l 1
 119 74 59 151 59 236 c 2xd8
EndSplineSet
Validated: 1
AlternateSubs2: "'aalt' Access All Alternates lookup 0 subtable" dollar.oldstyle
AlternateSubs2: "'aalt' Access All Alternates in Latin lookup 0 subtable" dollar.oldstyle
Substitution2: "'onum' Oldstyle Figures in Latin lookup 3 subtable" dollar.oldstyle
EndChar

StartChar: percent
Encoding: 37 37 25
Width: 860
VWidth: 0
Flags: W
TeX: 739 0
HStem: -13 107<603.468 704.142> 0 21G<223 333.281> 242 106<603.575 704.249> 391 107<151.468 252.142> 646 106<151.575 252.249> 719 20G<519.746 631>
VStem: 21 108<520.747 622.646> 276 107<521.858 621.749> 473 108<116.747 218.646> 728 107<117.858 217.749>
LayerCount: 2
Fore
SplineSet
21 571 m 0x3bc0
 21 672 101 752 203 752 c 0
 301 752 383 670 383 572 c 0
 383 472 302 391 202 391 c 0
 102 391 21 472 21 571 c 0x3bc0
129 572 m 0
 129 531 162 498 202 498 c 0
 242 498 276 532 276 572 c 0
 276 612 242 646 202 646 c 0
 162 646 129 613 129 572 c 0
223 0 m 1x77c0
 528 739 l 1
 631 739 l 1
 325 0 l 1
 223 0 l 1x77c0
473 167 m 0
 473 268 553 348 655 348 c 0
 753 348 835 266 835 168 c 0
 835 68 754 -13 654 -13 c 0xb3c0
 554 -13 473 68 473 167 c 0
581 168 m 0
 581 127 614 94 654 94 c 0
 694 94 728 128 728 168 c 0
 728 208 694 242 654 242 c 0
 614 242 581 209 581 168 c 0
EndSplineSet
Validated: 1
EndChar

StartChar: ampersand
Encoding: 38 38 26
Width: 680
VWidth: 0
Flags: W
TeX: 739 0
HStem: -13 132<203.434 329.818> 627 125<253.416 347.162>
VStem: 35 133<155.459 275.151> 111 127<512.675 611.795> 361 127<514.842 613.002>
LayerCount: 2
Fore
SplineSet
35 223 m 0xe8
 35 313 77 376 173 433 c 1
 125 487 111 516 111 569 c 0xd8
 111 672 192 752 298 752 c 0
 406 752 488 674 488 570 c 0
 488 490 461 446 372 389 c 1
 439 314 l 1
 511 433 l 1
 660 433 l 1
 532 214 l 1
 664 73 l 1
 569 -13 l 1
 464 98 l 1
 401 14 355 -13 276 -13 c 0
 141 -13 35 91 35 223 c 0xe8
168 215 m 0xe8
 168 160 210 119 268 119 c 0
 312 119 338 138 372 198 c 1
 257 322 l 1
 195 294 168 262 168 215 c 0xe8
238 567 m 0xd8
 238 540 250 519 289 481 c 1
 345 511 361 529 361 566 c 0
 361 602 336 627 300 627 c 0
 265 627 238 601 238 567 c 0xd8
EndSplineSet
Validated: 1
AlternateSubs2: "'aalt' Access All Alternates lookup 0 subtable" ampersand
AlternateSubs2: "'aalt' Access All Alternates in Latin lookup 0 subtable" ampersand
Substitution2: "'lnum' Lining Figures in Latin lookup 4 subtable" ampersand
Substitution2: "'onum' Oldstyle Figures in Latin lookup 3 subtable" ampersand
EndChar

StartChar: quotesingle
Encoding: 39 39 27
Width: 220
VWidth: 0
Flags: W
TeX: 739 0
HStem: 513 226<74 150>
VStem: 74 76<513 739>
LayerCount: 2
Fore
SplineSet
74 513 m 1
 74 739 l 1
 150 739 l 1
 150 513 l 1
 74 513 l 1
EndSplineSet
Validated: 1
EndChar

StartChar: comma
Encoding: 44 44 28
Width: 280
VWidth: 0
Flags: W
TeX: 128 -140
HStem: -140 67<72 116.952> 0 128<72 131>
VStem: 72 133<0 128> 131 74<-60.2031 0>
LayerCount: 2
Fore
SplineSet
72 0 m 1xe0
 72 128 l 1
 205 128 l 1xe0
 205 -7 l 2xd0
 205 -84 160 -140 72 -140 c 1
 72 -73 l 1xe0
 114 -65 131 -49 131 -17 c 0xd0
 131 -13 131 -6 130 0 c 1
 72 0 l 1xe0
EndSplineSet
Validated: 1
EndChar

StartChar: hyphen
Encoding: 45 45 29
Width: 420
VWidth: 0
Flags: W
TeX: 347 0
HStem: 229 118<74 351>
VStem: 74 277<229 347>
LayerCount: 2
Fore
SplineSet
74 229 m 1
 74 347 l 1
 351 347 l 1
 351 229 l 1
 74 229 l 1
EndSplineSet
Validated: 1
EndChar

StartChar: period
Encoding: 46 46 30
Width: 280
VWidth: 0
Flags: W
TeX: 128 0
HStem: 0 128<72 205>
VStem: 72 133<0 128>
LayerCount: 2
Fore
SplineSet
72 0 m 1
 72 128 l 1
 205 128 l 1
 205 0 l 1
 72 0 l 1
EndSplineSet
Validated: 1
EndChar

StartChar: zero
Encoding: 48 48 31
Width: 560
VWidth: 0
Flags: W
TeX: 739 0
HStem: -13 122<209.951 348.508> 630 122<209.7 346.426>
VStem: 30 133<161.364 579.369> 392 133<154.94 583.495>
LayerCount: 2
Fore
SplineSet
30 247 m 2
 30 498 l 2
 30 654 126 752 278 752 c 0
 428 752 525 655 525 505 c 2
 525 247 l 2
 525 81 429 -13 284 -13 c 0
 132 -13 30 81 30 247 c 2
163 251 m 2
 163 159 204 109 280 109 c 0
 351 109 392 153 392 248 c 2
 392 498 l 2
 392 583 351 630 279 630 c 0
 207 630 163 580 163 498 c 2
 163 251 l 2
EndSplineSet
Validated: 1
AlternateSubs2: "'aalt' Access All Alternates lookup 0 subtable" zero.slash zero.prop zero.oldstyle
AlternateSubs2: "'aalt' Access All Alternates in Latin lookup 0 subtable" zero.slash zero.prop zero.oldstyle
Substitution2: "'zero' Slashed Zero in Latin lookup 21 subtable" zero.slash
Substitution2: "'pnum' Proportional Numbers in Latin lookup 5 subtable" zero.prop
Substitution2: "'onum' Oldstyle Figures in Latin lookup 3 subtable" zero.oldstyle
EndChar

StartChar: one
Encoding: 49 49 32
Width: 560
VWidth: 0
Flags: W
TeX: 739 0
HStem: 0 21G<246 379> 614 125<153 246>
VStem: 246 133<0 614>
LayerCount: 2
Fore
SplineSet
153 614 m 1
 153 739 l 1
 379 739 l 1
 379 0 l 1
 246 0 l 1
 246 614 l 1
 153 614 l 1
EndSplineSet
Validated: 1
AlternateSubs2: "'aalt' Access All Alternates lookup 0 subtable" one.prop one.oldstyle
AlternateSubs2: "'aalt' Access All Alternates in Latin lookup 0 subtable" one.prop one.oldstyle
Substitution2: "'pnum' Proportional Numbers in Latin lookup 5 subtable" one.prop
Substitution2: "'onum' Oldstyle Figures in Latin lookup 3 subtable" one.oldstyle
EndChar

StartChar: two
Encoding: 50 50 33
Width: 560
VWidth: 0
Flags: W
TeX: 739 0
HStem: 0 125<226 517> 630 122<215.563 341.651>
VStem: 34 131<484 571.86> 387 133<441.246 584.443>
LayerCount: 2
Fore
SplineSet
34 484 m 1
 34 654 137 752 279 752 c 0
 416 752 520 648 520 512 c 0
 520 421 489 363 377 262 c 2
 226 125 l 1
 517 125 l 1
 517 0 l 1
 39 0 l 1
 39 117 l 1
 302 366 l 2
 362 423 387 466 387 514 c 0
 387 580 341 630 280 630 c 0
 211 630 165 572 165 484 c 1
 34 484 l 1
EndSplineSet
Validated: 1
AlternateSubs2: "'aalt' Access All Alternates lookup 0 subtable" two.prop two.oldstyle
AlternateSubs2: "'aalt' Access All Alternates in Latin lookup 0 subtable" two.prop two.oldstyle
Substitution2: "'pnum' Proportional Numbers in Latin lookup 5 subtable" two.prop
Substitution2: "'onum' Oldstyle Figures in Latin lookup 3 subtable" two.oldstyle
EndChar

StartChar: three
Encoding: 51 51 34
Width: 560
VWidth: 0
Flags: W
TeX: 739 0
HStem: -13 122<200.595 335.71> 356 128<218 308.157> 563 21G<70 208> 630 122<222.05 313.516>
VStem: 15 134<162.064 224> 332 133<507 613.708> 385 133<159.237 302.335>
LayerCount: 2
Fore
SplineSet
15 224 m 1xfa
 149 224 l 1
 158 154 205 109 269 109 c 0
 336 109 385 161 385 232 c 0xfa
 385 307 328 356 240 356 c 2
 218 356 l 1
 218 484 l 1
 302 486 332 509 332 560 c 0
 332 601 305 630 267 630 c 0
 231 630 211 609 205 563 c 1
 70 563 l 1
 80 688 163 752 266 752 c 0
 380 752 465 667 465 553 c 0xfc
 465 496 446 457 403 426 c 1
 479 392 518 328 518 235 c 0
 518 92 413 -13 270 -13 c 0
 128 -13 23 85 15 224 c 1xfa
EndSplineSet
Validated: 1
AlternateSubs2: "'aalt' Access All Alternates lookup 0 subtable" three.prop three.oldstyle
AlternateSubs2: "'aalt' Access All Alternates in Latin lookup 0 subtable" three.prop three.oldstyle
Substitution2: "'pnum' Proportional Numbers in Latin lookup 5 subtable" three.prop
Substitution2: "'onum' Oldstyle Figures in Latin lookup 3 subtable" three.oldstyle
EndChar

StartChar: four
Encoding: 52 52 35
Width: 560
VWidth: 0
Flags: W
TeX: 739 0
HStem: 0 21G<319 452> 111 119<135 319 452 530> 719 20G<326.923 452>
VStem: 319 133<0 111 230 515>
LayerCount: 2
Fore
SplineSet
0 111 m 1
 0 219 l 1
 340 739 l 1
 452 739 l 1
 452 230 l 1
 530 230 l 1
 530 111 l 1
 452 111 l 1
 452 0 l 1
 319 0 l 1
 319 111 l 1
 0 111 l 1
135 230 m 1
 319 230 l 1
 319 515 l 1
 135 230 l 1
EndSplineSet
Validated: 1
AlternateSubs2: "'aalt' Access All Alternates lookup 0 subtable" four.prop four.oldstyle
AlternateSubs2: "'aalt' Access All Alternates in Latin lookup 0 subtable" four.prop four.oldstyle
Substitution2: "'pnum' Proportional Numbers in Latin lookup 5 subtable" four.prop
Substitution2: "'onum' Oldstyle Figures in Latin lookup 3 subtable" four.oldstyle
EndChar

StartChar: five
Encoding: 53 53 36
Width: 560
VWidth: 0
Flags: W
TeX: 739 0
HStem: -13 122<196.563 334.216> 377 122<198.239 334.833> 614 125<215 449>
VStem: 387 133<166.096 320.187>
LayerCount: 2
Fore
SplineSet
12 221 m 1
 145 221 l 1
 158 149 201 109 265 109 c 0
 337 109 387 165 387 245 c 0
 387 320 335 377 267 377 c 0
 225 377 197 362 164 321 c 1
 46 353 l 1
 115 739 l 1
 449 739 l 1
 449 614 l 1
 215 614 l 1
 191 478 l 1
 229 494 252 499 286 499 c 0
 421 499 520 392 520 247 c 0
 520 99 412 -13 269 -13 c 0
 138 -13 19 85 12 221 c 1
EndSplineSet
Validated: 1
AlternateSubs2: "'aalt' Access All Alternates lookup 0 subtable" five.prop five.oldstyle
AlternateSubs2: "'aalt' Access All Alternates in Latin lookup 0 subtable" five.prop five.oldstyle
Substitution2: "'pnum' Proportional Numbers in Latin lookup 5 subtable" five.prop
Substitution2: "'onum' Oldstyle Figures in Latin lookup 3 subtable" five.oldstyle
EndChar

StartChar: six
Encoding: 54 54 37
Width: 560
VWidth: 0
Flags: W
TeX: 739 0
HStem: -13 122<207.521 347.413> 370 116<270.625 346.37> 719 20G<273.69 446>
VStem: 21 133<164.36 317.448> 400 133<162.765 314.414>
LayerCount: 2
Fore
SplineSet
21 242 m 0
 21 313 41 369 94 449 c 2
 287 739 l 1
 446 739 l 1
 269 476 l 1
 293 484 306 486 329 486 c 0
 447 486 533 387 533 252 c 0
 533 98 427 -13 280 -13 c 0
 131 -13 21 96 21 242 c 0
154 239 m 0
 154 163 207 109 280 109 c 0
 351 109 400 162 400 239 c 0
 400 315 348 370 278 370 c 0
 204 370 154 317 154 239 c 0
EndSplineSet
Validated: 1
AlternateSubs2: "'aalt' Access All Alternates lookup 0 subtable" six.prop six.oldstyle
AlternateSubs2: "'aalt' Access All Alternates in Latin lookup 0 subtable" six.prop six.oldstyle
Substitution2: "'pnum' Proportional Numbers in Latin lookup 5 subtable" six.prop
Substitution2: "'onum' Oldstyle Figures in Latin lookup 3 subtable" six.oldstyle
EndChar

StartChar: seven
Encoding: 55 55 38
Width: 560
VWidth: 0
Flags: W
TeX: 739 0
HStem: 0 21G<80 238.795> 614 125<65 360>
LayerCount: 2
Fore
SplineSet
65 614 m 1
 65 739 l 1
 500 739 l 1
 500 614 l 1
 230 0 l 1
 80 0 l 1
 360 614 l 1
 65 614 l 1
EndSplineSet
Validated: 1
AlternateSubs2: "'aalt' Access All Alternates lookup 0 subtable" seven.prop seven.oldstyle
AlternateSubs2: "'aalt' Access All Alternates in Latin lookup 0 subtable" seven.prop seven.oldstyle
Substitution2: "'pnum' Proportional Numbers in Latin lookup 5 subtable" seven.prop
Substitution2: "'onum' Oldstyle Figures in Latin lookup 3 subtable" seven.oldstyle
EndChar

StartChar: eight
Encoding: 56 56 39
Width: 560
VWidth: 0
Flags: W
TeX: 739 0
HStem: -13 122<213.594 342.395> 341 128<228.93 329.261> 630 122<227.138 331.035>
VStem: 31 133<157.453 292.795> 76 127<494.2 605.13> 354 127<493.565 604.72> 390 133<156.083 292.066>
LayerCount: 2
Fore
SplineSet
31 231 m 0xf2
 31 309 60 368 137 411 c 1
 91 460 76 495 76 549 c 0
 76 662 166 752 279 752 c 0
 395 752 481 666 481 551 c 0xec
 481 489 461 445 419 411 c 1
 492 367 523 315 523 232 c 0
 523 92 418 -13 278 -13 c 0
 139 -13 31 93 31 231 c 0xf2
164 226 m 0xf2
 164 160 214 109 279 109 c 0
 342 109 390 159 390 225 c 0
 390 289 340 341 279 341 c 0
 215 341 164 291 164 226 c 0xf2
203 549 m 0xec
 203 505 237 469 279 469 c 0
 320 469 354 505 354 550 c 0
 354 595 321 630 280 630 c 0
 236 630 203 595 203 549 c 0xec
EndSplineSet
Validated: 1
AlternateSubs2: "'aalt' Access All Alternates lookup 0 subtable" eight.prop eight.oldstyle
AlternateSubs2: "'aalt' Access All Alternates in Latin lookup 0 subtable" eight.prop eight.oldstyle
Substitution2: "'pnum' Proportional Numbers in Latin lookup 5 subtable" eight.prop
Substitution2: "'onum' Oldstyle Figures in Latin lookup 3 subtable" eight.oldstyle
EndChar

StartChar: nine
Encoding: 57 57 40
Width: 560
VWidth: 0
Flags: W
TeX: 739 0
HStem: 0 21G<107 279.31> 251 118<207.983 283.329> 630 122<206.356 345.479>
VStem: 22 133<424.688 576.018> 399 133<422.822 574.371>
LayerCount: 2
Fore
SplineSet
22 487 m 0
 22 641 127 752 273 752 c 0
 422 752 532 643 532 496 c 0
 532 425 512 369 459 290 c 2
 266 0 l 1
 107 0 l 1
 285 263 l 1
 261 254 247 251 225 251 c 0
 110 251 22 353 22 487 c 0
155 500 m 0
 155 424 206 369 276 369 c 0
 349 369 399 423 399 500 c 0
 399 576 346 630 273 630 c 0
 203 630 155 576 155 500 c 0
EndSplineSet
Validated: 1
AlternateSubs2: "'aalt' Access All Alternates lookup 0 subtable" nine.prop nine.oldstyle
AlternateSubs2: "'aalt' Access All Alternates in Latin lookup 0 subtable" nine.prop nine.oldstyle
Substitution2: "'pnum' Proportional Numbers in Latin lookup 5 subtable" nine.prop
Substitution2: "'onum' Oldstyle Figures in Latin lookup 3 subtable" nine.oldstyle
EndChar

StartChar: colon
Encoding: 58 58 41
Width: 280
VWidth: 0
Flags: W
TeX: 502 0
HStem: 0 128<72 205> 369 133<72 205>
VStem: 72 133<0 128 369 502>
LayerCount: 2
Fore
SplineSet
72 0 m 1
 72 128 l 1
 205 128 l 1
 205 0 l 1
 72 0 l 1
72 369 m 1
 72 502 l 1
 205 502 l 1
 205 369 l 1
 72 369 l 1
EndSplineSet
Validated: 1
EndChar

StartChar: semicolon
Encoding: 59 59 42
Width: 280
VWidth: 0
Flags: W
TeX: 502 -140
HStem: -140 67<72 117.964> 0 128<72 131> 369 133<72 205>
VStem: 72 133<0 128 369 502> 131 74<-58.878 0>
LayerCount: 2
Fore
SplineSet
72 0 m 1xf0
 72 128 l 1
 205 128 l 1xf0
 205 -7 l 2xe8
 205 -88 154 -140 72 -140 c 1
 72 -73 l 1xf0
 114 -65 131 -49 131 -17 c 2
 131 0 l 1xe8
 72 0 l 1xf0
72 369 m 1
 72 502 l 1
 205 502 l 1
 205 369 l 1
 72 369 l 1
EndSplineSet
Validated: 1
EndChar

StartChar: question
Encoding: 63 63 43
Width: 560
VWidth: 0
Flags: W
TeX: 739 0
HStem: 0 128<185 318> 620 132<198.969 318.839>
VStem: 32 133<520 580.766> 185 133<0 128 187 297.084> 352 133<467.372 587.272>
LayerCount: 2
Fore
SplineSet
32 520 m 1
 44 675 141 752 260 752 c 0
 388 752 485 654 485 523 c 0
 485 456 460 411 383 344 c 0
 328 296 319 274 318 187 c 1
 185 187 l 1
 185 312 207 360 307 442 c 0
 337 467 352 497 352 527 c 0
 352 581 312 620 257 620 c 0
 203 620 174 588 165 520 c 1
 32 520 l 1
185 0 m 1
 185 128 l 1
 318 128 l 1
 318 0 l 1
 185 0 l 1
EndSplineSet
Validated: 1
EndChar

StartChar: at
Encoding: 64 64 44
Width: 740
VWidth: 0
Flags: W
TeX: 739 0
HStem: -13 73<278.877 506.977> 154 106<302.811 403.848> 154 83<507.5 619.153> 465 112<320.231 431.571> 694 72<271.098 506.396>
VStem: 3 71<259.071 494.648> 157 120<287.195 421.962> 455 91<263 374> 672 73<307.41 525.651>
LayerCount: 2
Fore
SplineSet
3 377 m 0xbf80
 3 598 169 766 388 766 c 0
 599 766 745 623 745 397 c 0
 745 252 657 154 534 154 c 0xbf80
 481 154 448 172 435 208 c 1
 410 171 375 154 322 154 c 0xdf80
 222 154 157 228 157 345 c 0
 157 477 244 577 359 577 c 0
 413 577 444 562 477 519 c 1
 484 573 l 1
 580 573 l 1
 547 278 l 2
 546 273 546 270 546 263 c 0
 546 246 555 237 573 237 c 0
 626 237 672 319 672 413 c 0
 672 580 558 694 390 694 c 0
 208 694 74 558 74 374 c 0
 74 205 198 60 401 60 c 0
 460 60 506 74 550 107 c 1
 596 47 l 1
 542 5 484 -13 399 -13 c 0
 172 -13 3 152 3 377 c 0xbf80
277 355 m 0
 277 297 307 260 355 260 c 0xdf80
 413 260 455 307 455 374 c 0
 455 430 426 465 379 465 c 0
 323 465 277 416 277 355 c 0
EndSplineSet
Validated: 1
AlternateSubs2: "'aalt' Access All Alternates lookup 0 subtable" at.alt
AlternateSubs2: "'aalt' Access All Alternates in Latin lookup 0 subtable" at.alt
Substitution2: "'ss02' Style Set 2 in Latin lookup 16 subtable" at.alt
Substitution2: "'ss01' Style Set 1 in Latin lookup 15 subtable" at.alt
Substitution2: "'salt' Stylistic Alternatives in Latin lookup 14 subtable" at.alt
EndChar

StartChar: A
Encoding: 65 65 45
Width: 740
VWidth: 0
GlyphClass: 2
Flags: W
TeX: 739 0
HStem: 0 21G<7 166.586 573.728 733> 191 131<290 448> 719 20G<306.664 431.39>
AnchorPoint: "bot_acc" 369 -146 basechar 0
AnchorPoint: "dotbelow" 369 -146 basechar 0
AnchorPoint: "ogon_acc" 632 -146 basechar 0
AnchorPoint: "top_accu" 369 875 basechar 0
AnchorPoint: "dotabove" 369 875 basechar 0
LayerCount: 2
Fore
SplineSet
7 0 m 1
 315 739 l 1
 423 739 l 1
 733 0 l 1
 582 0 l 1
 503 191 l 1
 240 191 l 1
 158 0 l 1
 7 0 l 1
290 322 m 1
 448 322 l 1
 369 546 l 1
 290 322 l 1
EndSplineSet
Validated: 1
AlternateSubs2: "'aalt' Access All Alternates lookup 0 subtable" a.sc
AlternateSubs2: "'aalt' Access All Alternates in Latin lookup 0 subtable" a.sc
Substitution2: "'c2sc' Capitals to Small Capitals in Latin lookup 13 subtable" a.sc
Position2: "'cpsp' Capital Spacing in Latin lookup 13 subtable" dx=7 dy=0 dh=14 dv=0
EndChar

StartChar: B
Encoding: 66 66 46
Width: 580
VWidth: 0
GlyphClass: 2
Flags: W
TeX: 739 0
HStem: 0 131<205 375.379> 320 134<205 341.52> 605 134<205 343.826>
VStem: 68 137<131 320 454 605> 367 137<477.645 582.776> 410 138<164.199 284.097>
AnchorPoint: "bot_acc" 308 -146 basechar 0
AnchorPoint: "dotbelow" 308 -146 basechar 0
AnchorPoint: "ogon_acc" 164 -146 basechar 0
AnchorPoint: "top_accu" 308 875 basechar 0
AnchorPoint: "dotabove" 308 875 basechar 0
LayerCount: 2
Fore
SplineSet
68 0 m 1xf4
 68 739 l 1
 220 739 l 2
 330 739 376 731 420 703 c 0
 473 669 504 611 504 542 c 0xf8
 504 473 481 434 422 403 c 1
 516 364 548 308 548 220 c 0
 548 85 455 0 265 0 c 2
 68 0 l 1xf4
205 131 m 1
 273 131 l 2
 369 131 410 159 410 223 c 0xf4
 410 289 365 320 270 320 c 2
 205 320 l 1
 205 131 l 1
205 454 m 1
 249 454 l 2
 332 454 367 477 367 530 c 0xf8
 367 581 332 605 261 605 c 2
 205 605 l 1
 205 454 l 1
EndSplineSet
Validated: 1
AlternateSubs2: "'aalt' Access All Alternates lookup 0 subtable" b.sc
AlternateSubs2: "'aalt' Access All Alternates in Latin lookup 0 subtable" b.sc
Substitution2: "'c2sc' Capitals to Small Capitals in Latin lookup 13 subtable" b.sc
Position2: "'cpsp' Capital Spacing in Latin lookup 13 subtable" dx=7 dy=0 dh=14 dv=0
EndChar

StartChar: C
Encoding: 67 67 47
Width: 780
VWidth: 0
GlyphClass: 2
Flags: W
TeX: 739 0
HStem: -13 132<320.635 514.583> 620 132<312.525 520.103>
VStem: 30 138<274.533 474.916>
AnchorPoint: "bot_acc" 410 -146 basechar 0
AnchorPoint: "dotbelow" 410 -146 basechar 0
AnchorPoint: "ogon_acc" 410 -146 basechar 0
AnchorPoint: "top_accu" 410 875 basechar 0
AnchorPoint: "dotabove" 410 875 basechar 0
LayerCount: 2
Fore
SplineSet
30 372 m 0
 30 581 201 752 410 752 c 0
 562 752 695 670 760 527 c 1
 607 527 l 1
 557 592 499 620 413 620 c 0
 272 620 168 510 168 371 c 0
 168 233 280 119 416 119 c 0
 487 119 539 143 599 206 c 1
 760 206 l 1
 702 71 570 -13 419 -13 c 0
 203 -13 30 159 30 372 c 0
EndSplineSet
Validated: 1
AlternateSubs2: "'aalt' Access All Alternates lookup 0 subtable" c.sc
AlternateSubs2: "'aalt' Access All Alternates in Latin lookup 0 subtable" c.sc
Substitution2: "'c2sc' Capitals to Small Capitals in Latin lookup 13 subtable" c.sc
Position2: "'cpsp' Capital Spacing in Latin lookup 13 subtable" dx=7 dy=0 dh=14 dv=0
EndChar

StartChar: D
Encoding: 68 68 48
Width: 700
VWidth: 0
GlyphClass: 2
Flags: W
TeX: 739 0
HStem: 0 131<205 389.59> 608 131<205 389.75>
VStem: 68 137<131 608> 522 138<262.549 475.792>
AnchorPoint: "bot_acc" 280 -146 basechar 0
AnchorPoint: "dotbelow" 280 -146 basechar 0
AnchorPoint: "ogon_acc" 139 -146 basechar 0
AnchorPoint: "top_accu" 280 875 basechar 0
AnchorPoint: "dotabove" 280 875 basechar 0
LayerCount: 2
Fore
SplineSet
68 0 m 1
 68 739 l 1
 237 739 l 2
 353 739 441 721 499 686 c 0
 602 624 660 508 660 368 c 0
 660 219 593 97 479 41 c 0
 419 11 352 0 240 0 c 2
 68 0 l 1
205 131 m 1
 235 131 l 2
 317 131 374 141 415 164 c 0
 481 200 522 279 522 368 c 0
 522 463 479 542 409 578 c 0
 366 600 319 608 232 608 c 2
 205 608 l 1
 205 131 l 1
EndSplineSet
Validated: 1
AlternateSubs2: "'aalt' Access All Alternates lookup 0 subtable" d.sc
AlternateSubs2: "'aalt' Access All Alternates in Latin lookup 0 subtable" d.sc
Substitution2: "'c2sc' Capitals to Small Capitals in Latin lookup 13 subtable" d.sc
Position2: "'cpsp' Capital Spacing in Latin lookup 13 subtable" dx=7 dy=0 dh=14 dv=0
EndChar

StartChar: E
Encoding: 69 69 49
Width: 520
VWidth: 0
GlyphClass: 2
Flags: W
TeX: 739 0
HStem: 0 131<205 465> 303 131<205 454> 608 131<205 465>
VStem: 68 137<131 303 434 608>
AnchorPoint: "bot_acc" 267 -146 basechar 0
AnchorPoint: "dotbelow" 267 -146 basechar 0
AnchorPoint: "ogon_acc" 364 -146 basechar 0
AnchorPoint: "top_accu" 267 875 basechar 0
AnchorPoint: "dotabove" 267 875 basechar 0
LayerCount: 2
Fore
SplineSet
68 0 m 1
 68 739 l 1
 465 739 l 1
 465 608 l 1
 205 608 l 1
 205 434 l 1
 454 434 l 1
 454 303 l 1
 205 303 l 1
 205 131 l 1
 465 131 l 1
 465 0 l 1
 68 0 l 1
EndSplineSet
Validated: 1
AlternateSubs2: "'aalt' Access All Alternates lookup 0 subtable" e.sc
AlternateSubs2: "'aalt' Access All Alternates in Latin lookup 0 subtable" e.sc
Substitution2: "'c2sc' Capitals to Small Capitals in Latin lookup 13 subtable" e.sc
Position2: "'cpsp' Capital Spacing in Latin lookup 13 subtable" dx=7 dy=0 dh=14 dv=0
EndChar

StartChar: F
Encoding: 70 70 50
Width: 480
VWidth: 0
GlyphClass: 2
Flags: W
TeX: 739 0
HStem: 0 21G<68 205> 303 131<205 433> 608 131<205 444>
VStem: 68 137<0 303 434 608>
AnchorPoint: "bot_acc" 256 -146 basechar 0
AnchorPoint: "dotbelow" 256 -146 basechar 0
AnchorPoint: "ogon_acc" 104 -146 basechar 0
AnchorPoint: "top_accu" 256 875 basechar 0
AnchorPoint: "dotabove" 256 875 basechar 0
LayerCount: 2
Fore
SplineSet
68 0 m 1
 68 739 l 1
 444 739 l 1
 444 608 l 1
 205 608 l 1
 205 434 l 1
 433 434 l 1
 433 303 l 1
 205 303 l 1
 205 0 l 1
 68 0 l 1
EndSplineSet
Validated: 1
AlternateSubs2: "'aalt' Access All Alternates lookup 0 subtable" f.sc
AlternateSubs2: "'aalt' Access All Alternates in Latin lookup 0 subtable" f.sc
Substitution2: "'c2sc' Capitals to Small Capitals in Latin lookup 13 subtable" f.sc
Position2: "'cpsp' Capital Spacing in Latin lookup 13 subtable" dx=7 dy=0 dh=14 dv=0
EndChar

StartChar: G
Encoding: 71 71 51
Width: 840
VWidth: 0
GlyphClass: 2
Flags: W
TeX: 739 0
HStem: -13 132<318.64 529.297> 249 128<335 641> 620 132<313.876 522.553>
VStem: 30 138<272.088 474.16>
AnchorPoint: "bot_acc" 419 -146 basechar 0
AnchorPoint: "dotbelow" 419 -146 basechar 0
AnchorPoint: "ogon_acc" 419 -146 basechar 0
AnchorPoint: "top_accu" 419 875 basechar 0
AnchorPoint: "dotabove" 419 875 basechar 0
LayerCount: 2
Fore
SplineSet
30 371 m 0
 30 583 203 752 419 752 c 0
 580 752 732 655 780 522 c 1
 619 522 l 1
 573 586 502 620 416 620 c 0
 270 620 168 508 168 369 c 0
 168 228 279 119 424 119 c 0
 521 119 601 167 641 249 c 1
 335 249 l 1
 335 377 l 1
 818 377 l 1
 818 359 l 2
 818 158 650 -13 432 -13 c 0
 205 -13 30 155 30 371 c 0
EndSplineSet
Validated: 1
AlternateSubs2: "'aalt' Access All Alternates lookup 0 subtable" g.sc
AlternateSubs2: "'aalt' Access All Alternates in Latin lookup 0 subtable" g.sc
Substitution2: "'c2sc' Capitals to Small Capitals in Latin lookup 13 subtable" g.sc
Position2: "'cpsp' Capital Spacing in Latin lookup 13 subtable" dx=7 dy=0 dh=14 dv=0
EndChar

StartChar: H
Encoding: 72 72 52
Width: 680
VWidth: 0
GlyphClass: 2
Flags: W
TeX: 739 0
HStem: 0 21G<68 205 469 606> 310 131<205 469> 719 20G<68 205 469 606>
VStem: 68 137<0 310 441 739> 469 137<0 310 441 739>
AnchorPoint: "bot_acc" 337 -146 basechar 0
AnchorPoint: "dotbelow" 337 -146 basechar 0
AnchorPoint: "ogon_acc" 505 -146 basechar 0
AnchorPoint: "top_accu" 337 875 basechar 0
AnchorPoint: "dotabove" 337 875 basechar 0
LayerCount: 2
Fore
SplineSet
68 0 m 1
 68 739 l 1
 205 739 l 1
 205 441 l 1
 469 441 l 1
 469 739 l 1
 606 739 l 1
 606 0 l 1
 469 0 l 1
 469 310 l 1
 205 310 l 1
 205 0 l 1
 68 0 l 1
EndSplineSet
Validated: 1
AlternateSubs2: "'aalt' Access All Alternates lookup 0 subtable" h.sc
AlternateSubs2: "'aalt' Access All Alternates in Latin lookup 0 subtable" h.sc
Substitution2: "'c2sc' Capitals to Small Capitals in Latin lookup 13 subtable" h.sc
Position2: "'cpsp' Capital Spacing in Latin lookup 13 subtable" dx=7 dy=0 dh=14 dv=0
EndChar

StartChar: I
Encoding: 73 73 53
Width: 280
VWidth: 0
GlyphClass: 2
Flags: W
TeX: 739 0
HStem: 0 21G<68 205> 719 20G<68 205>
VStem: 68 137<0 739>
AnchorPoint: "bot_acc" 137 -146 basechar 0
AnchorPoint: "dotbelow" 137 -146 basechar 0
AnchorPoint: "ogon_acc" 104 -146 basechar 0
AnchorPoint: "top_accu" 137 875 basechar 0
AnchorPoint: "dotabove" 137 875 basechar 0
LayerCount: 2
Fore
SplineSet
68 0 m 1
 68 739 l 1
 205 739 l 1
 205 0 l 1
 68 0 l 1
EndSplineSet
Validated: 1
AlternateSubs2: "'aalt' Access All Alternates lookup 0 subtable" i.sc
AlternateSubs2: "'aalt' Access All Alternates in Latin lookup 0 subtable" i.sc
Substitution2: "'c2sc' Capitals to Small Capitals in Latin lookup 13 subtable" i.sc
Position2: "'cpsp' Capital Spacing in Latin lookup 13 subtable" dx=7 dy=0 dh=14 dv=0
EndChar

StartChar: J
Encoding: 74 74 54
Width: 480
VWidth: 0
GlyphClass: 2
Flags: W
TeX: 739 -13
HStem: -13 132<164.042 258.284> 719 20G<277 414>
VStem: 277 137<139.62 739>
AnchorPoint: "bot_acc" 346 -146 basechar 0
AnchorPoint: "dotbelow" 346 -146 basechar 0
AnchorPoint: "ogon_acc" 174 -146 basechar 0
AnchorPoint: "top_accu" 346 875 basechar 0
AnchorPoint: "dotabove" 346 875 basechar 0
AnchorPoint: "ccmped" 532 675 basechar 0
LayerCount: 2
Fore
SplineSet
9 175 m 1
 146 175 l 1
 155 138 177 119 211 119 c 0
 255 119 277 151 277 216 c 2
 277 739 l 1
 414 739 l 1
 414 212 l 2
 414 73 338 -13 214 -13 c 0
 107 -13 22 50 9 175 c 1
EndSplineSet
Validated: 1
AlternateSubs2: "'aalt' Access All Alternates lookup 0 subtable" j.sc
AlternateSubs2: "'aalt' Access All Alternates in Latin lookup 0 subtable" j.sc
Substitution2: "'c2sc' Capitals to Small Capitals in Latin lookup 13 subtable" j.sc
Position2: "'cpsp' Capital Spacing in Latin lookup 13 subtable" dx=7 dy=0 dh=14 dv=0
EndChar

StartChar: K
Encoding: 75 75 55
Width: 620
VWidth: 0
GlyphClass: 2
Flags: W
TeX: 739 0
HStem: 0 21G<68 205 419.908 599> 719 20G<68 205 419.643 599>
VStem: 68 137<0 325 420 739>
AnchorPoint: "bot_acc" 320 -146 basechar 0
AnchorPoint: "dotbelow" 320 -146 basechar 0
AnchorPoint: "ogon_acc" 498 -146 basechar 0
AnchorPoint: "top_accu" 320 875 basechar 0
AnchorPoint: "dotabove" 320 875 basechar 0
LayerCount: 2
Fore
SplineSet
68 0 m 1
 68 739 l 1
 205 739 l 1
 205 420 l 1
 434 739 l 1
 599 739 l 1
 321 376 l 1
 599 0 l 1
 434 0 l 1
 205 325 l 1
 205 0 l 1
 68 0 l 1
EndSplineSet
Validated: 1
AlternateSubs2: "'aalt' Access All Alternates lookup 0 subtable" k.sc
AlternateSubs2: "'aalt' Access All Alternates in Latin lookup 0 subtable" k.sc
Substitution2: "'c2sc' Capitals to Small Capitals in Latin lookup 13 subtable" k.sc
Position2: "'cpsp' Capital Spacing in Latin lookup 13 subtable" dx=7 dy=0 dh=14 dv=0
EndChar

StartChar: L
Encoding: 76 76 56
Width: 440
VWidth: 0
GlyphClass: 2
Flags: W
TeX: 739 0
HStem: 0 131<205 431> 719 20G<68 205>
VStem: 68 137<131 739>
AnchorPoint: "bot_acc" 250 -146 basechar 0
AnchorPoint: "dotbelow" 250 -146 basechar 0
AnchorPoint: "ogon_acc" 330 -146 basechar 0
AnchorPoint: "top_accu" 137 875 basechar 0
AnchorPoint: "dotabove" 137 875 basechar 0
AnchorPoint: "ccmped" 336 675 basechar 0
LayerCount: 2
Fore
SplineSet
68 0 m 1
 68 739 l 1
 205 739 l 1
 205 131 l 1
 431 131 l 1
 431 0 l 1
 68 0 l 1
EndSplineSet
Validated: 1
AlternateSubs2: "'aalt' Access All Alternates lookup 0 subtable" l.sc
AlternateSubs2: "'aalt' Access All Alternates in Latin lookup 0 subtable" l.sc
Substitution2: "'c2sc' Capitals to Small Capitals in Latin lookup 13 subtable" l.sc
Position2: "'cpsp' Capital Spacing in Latin lookup 13 subtable" dx=7 dy=0 dh=14 dv=0
EndChar

StartChar: M
Encoding: 77 77 57
Width: 900
VWidth: 0
GlyphClass: 2
Flags: W
TeX: 739 0
HStem: 0 21G<68 205 391.032 516.968 703 840> 719 20G<68 263.107 644.964 840>
VStem: 68 137<0 554> 703 137<0 554>
AnchorPoint: "bot_acc" 454 -146 basechar 0
AnchorPoint: "dotbelow" 454 -146 basechar 0
AnchorPoint: "ogon_acc" 739 -146 basechar 0
AnchorPoint: "top_accu" 454 875 basechar 0
AnchorPoint: "dotabove" 454 875 basechar 0
LayerCount: 2
Fore
SplineSet
68 0 m 1
 68 739 l 1
 256 739 l 1
 455 179 l 1
 652 739 l 1
 840 739 l 1
 840 0 l 1
 703 0 l 1
 703 554 l 1
 510 0 l 1
 398 0 l 1
 205 554 l 1
 205 0 l 1
 68 0 l 1
EndSplineSet
Validated: 1
AlternateSubs2: "'aalt' Access All Alternates lookup 0 subtable" m.sc
AlternateSubs2: "'aalt' Access All Alternates in Latin lookup 0 subtable" m.sc
Substitution2: "'c2sc' Capitals to Small Capitals in Latin lookup 13 subtable" m.sc
Position2: "'cpsp' Capital Spacing in Latin lookup 13 subtable" dx=7 dy=0 dh=14 dv=0
EndChar

StartChar: N
Encoding: 78 78 58
Width: 740
VWidth: 0
GlyphClass: 2
Flags: W
TeX: 739 0
HStem: 0 21G<68 205 502.492 667> 719 20G<68 235.375 530 667>
VStem: 68 137<0 537> 530 137<201 739>
AnchorPoint: "bot_acc" 368 -146 basechar 0
AnchorPoint: "dotbelow" 368 -146 basechar 0
AnchorPoint: "ogon_acc" 566 -146 basechar 0
AnchorPoint: "top_accu" 368 875 basechar 0
AnchorPoint: "dotabove" 368 875 basechar 0
LayerCount: 2
Fore
SplineSet
68 0 m 1
 68 739 l 1
 224 739 l 1
 530 201 l 1
 530 739 l 1
 667 739 l 1
 667 0 l 1
 514 0 l 1
 205 537 l 1
 205 0 l 1
 68 0 l 1
EndSplineSet
Validated: 1
AlternateSubs2: "'aalt' Access All Alternates lookup 0 subtable" n.sc
AlternateSubs2: "'aalt' Access All Alternates in Latin lookup 0 subtable" n.sc
Substitution2: "'c2sc' Capitals to Small Capitals in Latin lookup 13 subtable" n.sc
Position2: "'cpsp' Capital Spacing in Latin lookup 13 subtable" dx=7 dy=0 dh=14 dv=0
EndChar

StartChar: O
Encoding: 79 79 59
Width: 840
VWidth: 0
GlyphClass: 2
Flags: W
TeX: 739 0
HStem: -13 132<317.674 518.207> 620 132<317.211 517.362>
VStem: 30 138<269.071 470.194> 662 138<263.584 473.754>
AnchorPoint: "bot_acc" 420 -146 basechar 0
AnchorPoint: "dotbelow" 420 -146 basechar 0
AnchorPoint: "ogon_acc" 420 -146 basechar 0
AnchorPoint: "top_accu" 420 875 basechar 0
AnchorPoint: "dotabove" 420 875 basechar 0
LayerCount: 2
Fore
SplineSet
30 369 m 0
 30 585 200 752 420 752 c 0
 631 752 800 581 800 370 c 0
 800 154 634 -13 419 -13 c 0
 202 -13 30 156 30 369 c 0
168 369 m 0
 168 229 278 119 418 119 c 0
 558 119 662 226 662 368 c 0
 662 510 555 620 418 620 c 0
 276 620 168 512 168 369 c 0
EndSplineSet
Validated: 1
AlternateSubs2: "'aalt' Access All Alternates lookup 0 subtable" o.sc
AlternateSubs2: "'aalt' Access All Alternates in Latin lookup 0 subtable" o.sc
Substitution2: "'c2sc' Capitals to Small Capitals in Latin lookup 13 subtable" o.sc
Position2: "'cpsp' Capital Spacing in Latin lookup 13 subtable" dx=7 dy=0 dh=14 dv=0
EndChar

StartChar: P
Encoding: 80 80 60
Width: 560
VWidth: 0
GlyphClass: 2
Flags: W
TeX: 739 0
HStem: 0 21G<68 205> 281 131<205 364.233> 608 131<205 366.5>
VStem: 68 137<0 281 412 608> 402 138<446.195 575.859>
AnchorPoint: "bot_acc" 304 -146 basechar 0
AnchorPoint: "dotbelow" 304 -146 basechar 0
AnchorPoint: "ogon_acc" 104 -146 basechar 0
AnchorPoint: "top_accu" 304 875 basechar 0
AnchorPoint: "dotabove" 304 875 basechar 0
LayerCount: 2
Fore
SplineSet
68 0 m 1
 68 739 l 1
 251 739 l 2
 349 739 398 730 440 705 c 0
 504 666 540 596 540 511 c 0
 540 426 503 351 443 314 c 0
 402 289 354 281 249 281 c 2
 205 281 l 1
 205 0 l 1
 68 0 l 1
205 412 m 1
 245 412 l 2
 368 412 402 445 402 509 c 0
 402 587 356 608 251 608 c 2
 205 608 l 1
 205 412 l 1
EndSplineSet
Validated: 1
AlternateSubs2: "'aalt' Access All Alternates lookup 0 subtable" p.sc
AlternateSubs2: "'aalt' Access All Alternates in Latin lookup 0 subtable" p.sc
Substitution2: "'c2sc' Capitals to Small Capitals in Latin lookup 13 subtable" p.sc
Position2: "'cpsp' Capital Spacing in Latin lookup 13 subtable" dx=7 dy=0 dh=14 dv=0
EndChar

StartChar: Q
Encoding: 81 81 61
Width: 840
VWidth: 0
GlyphClass: 2
Flags: W
TeX: 739 -15
HStem: -15 122<727.643 828> -13 132<318.333 517.545> 235 112<212.159 395.009> 620 132<314.925 526.784>
VStem: 30 137<337.59 470.494> 677 138<260.047 468.421>
AnchorPoint: "bot_acc" 429 -146 basechar 0
AnchorPoint: "dotbelow" 429 -146 basechar 0
AnchorPoint: "ogon_acc" 429 -146 basechar 0
AnchorPoint: "top_accu" 429 875 basechar 0
AnchorPoint: "dotabove" 429 875 basechar 0
LayerCount: 2
Fore
SplineSet
30 370 m 0x7c
 30 585 202 752 424 752 c 0
 648 752 815 587 815 366 c 0
 815 268 786 191 726 129 c 1
 757 113 770 107 794 107 c 0
 801 107 814 108 828 110 c 1
 828 -14 l 1
 820 -15 806 -15 802 -15 c 0xbc
 738 -15 698 2 635 45 c 1
 583 9 505 -13 430 -13 c 0
 207 -13 30 157 30 370 c 0x7c
167 369 m 0
 167 360 167 352 169 334 c 1
 203 343 239 347 283 347 c 0
 401 347 527 293 617 204 c 1
 657 245 677 297 677 364 c 0
 677 511 568 620 422 620 c 0
 277 620 167 512 167 369 c 0
211 227 m 1
 267 153 337 119 430 119 c 0x7c
 467 119 488 124 519 138 c 1
 434 206 363 235 282 235 c 0
 258 235 243 233 211 227 c 1
EndSplineSet
Validated: 1
AlternateSubs2: "'aalt' Access All Alternates lookup 0 subtable" q.sc
AlternateSubs2: "'aalt' Access All Alternates in Latin lookup 0 subtable" q.sc
Substitution2: "'c2sc' Capitals to Small Capitals in Latin lookup 13 subtable" q.sc
Position2: "'cpsp' Capital Spacing in Latin lookup 13 subtable" dx=7 dy=0 dh=14 dv=0
EndChar

StartChar: R
Encoding: 82 82 62
Width: 580
VWidth: 0
GlyphClass: 2
Flags: W
TeX: 739 0
HStem: 0 21G<68 205 385.29 568> 608 131<205 379.95>
VStem: 68 137<0 283 386 608> 423 138<426.532 569.467>
AnchorPoint: "bot_acc" 290 -146 basechar 0
AnchorPoint: "dotbelow" 290 -146 basechar 0
AnchorPoint: "ogon_acc" 467 -146 basechar 0
AnchorPoint: "top_accu" 290 875 basechar 0
AnchorPoint: "dotabove" 290 875 basechar 0
LayerCount: 2
Fore
SplineSet
68 0 m 1
 68 739 l 1
 281 739 l 2
 382 739 435 725 483 684 c 0
 534 641 561 577 561 502 c 0
 561 387 501 306 368 273 c 1
 568 0 l 1
 399 0 l 1
 205 283 l 1
 205 0 l 1
 68 0 l 1
205 386 m 1
 272 386 l 2
 378 386 423 420 423 498 c 0
 423 564 396 608 266 608 c 2
 205 608 l 1
 205 386 l 1
EndSplineSet
Validated: 1
AlternateSubs2: "'aalt' Access All Alternates lookup 0 subtable" r.sc
AlternateSubs2: "'aalt' Access All Alternates in Latin lookup 0 subtable" r.sc
Substitution2: "'c2sc' Capitals to Small Capitals in Latin lookup 13 subtable" r.sc
Position2: "'cpsp' Capital Spacing in Latin lookup 13 subtable" dx=7 dy=0 dh=14 dv=0
EndChar

StartChar: S
Encoding: 83 83 63
Width: 520
VWidth: 0
GlyphClass: 2
Flags: W
TeX: 739 0
HStem: -13 132<187.641 323.262> 620 132<201.153 310.312>
VStem: 41 138<494.89 599.425> 357 136<151.376 270.383>
AnchorPoint: "bot_acc" 256 -146 basechar 0
AnchorPoint: "dotbelow" 256 -146 basechar 0
AnchorPoint: "ogon_acc" 217 -146 basechar 0
AnchorPoint: "top_accu" 256 875 basechar 0
AnchorPoint: "dotabove" 256 875 basechar 0
LayerCount: 2
Fore
SplineSet
14 211 m 1
 157 211 l 1
 163 149 196 119 257 119 c 0
 316 119 357 156 357 209 c 0
 357 239 345 267 323 284 c 0
 301 301 293 304 195 341 c 0
 96 378 41 449 41 542 c 0
 41 659 137 752 256 752 c 0
 375 752 468 672 475 542 c 1
 333 542 l 1
 329 592 301 620 255 620 c 0
 210 620 179 589 179 545 c 0
 179 518 193 495 220 478 c 0
 230 472 232 471 302 445 c 0
 452 389 493 324 493 224 c 0
 493 90 390 -13 257 -13 c 0
 127 -13 26 71 14 211 c 1
EndSplineSet
Validated: 1
AlternateSubs2: "'aalt' Access All Alternates lookup 0 subtable" s.sc
AlternateSubs2: "'aalt' Access All Alternates in Latin lookup 0 subtable" s.sc
Substitution2: "'c2sc' Capitals to Small Capitals in Latin lookup 13 subtable" s.sc
Position2: "'cpsp' Capital Spacing in Latin lookup 13 subtable" dx=7 dy=0 dh=14 dv=0
EndChar

StartChar: T
Encoding: 84 84 64
Width: 420
VWidth: 0
GlyphClass: 2
Flags: W
TeX: 739 0
HStem: 0 21G<144 281> 608 131<7 144 281 418>
VStem: 144 137<0 608>
AnchorPoint: "bot_acc" 213 -146 basechar 0
AnchorPoint: "dotbelow" 213 -146 basechar 0
AnchorPoint: "ogon_acc" 180 -146 basechar 0
AnchorPoint: "top_accu" 213 875 basechar 0
AnchorPoint: "dotabove" 213 875 basechar 0
LayerCount: 2
Fore
SplineSet
7 608 m 1
 7 739 l 1
 418 739 l 1
 418 608 l 1
 281 608 l 1
 281 0 l 1
 144 0 l 1
 144 608 l 1
 7 608 l 1
EndSplineSet
Validated: 1
AlternateSubs2: "'aalt' Access All Alternates lookup 0 subtable" t.sc
AlternateSubs2: "'aalt' Access All Alternates in Latin lookup 0 subtable" t.sc
Substitution2: "'c2sc' Capitals to Small Capitals in Latin lookup 13 subtable" t.sc
Position2: "'cpsp' Capital Spacing in Latin lookup 13 subtable" dx=7 dy=0 dh=14 dv=0
EndChar

StartChar: U
Encoding: 85 85 65
Width: 640
VWidth: 0
GlyphClass: 2
Flags: W
TeX: 739 0
HStem: -13 132<246.658 387.948> 719 20G<68 205 430 567>
VStem: 68 137<167.859 739> 430 137<167.472 739>
AnchorPoint: "bot_acc" 318 -146 basechar 0
AnchorPoint: "dotbelow" 318 -146 basechar 0
AnchorPoint: "ogon_acc" 318 -146 basechar 0
AnchorPoint: "top_accu" 318 875 basechar 0
AnchorPoint: "dotabove" 318 875 basechar 0
LayerCount: 2
Fore
SplineSet
68 271 m 2
 68 739 l 1
 205 739 l 1
 205 271 l 2
 205 156 248 119 318 119 c 0
 386 119 430 155 430 271 c 2
 430 739 l 1
 567 739 l 1
 567 271 l 2
 567 82 463 -13 317 -13 c 0
 172 -13 68 83 68 271 c 2
EndSplineSet
Validated: 1
AlternateSubs2: "'aalt' Access All Alternates lookup 0 subtable" u.sc
AlternateSubs2: "'aalt' Access All Alternates in Latin lookup 0 subtable" u.sc
Substitution2: "'c2sc' Capitals to Small Capitals in Latin lookup 13 subtable" u.sc
Position2: "'cpsp' Capital Spacing in Latin lookup 13 subtable" dx=7 dy=0 dh=14 dv=0
EndChar

StartChar: V
Encoding: 86 86 66
Width: 700
VWidth: 0
GlyphClass: 2
Flags: W
TeX: 739 0
HStem: 0 21G<288.206 415.74> 719 20G<8 159.082 542.918 694>
AnchorPoint: "bot_acc" 351 -146 basechar 0
AnchorPoint: "dotbelow" 351 -146 basechar 0
AnchorPoint: "ogon_acc" 307 -146 basechar 0
AnchorPoint: "top_accu" 351 875 basechar 0
AnchorPoint: "dotabove" 351 875 basechar 0
LayerCount: 2
Fore
SplineSet
8 739 m 1
 152 739 l 1
 351 177 l 1
 550 739 l 1
 694 739 l 1
 408 0 l 1
 296 0 l 1
 8 739 l 1
EndSplineSet
Validated: 1
AlternateSubs2: "'aalt' Access All Alternates lookup 0 subtable" v.sc
AlternateSubs2: "'aalt' Access All Alternates in Latin lookup 0 subtable" v.sc
Substitution2: "'c2sc' Capitals to Small Capitals in Latin lookup 13 subtable" v.sc
Position2: "'cpsp' Capital Spacing in Latin lookup 13 subtable" dx=7 dy=0 dh=14 dv=0
EndChar

StartChar: W
Encoding: 87 87 67
Width: 900
VWidth: 0
GlyphClass: 2
Flags: W
TeX: 739 0
HStem: 0 21G<218.127 336.99 568.133 687.846> 719 20G<7 152.039 398.116 507.806 752.922 898>
AnchorPoint: "bot_acc" 453 -146 basechar 0
AnchorPoint: "dotbelow" 453 -146 basechar 0
AnchorPoint: "ogon_acc" 581 -146 basechar 0
AnchorPoint: "top_accu" 453 875 basechar 0
AnchorPoint: "dotabove" 453 875 basechar 0
LayerCount: 2
Fore
SplineSet
7 739 m 1
 147 739 l 1
 277 223 l 1
 403 739 l 1
 503 739 l 1
 627 223 l 1
 758 739 l 1
 898 739 l 1
 682 0 l 1
 573 0 l 1
 454 489 l 1
 332 0 l 1
 224 0 l 1
 7 739 l 1
EndSplineSet
Validated: 1
AlternateSubs2: "'aalt' Access All Alternates lookup 0 subtable" w.sc
AlternateSubs2: "'aalt' Access All Alternates in Latin lookup 0 subtable" w.sc
Substitution2: "'c2sc' Capitals to Small Capitals in Latin lookup 13 subtable" w.sc
Position2: "'cpsp' Capital Spacing in Latin lookup 13 subtable" dx=7 dy=0 dh=14 dv=0
EndChar

StartChar: X
Encoding: 88 88 68
Width: 680
VWidth: 0
GlyphClass: 2
Flags: W
TeX: 739 0
HStem: 0 21G<5 181.49 503.118 676> 719 20G<5 181.333 503.279 676>
AnchorPoint: "bot_acc" 341 -146 basechar 0
AnchorPoint: "dotbelow" 341 -146 basechar 0
AnchorPoint: "ogon_acc" 575 -146 basechar 0
AnchorPoint: "top_accu" 341 875 basechar 0
AnchorPoint: "dotabove" 341 875 basechar 0
LayerCount: 2
Fore
SplineSet
5 0 m 1
 259 368 l 1
 5 739 l 1
 168 739 l 1
 340 481 l 1
 517 739 l 1
 676 739 l 1
 420 368 l 1
 676 0 l 1
 517 0 l 1
 340 255 l 1
 168 0 l 1
 5 0 l 1
EndSplineSet
Validated: 1
AlternateSubs2: "'aalt' Access All Alternates lookup 0 subtable" x.sc
AlternateSubs2: "'aalt' Access All Alternates in Latin lookup 0 subtable" x.sc
Substitution2: "'c2sc' Capitals to Small Capitals in Latin lookup 13 subtable" x.sc
Position2: "'cpsp' Capital Spacing in Latin lookup 13 subtable" dx=7 dy=0 dh=14 dv=0
EndChar

StartChar: Y
Encoding: 89 89 69
Width: 620
VWidth: 0
GlyphClass: 2
Flags: W
TeX: 739 0
HStem: 0 21G<246 383> 719 20G<3 160.647 468.412 626>
VStem: 246 137<0 273>
AnchorPoint: "bot_acc" 315 -146 basechar 0
AnchorPoint: "dotbelow" 315 -146 basechar 0
AnchorPoint: "ogon_acc" 282 -146 basechar 0
AnchorPoint: "top_accu" 315 875 basechar 0
AnchorPoint: "dotabove" 315 875 basechar 0
LayerCount: 2
Fore
SplineSet
3 739 m 1
 151 739 l 1
 315 399 l 1
 478 739 l 1
 626 739 l 1
 383 273 l 1
 383 0 l 1
 246 0 l 1
 246 273 l 1
 3 739 l 1
EndSplineSet
Validated: 1
AlternateSubs2: "'aalt' Access All Alternates lookup 0 subtable" y.sc
AlternateSubs2: "'aalt' Access All Alternates in Latin lookup 0 subtable" y.sc
Substitution2: "'c2sc' Capitals to Small Capitals in Latin lookup 13 subtable" y.sc
Position2: "'cpsp' Capital Spacing in Latin lookup 13 subtable" dx=7 dy=0 dh=14 dv=0
EndChar

StartChar: Z
Encoding: 90 90 70
Width: 500
VWidth: 0
GlyphClass: 2
Flags: W
TeX: 739 0
HStem: 0 131<183 480> 608 131<33 298>
AnchorPoint: "bot_acc" 247 -146 basechar 0
AnchorPoint: "dotbelow" 247 -146 basechar 0
AnchorPoint: "ogon_acc" 379 -146 basechar 0
AnchorPoint: "top_accu" 247 875 basechar 0
AnchorPoint: "dotabove" 247 875 basechar 0
LayerCount: 2
Fore
SplineSet
18 0 m 1
 18 116 l 1
 298 608 l 1
 33 608 l 1
 33 739 l 1
 461 739 l 1
 461 616 l 1
 183 131 l 1
 480 131 l 1
 480 0 l 1
 18 0 l 1
EndSplineSet
Validated: 1
AlternateSubs2: "'aalt' Access All Alternates lookup 0 subtable" z.sc
AlternateSubs2: "'aalt' Access All Alternates in Latin lookup 0 subtable" z.sc
Substitution2: "'c2sc' Capitals to Small Capitals in Latin lookup 13 subtable" z.sc
Position2: "'cpsp' Capital Spacing in Latin lookup 13 subtable" dx=7 dy=0 dh=14 dv=0
EndChar

StartChar: asciicircum
Encoding: 94 94 71
Width: 600
VWidth: 0
Flags: W
TeX: 739 0
HStem: 719 20G<232.479 373.521>
LayerCount: 2
Fore
SplineSet
63 363 m 1
 242 739 l 1
 364 739 l 1
 543 363 l 1
 439 313 l 1
 303 589 l 1
 167 313 l 1
 63 363 l 1
EndSplineSet
Validated: 1
EndChar

StartChar: underscore
Encoding: 95 95 72
Width: 500
VWidth: 0
Flags: W
TeX: 0 -138
HStem: -138 90<0 500>
LayerCount: 2
Fore
SplineSet
0 -48 m 1
 500 -48 l 1
 500 -138 l 1
 0 -138 l 1
 0 -48 l 1
EndSplineSet
Validated: 1
EndChar

StartChar: a
Encoding: 97 97 73
Width: 660
VWidth: 0
GlyphClass: 2
Flags: W
TeX: 554 0
HStem: -13 122<241.816 413.326> 0 21G<493 615> 445 122<244.324 409.507> 534 20G<493 615>
VStem: 30 134<187.087 359.104> 493 122<0 72 194.196 353.948 480 554>
AnchorPoint: "bot_acc" 330 -146 basechar 0
AnchorPoint: "dotbelow" 330 -146 basechar 0
AnchorPoint: "ogon_acc" 514 -146 basechar 0
AnchorPoint: "top_accl" 330 700 basechar 0
AnchorPoint: "dotabove" 330 700 basechar 0
LayerCount: 2
Fore
SplineSet
30 275 m 0x8c
 30 444 148 567 312 567 c 0xac
 392 567 447 541 493 480 c 1
 493 554 l 1
 615 554 l 1
 615 0 l 1
 493 0 l 1x5c
 493 72 l 1
 440 12 387 -13 309 -13 c 0
 147 -13 30 108 30 275 c 0x8c
164 272 m 0
 164 175 231 109 328 109 c 0
 429 109 489 181 489 273 c 0
 489 374 421 445 326 445 c 0
 231 445 164 373 164 272 c 0
EndSplineSet
Validated: 1
AlternateSubs2: "'aalt' Access All Alternates lookup 0 subtable" a.sc
AlternateSubs2: "'aalt' Access All Alternates in Latin lookup 0 subtable" a.sc
Substitution2: "'smcp' Lowercase to Small Capitals in Latin lookup 2 subtable" a.sc
EndChar

StartChar: b
Encoding: 98 98 74
Width: 660
VWidth: 0
GlyphClass: 2
Flags: W
TeX: 739 0
HStem: -13 122<259.36 425.116> 0 21G<54 176> 452 122<257.735 423.569> 719 20G<54 187>
VStem: 54 133<503 739> 54 122<0 71 196.353 364.972> 504 134<190.136 365.22>
AnchorPoint: "bot_acc" 346 -146 basechar 0
AnchorPoint: "dotbelow" 346 -146 basechar 0
AnchorPoint: "ogon_acc" 346 -146 basechar 0
AnchorPoint: "top_accu" 121 885 basechar 0
AnchorPoint: "dotabove" 359 700 basechar 0
LayerCount: 2
Fore
SplineSet
54 0 m 1x76
 54 739 l 1
 187 739 l 1
 187 503 l 1
 238 554 287 574 359 574 c 0
 518 574 638 448 638 281 c 0
 638 114 524 -13 368 -13 c 0xba
 286 -13 233 10 176 71 c 1
 176 0 l 1
 54 0 l 1x76
179 281 m 0
 179 180 247 109 343 109 c 0
 438 109 504 179 504 280 c 0
 504 379 435 452 340 452 c 0
 247 452 179 381 179 281 c 0
EndSplineSet
Validated: 1
AlternateSubs2: "'aalt' Access All Alternates lookup 0 subtable" b.sc
AlternateSubs2: "'aalt' Access All Alternates in Latin lookup 0 subtable" b.sc
Substitution2: "'smcp' Lowercase to Small Capitals in Latin lookup 2 subtable" b.sc
EndChar

StartChar: c
Encoding: 99 99 75
Width: 640
VWidth: 0
GlyphClass: 2
Flags: W
TeX: 554 0
HStem: -13 122<244.136 401.377> 445 122<241.172 402.346>
VStem: 30 134<191.351 365.502>
AnchorPoint: "bot_acc" 322 -146 basechar 0
AnchorPoint: "dotbelow" 322 -146 basechar 0
AnchorPoint: "ogon_acc" 322 -146 basechar 0
AnchorPoint: "top_accl" 322 700 basechar 0
AnchorPoint: "dotabove" 322 700 basechar 0
LayerCount: 2
Fore
SplineSet
30 277 m 0
 30 440 158 567 322 567 c 0
 448 567 558 496 601 369 c 1
 451 369 l 1
 424 420 382 445 322 445 c 0
 230 445 164 375 164 278 c 0
 164 181 233 109 325 109 c 0
 380 109 418 131 451 182 c 1
 601 182 l 1
 555 58 455 -13 326 -13 c 0
 162 -13 30 116 30 277 c 0
EndSplineSet
Validated: 1
AlternateSubs2: "'aalt' Access All Alternates lookup 0 subtable" c.sc
AlternateSubs2: "'aalt' Access All Alternates in Latin lookup 0 subtable" c.sc
Substitution2: "'smcp' Lowercase to Small Capitals in Latin lookup 2 subtable" c.sc
EndChar

StartChar: d
Encoding: 100 100 76
Width: 660
VWidth: 0
GlyphClass: 2
Flags: W
TeX: 739 0
HStem: -13 122<250.25 406.986> 0 21G<491 613> 452 122<247.64 406.569> 719 20G<480 613>
VStem: 30 134<196.733 367.561> 480 133<505 739> 491 122<0 72 197.8 362.875>
AnchorPoint: "bot_acc" 322 -146 basechar 0
AnchorPoint: "dotbelow" 322 -146 basechar 0
AnchorPoint: "ogon_acc" 512 -146 basechar 0
AnchorPoint: "top_accu" 547 885 basechar 0
AnchorPoint: "dotabove" 307 700 basechar 0
AnchorPoint: "ccmped" 744 675 basechar 0
LayerCount: 2
Fore
SplineSet
30 278 m 0xba
 30 444 152 574 307 574 c 0
 377 574 441 548 480 505 c 1
 480 739 l 1
 613 739 l 1xbc
 613 0 l 1
 491 0 l 1x7a
 491 72 l 1
 438 12 383 -13 308 -13 c 0
 151 -13 30 114 30 278 c 0xba
164 284 m 0
 164 186 236 109 329 109 c 0
 419 109 490 184 490 280 c 0
 490 377 419 452 326 452 c 0
 235 452 164 378 164 284 c 0
EndSplineSet
Validated: 1
AlternateSubs2: "'aalt' Access All Alternates lookup 0 subtable" d.sc
AlternateSubs2: "'aalt' Access All Alternates in Latin lookup 0 subtable" d.sc
Substitution2: "'smcp' Lowercase to Small Capitals in Latin lookup 2 subtable" d.sc
EndChar

StartChar: e
Encoding: 101 101 77
Width: 640
VWidth: 0
GlyphClass: 2
Flags: W
TeX: 554 0
HStem: -13 122<239.682 409.933> 218 117<174 477> 445 122<238.393 412.229>
AnchorPoint: "bot_acc" 322 -146 basechar 0
AnchorPoint: "dotbelow" 322 -146 basechar 0
AnchorPoint: "ogon_acc" 322 -146 basechar 0
AnchorPoint: "top_accl" 322 700 basechar 0
AnchorPoint: "dotabove" 322 700 basechar 0
LayerCount: 2
Fore
SplineSet
30 275 m 0
 30 438 159 567 322 567 c 0
 487 567 608 441 608 269 c 0
 608 249 607 237 603 218 c 1
 174 218 l 1
 190 151 248 109 327 109 c 0
 382 109 415 124 449 164 c 1
 594 164 l 1
 557 50 442 -13 330 -13 c 0
 161 -13 30 113 30 275 c 0
170 335 m 1
 477 335 l 1
 460 406 406 445 324 445 c 0
 245 445 191 406 170 335 c 1
EndSplineSet
Validated: 1
AlternateSubs2: "'aalt' Access All Alternates lookup 0 subtable" e.sc
AlternateSubs2: "'aalt' Access All Alternates in Latin lookup 0 subtable" e.sc
Substitution2: "'smcp' Lowercase to Small Capitals in Latin lookup 2 subtable" e.sc
EndChar

StartChar: f
Encoding: 102 102 78
Width: 280
VWidth: 0
GlyphClass: 2
Flags: W
TeX: 739 0
HStem: 0 21G<58 191> 433 111<10 58 191 266> 611 128<202.016 274>
VStem: 58 133<0 433 544 599.973>
AnchorPoint: "bot_acc" 142 -146 basechar 0
AnchorPoint: "dotbelow" 142 -146 basechar 0
AnchorPoint: "ogon_acc" 90 -146 basechar 0
AnchorPoint: "top_accl" 142 885 basechar 0
AnchorPoint: "dotabove" 142 885 basechar 0
LayerCount: 2
Fore
SplineSet
10 433 m 1
 10 544 l 1
 58 544 l 1
 73 690 145 739 241 739 c 0
 250 739 258 739 274 737 c 1
 274 611 l 1
 261 611 l 2
 209 611 192 594 191 544 c 1
 266 544 l 1
 266 433 l 1
 191 433 l 1
 191 0 l 1
 58 0 l 1
 58 433 l 1
 10 433 l 1
EndSplineSet
Validated: 1
AlternateSubs2: "'aalt' Access All Alternates lookup 0 subtable" f.sc
AlternateSubs2: "'aalt' Access All Alternates in Latin lookup 0 subtable" f.sc
Substitution2: "'smcp' Lowercase to Small Capitals in Latin lookup 2 subtable" f.sc
EndChar

StartChar: g
Encoding: 103 103 79
Width: 660
VWidth: 0
GlyphClass: 2
Flags: W
TeX: 554 -221
HStem: -221 117<234.384 414.258> -13 122<236.665 402.417> 445 122<238.61 400.056> 534 20G<484 611>
VStem: 30 134<184.075 367.523> 484 127<-21.984 73 195.765 351.802 484 554>
AnchorPoint: "bot_acc" 303 -367 basechar 0
AnchorPoint: "dotbelow" 303 -367 basechar 0
AnchorPoint: "ogon_acc" 303 -354 basechar 0
AnchorPoint: "top_accl" 303 700 basechar 0
AnchorPoint: "dotabove" 303 700 basechar 0
AnchorPoint: "ccmped" 303 700 basechar 0
LayerCount: 2
Fore
SplineSet
30 281 m 0xdc
 30 445 146 567 303 567 c 0xec
 383 567 443 540 484 484 c 1
 484 554 l 1
 611 554 l 1
 611 105 l 2
 611 -133 496 -221 324 -221 c 0
 188 -221 84 -156 39 -45 c 1
 190 -45 l 1
 229 -88 267 -104 329 -104 c 0
 428 -104 479 -46 484 73 c 1
 432 12 380 -13 302 -13 c 0
 144 -13 30 110 30 281 c 0xdc
164 275 m 0
 164 174 225 109 320 109 c 0
 415 109 478 175 478 275 c 0
 478 376 413 445 318 445 c 0
 225 445 164 377 164 275 c 0
EndSplineSet
Validated: 1
AlternateSubs2: "'aalt' Access All Alternates lookup 0 subtable" g.sc
AlternateSubs2: "'aalt' Access All Alternates in Latin lookup 0 subtable" g.sc
Substitution2: "'smcp' Lowercase to Small Capitals in Latin lookup 2 subtable" g.sc
EndChar

StartChar: h
Encoding: 104 104 80
Width: 600
VWidth: 0
GlyphClass: 2
Flags: W
TeX: 739 0
HStem: 0 21G<54 187 412 545> 445 123<231.705 371.143> 719 20G<54 187>
VStem: 54 133<0 395.545 516 739> 412 133<0 397.367>
AnchorPoint: "bot_acc" 300 -146 basechar 0
AnchorPoint: "dotbelow" 300 -146 basechar 0
AnchorPoint: "ogon_acc" 444 -146 basechar 0
AnchorPoint: "top_accu" 121 885 basechar 0
AnchorPoint: "dotabove" 328 700 basechar 0
LayerCount: 2
Fore
SplineSet
54 0 m 1
 54 739 l 1
 187 739 l 1
 187 516 l 1
 227 552 271 568 328 568 c 0
 461 568 545 495 545 313 c 2
 545 0 l 1
 412 0 l 1
 412 283 l 2
 412 399 382 445 304 445 c 0
 228 445 187 403 187 281 c 2
 187 0 l 1
 54 0 l 1
EndSplineSet
Validated: 1
AlternateSubs2: "'aalt' Access All Alternates lookup 0 subtable" h.sc
AlternateSubs2: "'aalt' Access All Alternates in Latin lookup 0 subtable" h.sc
Substitution2: "'smcp' Lowercase to Small Capitals in Latin lookup 2 subtable" h.sc
EndChar

StartChar: dotlessj
Encoding: 274 567 81
Width: 260
VWidth: 0
GlyphClass: 2
Flags: W
TeX: 554 -185
HStem: -185 21G<17 73.5> 534 20G<72 205>
VStem: 72 133<-44.4148 554>
AnchorPoint: "bot_acc" 139 -331 basechar 0
AnchorPoint: "dotbelow" 139 -331 basechar 0
AnchorPoint: "ogon_acc" 38 -318 basechar 0
AnchorPoint: "top_accl" 139 700 basechar 0
AnchorPoint: "dotabove" 139 700 basechar 0
LayerCount: 2
Fore
SplineSet
17 -56 m 1
 67 -47 72 -38 72 40 c 2
 72 554 l 1
 205 554 l 1
 205 37 l 2
 205 -112 130 -185 17 -185 c 1
 17 -56 l 1
EndSplineSet
Validated: 1
AlternateSubs2: "'aalt' Access All Alternates lookup 0 subtable" dotlessj.sc
AlternateSubs2: "'aalt' Access All Alternates in Latin lookup 0 subtable" dotlessj.sc
Substitution2: "'smcp' Lowercase to Small Capitals in Latin lookup 2 subtable" dotlessj.sc
EndChar

StartChar: j
Encoding: 106 106 82
Width: 260
VWidth: 0
GlyphClass: 2
Flags: W
TeX: 767 -185
HStem: -185 21G<17 73.5> 534 20G<72 205> 634 133<73 206>
VStem: 72 133<-44.4148 554 634 767>
AnchorPoint: "bot_acc" 139 -331 basechar 0
AnchorPoint: "dotbelow" 139 -331 basechar 0
AnchorPoint: "ogon_acc" 38 -318 basechar 0
LayerCount: 2
Fore
SplineSet
17 -56 m 1
 67 -47 72 -38 72 40 c 2
 72 554 l 1
 205 554 l 1
 205 37 l 2
 205 -112 130 -185 17 -185 c 1
 17 -56 l 1
73 634 m 1
 73 767 l 1
 206 767 l 1
 206 634 l 1
 73 634 l 1
EndSplineSet
Validated: 1
AlternateSubs2: "'aalt' Access All Alternates lookup 0 subtable" dotlessj j.sc
AlternateSubs2: "'aalt' Access All Alternates in Latin lookup 0 subtable" dotlessj j.sc
Substitution2: "ccmp_sub_acc subtable" dotlessj
Substitution2: "'smcp' Lowercase to Small Capitals in Latin lookup 2 subtable" j.sc
EndChar

StartChar: k
Encoding: 107 107 83
Width: 580
VWidth: 0
GlyphClass: 2
Flags: W
TeX: 739 0
HStem: 0 21G<54 187 361.405 555> 534 20G<350.437 523> 719 20G<54 187>
VStem: 54 133<0 259 293 739>
AnchorPoint: "bot_acc" 305 -146 basechar 0
AnchorPoint: "dotbelow" 305 -146 basechar 0
AnchorPoint: "ogon_acc" 454 -146 basechar 0
AnchorPoint: "top_accu" 121 885 basechar 0
AnchorPoint: "dotabove" 347 700 basechar 0
LayerCount: 2
Fore
SplineSet
54 0 m 1
 54 739 l 1
 187 739 l 1
 187 293 l 1
 364 554 l 1
 523 554 l 1
 325 283 l 1
 555 0 l 1
 376 0 l 1
 187 259 l 1
 187 0 l 1
 54 0 l 1
EndSplineSet
Validated: 1
AlternateSubs2: "'aalt' Access All Alternates lookup 0 subtable" k.sc
AlternateSubs2: "'aalt' Access All Alternates in Latin lookup 0 subtable" k.sc
Substitution2: "'smcp' Lowercase to Small Capitals in Latin lookup 2 subtable" k.sc
EndChar

StartChar: l
Encoding: 108 108 84
Width: 240
VWidth: 0
GlyphClass: 2
Flags: W
TeX: 739 0
HStem: 0 21G<54 187> 719 20G<54 187>
VStem: 54 133<0 739>
AnchorPoint: "bot_acc" 121 -146 basechar 0
AnchorPoint: "dotbelow" 121 -146 basechar 0
AnchorPoint: "ogon_acc" 86 -146 basechar 0
AnchorPoint: "top_accu" 121 885 basechar 0
AnchorPoint: "dotabove" 121 885 basechar 0
AnchorPoint: "ccmped" 318 675 basechar 0
LayerCount: 2
Fore
SplineSet
54 0 m 1
 54 739 l 1
 187 739 l 1
 187 0 l 1
 54 0 l 1
EndSplineSet
Validated: 1
AlternateSubs2: "'aalt' Access All Alternates lookup 0 subtable" l.sc
AlternateSubs2: "'aalt' Access All Alternates in Latin lookup 0 subtable" l.sc
Substitution2: "'smcp' Lowercase to Small Capitals in Latin lookup 2 subtable" l.sc
EndChar

StartChar: m
Encoding: 109 109 85
Width: 940
VWidth: 0
GlyphClass: 2
Flags: W
TeX: 554 0
HStem: 0 21G<54 187 403 536 752 885> 445 122<225.282 366.112 578.614 714.296> 534 20G<54 176>
VStem: 54 133<0 402.939> 54 122<502 554> 403 133<0 396.514> 752 133<0 404.437>
AnchorPoint: "bot_acc" 470 -146 basechar 0
AnchorPoint: "dotbelow" 470 -146 basechar 0
AnchorPoint: "ogon_acc" 784 -146 basechar 0
AnchorPoint: "top_accl" 470 700 basechar 0
AnchorPoint: "dotabove" 470 700 basechar 0
LayerCount: 2
Fore
SplineSet
54 0 m 1xd6
 54 554 l 1
 176 554 l 1
 176 502 l 1xae
 215 549 255 567 320 567 c 0
 396 567 445 541 483 481 c 1
 528 541 583 567 661 567 c 0
 807 567 885 486 885 320 c 2
 885 0 l 1
 752 0 l 1
 752 304 l 2
 752 415 710 445 648 445 c 0
 574 445 536 405 536 273 c 2
 536 0 l 1
 403 0 l 1
 403 304 l 2
 403 413 365 445 295 445 c 0
 218 445 187 404 187 273 c 2
 187 0 l 1
 54 0 l 1xd6
EndSplineSet
Validated: 1
AlternateSubs2: "'aalt' Access All Alternates lookup 0 subtable" m.sc
AlternateSubs2: "'aalt' Access All Alternates in Latin lookup 0 subtable" m.sc
Substitution2: "'smcp' Lowercase to Small Capitals in Latin lookup 2 subtable" m.sc
EndChar

StartChar: n
Encoding: 110 110 86
Width: 600
VWidth: 0
GlyphClass: 2
Flags: W
TeX: 554 0
HStem: 0 21G<54 187 413 546> 445 122<237.444 375.036> 534 20G<54 177>
VStem: 54 133<0 393.992> 54 123<501 554> 413 133<0 401.504>
AnchorPoint: "bot_acc" 300 -146 basechar 0
AnchorPoint: "dotbelow" 300 -146 basechar 0
AnchorPoint: "ogon_acc" 445 -146 basechar 0
AnchorPoint: "top_accl" 300 700 basechar 0
AnchorPoint: "dotabove" 300 700 basechar 0
LayerCount: 2
Fore
SplineSet
54 0 m 1xd4
 54 554 l 1
 177 554 l 1
 177 501 l 1xac
 226 548 270 567 333 567 c 0
 410 567 470 539 506 487 c 0
 536 444 546 396 546 297 c 2
 546 0 l 1
 413 0 l 1
 413 271 l 2
 413 419 373 445 307 445 c 0
 265 445 230 427 209 394 c 0
 192 367 187 335 187 261 c 2
 187 0 l 1
 54 0 l 1xd4
EndSplineSet
Validated: 1
AlternateSubs2: "'aalt' Access All Alternates lookup 0 subtable" n.sc
AlternateSubs2: "'aalt' Access All Alternates in Latin lookup 0 subtable" n.sc
Substitution2: "'smcp' Lowercase to Small Capitals in Latin lookup 2 subtable" n.sc
EndChar

StartChar: o
Encoding: 111 111 87
Width: 640
VWidth: 0
GlyphClass: 2
Flags: W
TeX: 554 0
HStem: -13 122<249.214 402.592> 445 122<249.194 399.465>
VStem: 30 134<195.777 358.653> 485 134<194.338 360.839>
AnchorPoint: "bot_acc" 323 -146 basechar 0
AnchorPoint: "dotbelow" 323 -146 basechar 0
AnchorPoint: "ogon_acc" 323 -146 basechar 0
AnchorPoint: "top_accl" 323 700 basechar 0
AnchorPoint: "dotabove" 323 700 basechar 0
LayerCount: 2
Fore
SplineSet
30 277 m 0
 30 436 162 567 323 567 c 0
 490 567 619 438 619 273 c 0
 619 117 485 -13 324 -13 c 0
 162 -13 30 117 30 277 c 0
164 279 m 0
 164 184 235 109 325 109 c 0
 413 109 485 184 485 277 c 0
 485 369 413 445 324 445 c 0
 237 445 164 370 164 279 c 0
EndSplineSet
Validated: 1
AlternateSubs2: "'aalt' Access All Alternates lookup 0 subtable" o.sc
AlternateSubs2: "'aalt' Access All Alternates in Latin lookup 0 subtable" o.sc
Substitution2: "'smcp' Lowercase to Small Capitals in Latin lookup 2 subtable" o.sc
EndChar

StartChar: p
Encoding: 112 112 88
Width: 660
VWidth: 0
GlyphClass: 2
Flags: W
TeX: 554 -185
HStem: -185 21G<54 187> -13 122<259.959 421.732> 445 122<260.026 418.456> 534 20G<54 176>
VStem: 54 133<-185 52> 54 122<199.449 355.246 489 554> 500 134<190.878 360.978>
AnchorPoint: "bot_acc" 344 -331 basechar 0
AnchorPoint: "dotbelow" 357 -146 basechar 0
AnchorPoint: "ogon_acc" 344 -146 basechar 0
AnchorPoint: "top_accl" 344 700 basechar 0
AnchorPoint: "dotabove" 344 700 basechar 0
LayerCount: 2
Fore
SplineSet
54 -185 m 1xea
 54 554 l 1
 176 554 l 1
 176 489 l 1xd6
 219 539 283 567 358 567 c 0
 518 567 634 446 634 279 c 0
 634 111 517 -13 357 -13 c 0
 289 -13 237 7 187 52 c 1
 187 -185 l 1
 54 -185 l 1xea
179 278 m 0
 179 181 249 109 343 109 c 0
 431 109 500 182 500 276 c 0
 500 372 431 445 341 445 c 0xe2
 249 445 179 373 179 278 c 0
EndSplineSet
Validated: 1
AlternateSubs2: "'aalt' Access All Alternates lookup 0 subtable" p.sc
AlternateSubs2: "'aalt' Access All Alternates in Latin lookup 0 subtable" p.sc
Substitution2: "'smcp' Lowercase to Small Capitals in Latin lookup 2 subtable" p.sc
EndChar

StartChar: q
Encoding: 113 113 89
Width: 660
VWidth: 0
GlyphClass: 2
Flags: W
TeX: 554 -185
HStem: -185 21G<478 611> -13 122<245.226 408.114> 445 122<245.276 407.763> 534 20G<489 611>
VStem: 30 134<190.991 359.963> 478 133<-185 53> 489 122<194.403 357.411 483 554>
AnchorPoint: "bot_acc" 321 -331 basechar 0
AnchorPoint: "dotbelow" 311 -146 basechar 0
AnchorPoint: "ogon_acc" 510 -331 basechar 0
AnchorPoint: "top_accl" 321 700 basechar 0
AnchorPoint: "dotabove" 321 700 basechar 0
LayerCount: 2
Fore
SplineSet
30 279 m 0xdc
 30 439 154 567 309 567 c 0xec
 390 567 446 541 489 483 c 1
 489 554 l 1
 611 554 l 1xda
 611 -185 l 1
 478 -185 l 1
 478 53 l 1
 434 9 379 -13 311 -13 c 0
 152 -13 30 114 30 279 c 0xdc
164 276 m 0
 164 180 233 109 327 109 c 0
 418 109 486 180 486 275 c 0
 486 372 418 445 328 445 c 0
 234 445 164 373 164 276 c 0
EndSplineSet
Validated: 1
AlternateSubs2: "'aalt' Access All Alternates lookup 0 subtable" q.sc
AlternateSubs2: "'aalt' Access All Alternates in Latin lookup 0 subtable" q.sc
Substitution2: "'smcp' Lowercase to Small Capitals in Latin lookup 2 subtable" q.sc
EndChar

StartChar: r
Encoding: 114 114 90
Width: 320
VWidth: 0
GlyphClass: 2
Flags: W
TeX: 554 0
HStem: 0 21G<54 187> 439 128<231.252 306> 534 20G<54 176>
VStem: 54 133<0 394.035> 54 122<500 554>
AnchorPoint: "bot_acc" 121 -146 basechar 0
AnchorPoint: "dotbelow" 121 -146 basechar 0
AnchorPoint: "ogon_acc" 121 -146 basechar 0
AnchorPoint: "top_accl" 176 700 basechar 0
AnchorPoint: "dotabove" 176 700 basechar 0
LayerCount: 2
Fore
SplineSet
54 0 m 1xd0
 54 554 l 1
 176 554 l 1
 176 500 l 1xa8
 211 551 239 567 296 567 c 2
 306 567 l 1
 306 439 l 1
 226 437 187 394 187 308 c 2
 187 0 l 1
 54 0 l 1xd0
EndSplineSet
Validated: 1
AlternateSubs2: "'aalt' Access All Alternates lookup 0 subtable" r.sc
AlternateSubs2: "'aalt' Access All Alternates in Latin lookup 0 subtable" r.sc
Substitution2: "'smcp' Lowercase to Small Capitals in Latin lookup 2 subtable" r.sc
EndChar

StartChar: s
Encoding: 115 115 91
Width: 440
VWidth: 0
GlyphClass: 2
Flags: W
TeX: 554 0
HStem: -13 122<176.193 273.683> 445 122<180.422 266.268>
VStem: 39 133<364.714 436.652> 287 133<122.319 203.233>
AnchorPoint: "bot_acc" 223 -146 basechar 0
AnchorPoint: "dotbelow" 223 -146 basechar 0
AnchorPoint: "ogon_acc" 182 -146 basechar 0
AnchorPoint: "top_accl" 223 700 basechar 0
AnchorPoint: "dotabove" 223 700 basechar 0
LayerCount: 2
Fore
SplineSet
19 176 m 1
 153 176 l 1
 166 129 188 109 227 109 c 0
 261 109 287 132 287 163 c 0
 287 195 282 204 193 234 c 0
 83 271 39 317 39 398 c 0
 39 493 120 567 223 567 c 0
 317 567 400 505 405 401 c 1
 275 401 l 1
 269 430 251 445 223 445 c 0
 194 445 172 425 172 398 c 0
 172 369 175 367 266 338 c 0
 382 302 420 258 420 176 c 0
 420 70 333 -13 222 -13 c 0
 112 -13 33 47 19 176 c 1
EndSplineSet
Validated: 1
AlternateSubs2: "'aalt' Access All Alternates lookup 0 subtable" s.sc
AlternateSubs2: "'aalt' Access All Alternates in Latin lookup 0 subtable" s.sc
Substitution2: "'smcp' Lowercase to Small Capitals in Latin lookup 2 subtable" s.sc
EndChar

StartChar: t
Encoding: 116 116 92
Width: 300
VWidth: 0
GlyphClass: 2
Flags: W
TeX: 739 0
HStem: 0 21G<74 207> 433 121<9 74 207 287> 719 20G<74 207>
VStem: 74 133<0 433 554 739>
AnchorPoint: "bot_acc" 148 -146 basechar 0
AnchorPoint: "dotbelow" 148 -146 basechar 0
AnchorPoint: "ogon_acc" 106 -146 basechar 0
AnchorPoint: "top_accl" 141 885 basechar 0
AnchorPoint: "dotabove" 141 885 basechar 0
AnchorPoint: "ccmped" 338 716 basechar 0
LayerCount: 2
Fore
SplineSet
9 433 m 1
 9 554 l 1
 74 554 l 1
 74 739 l 1
 207 739 l 1
 207 554 l 1
 287 554 l 1
 287 433 l 1
 207 433 l 1
 207 0 l 1
 74 0 l 1
 74 433 l 1
 9 433 l 1
EndSplineSet
Validated: 1
AlternateSubs2: "'aalt' Access All Alternates lookup 0 subtable" t.sc
AlternateSubs2: "'aalt' Access All Alternates in Latin lookup 0 subtable" t.sc
Substitution2: "'smcp' Lowercase to Small Capitals in Latin lookup 2 subtable" t.sc
EndChar

StartChar: u
Encoding: 117 117 93
Width: 600
VWidth: 0
GlyphClass: 2
Flags: W
TeX: 554 0
HStem: -13 122<224.518 365.187> 0 21G<424 547> 534 20G<54 187 414 547>
VStem: 54 133<154.043 554> 414 133<158.51 554> 424 123<0 53>
AnchorPoint: "bot_acc" 301 -146 basechar 0
AnchorPoint: "dotbelow" 301 -146 basechar 0
AnchorPoint: "ogon_acc" 446 -146 basechar 0
AnchorPoint: "top_accl" 301 700 basechar 0
AnchorPoint: "dotabove" 301 700 basechar 0
LayerCount: 2
Fore
SplineSet
54 257 m 2xb4
 54 554 l 1
 187 554 l 1
 187 283 l 2
 187 136 228 109 292 109 c 0
 337 109 373 128 393 160 c 0
 408 185 414 219 414 293 c 2
 414 554 l 1
 547 554 l 1xb8
 547 0 l 1
 424 0 l 1x74
 424 53 l 1
 374 4 332 -13 265 -13 c 0
 136 -13 54 62 54 257 c 2xb4
EndSplineSet
Validated: 1
AlternateSubs2: "'aalt' Access All Alternates lookup 0 subtable" u.sc
AlternateSubs2: "'aalt' Access All Alternates in Latin lookup 0 subtable" u.sc
Substitution2: "'smcp' Lowercase to Small Capitals in Latin lookup 2 subtable" u.sc
EndChar

StartChar: v
Encoding: 118 118 94
Width: 560
VWidth: 0
GlyphClass: 2
Flags: W
TeX: 554 0
HStem: 0 21G<215.949 338.051> 534 20G<1 155.975 396.134 553>
AnchorPoint: "bot_acc" 277 -146 basechar 0
AnchorPoint: "dotbelow" 277 -146 basechar 0
AnchorPoint: "ogon_acc" 229 -146 basechar 0
AnchorPoint: "top_accl" 277 700 basechar 0
AnchorPoint: "dotabove" 277 700 basechar 0
LayerCount: 2
Fore
SplineSet
1 554 m 1
 149 554 l 1
 277 187 l 1
 403 554 l 1
 553 554 l 1
 330 0 l 1
 224 0 l 1
 1 554 l 1
EndSplineSet
Validated: 1
AlternateSubs2: "'aalt' Access All Alternates lookup 0 subtable" v.sc
AlternateSubs2: "'aalt' Access All Alternates in Latin lookup 0 subtable" v.sc
Substitution2: "'smcp' Lowercase to Small Capitals in Latin lookup 2 subtable" v.sc
EndChar

StartChar: w
Encoding: 119 119 95
Width: 800
VWidth: 0
GlyphClass: 2
Flags: W
TeX: 554 0
HStem: 0 21G<200.852 295.961 496.15 592.22> 534 20G<10 158.858 339.497 456.385 637.024 785>
AnchorPoint: "bot_acc" 398 -146 basechar 0
AnchorPoint: "dotbelow" 398 -146 basechar 0
AnchorPoint: "ogon_acc" 484 -146 basechar 0
AnchorPoint: "top_accl" 398 700 basechar 0
AnchorPoint: "dotabove" 398 700 basechar 0
LayerCount: 2
Fore
SplineSet
10 554 m 1
 153 554 l 1
 252 216 l 1
 345 554 l 1
 451 554 l 1
 542 216 l 1
 643 554 l 1
 785 554 l 1
 585 0 l 1
 502 0 l 1
 397 359 l 1
 290 0 l 1
 208 0 l 1
 10 554 l 1
EndSplineSet
Validated: 1
AlternateSubs2: "'aalt' Access All Alternates lookup 0 subtable" w.sc
AlternateSubs2: "'aalt' Access All Alternates in Latin lookup 0 subtable" w.sc
Substitution2: "'smcp' Lowercase to Small Capitals in Latin lookup 2 subtable" w.sc
EndChar

StartChar: x
Encoding: 120 120 96
Width: 560
VWidth: 0
GlyphClass: 2
Flags: W
TeX: 554 0
HStem: 0 21G<1 173.211 380.789 553> 534 20G<27 188.976 363.263 525>
AnchorPoint: "bot_acc" 277 -146 basechar 0
AnchorPoint: "dotbelow" 277 -146 basechar 0
AnchorPoint: "ogon_acc" 452 -146 basechar 0
AnchorPoint: "top_accl" 277 700 basechar 0
AnchorPoint: "dotabove" 277 700 basechar 0
LayerCount: 2
Fore
SplineSet
1 0 m 1
 197 286 l 1
 27 554 l 1
 177 554 l 1
 277 387 l 1
 375 554 l 1
 525 554 l 1
 356 286 l 1
 553 0 l 1
 393 0 l 1
 277 190 l 1
 161 0 l 1
 1 0 l 1
EndSplineSet
Validated: 1
AlternateSubs2: "'aalt' Access All Alternates lookup 0 subtable" x.sc
AlternateSubs2: "'aalt' Access All Alternates in Latin lookup 0 subtable" x.sc
Substitution2: "'smcp' Lowercase to Small Capitals in Latin lookup 2 subtable" x.sc
EndChar

StartChar: y
Encoding: 121 121 97
Width: 580
VWidth: 0
GlyphClass: 2
Flags: W
TeX: 554 -185
HStem: -185 21G<105 256.66> 534 20G<6 164.852 407.535 568>
AnchorPoint: "bot_acc" 287 -331 basechar 0
AnchorPoint: "dotbelow" 440 -146 basechar 0
AnchorPoint: "ogon_acc" 147 -331 basechar 0
AnchorPoint: "top_accl" 287 700 basechar 0
AnchorPoint: "dotabove" 287 700 basechar 0
LayerCount: 2
Fore
SplineSet
6 554 m 1
 158 554 l 1
 281 195 l 1
 415 554 l 1
 568 554 l 1
 248 -185 l 1
 105 -185 l 1
 209 52 l 1
 6 554 l 1
EndSplineSet
Validated: 1
AlternateSubs2: "'aalt' Access All Alternates lookup 0 subtable" y.sc
AlternateSubs2: "'aalt' Access All Alternates in Latin lookup 0 subtable" y.sc
Substitution2: "'smcp' Lowercase to Small Capitals in Latin lookup 2 subtable" y.sc
EndChar

StartChar: z
Encoding: 122 122 98
Width: 460
VWidth: 0
GlyphClass: 2
Flags: W
TeX: 554 0
HStem: 0 119<179 442> 435 119<48 264>
AnchorPoint: "bot_acc" 236 -146 basechar 0
AnchorPoint: "dotbelow" 236 -146 basechar 0
AnchorPoint: "ogon_acc" 341 -146 basechar 0
AnchorPoint: "top_accl" 236 700 basechar 0
AnchorPoint: "dotabove" 236 700 basechar 0
LayerCount: 2
Fore
SplineSet
20 0 m 1
 20 119 l 1
 264 435 l 1
 48 435 l 1
 48 554 l 1
 423 554 l 1
 423 435 l 1
 179 119 l 1
 442 119 l 1
 442 0 l 1
 20 0 l 1
EndSplineSet
Validated: 1
AlternateSubs2: "'aalt' Access All Alternates lookup 0 subtable" z.sc
AlternateSubs2: "'aalt' Access All Alternates in Latin lookup 0 subtable" z.sc
Substitution2: "'smcp' Lowercase to Small Capitals in Latin lookup 2 subtable" z.sc
EndChar

StartChar: asciitilde
Encoding: 126 126 99
Width: 600
VWidth: 0
Flags: W
TeX: 421 0
HStem: 230 117<343.492 453.233> 295 117<154.744 271.591>
LayerCount: 2
Fore
SplineSet
51 289 m 1x40
 104 375 133 412 199 412 c 0x40
 222 412 252 406 276 396 c 2
 343 369 l 2
 397 347 397 347 414 347 c 0
 437 347 465 374 491 421 c 1
 555 347 l 1
 503 261 464 230 410 230 c 0x80
 390 230 355 239 319 254 c 2
 265 276 l 2
 230 290 216 295 201 295 c 0
 183 295 168 288 154 273 c 0
 148 267 146 267 114 214 c 1
 51 289 l 1x40
EndSplineSet
Validated: 1
EndChar

StartChar: Euro
Encoding: 128 8364 100
Width: 560
VWidth: 0
Flags: W
TeX: 739 0
HStem: -11 116<293.221 477.475> 260 88<-8 61 200 433> 393 88<-9 62 202 484> 639 111<286.041 482.497>
VStem: 61 134<348 393>
LayerCount: 2
Fore
SplineSet
-33 393 m 1
 -9 481 l 1
 70 481 l 1
 115 674 214 750 376 750 c 0
 458 750 512 734 595 684 c 1
 556 581 l 1
 487 622 431 639 373 639 c 0
 282 639 233 593 202 481 c 1
 517 481 l 1
 484 393 l 1
 195 393 l 1
 195 348 l 1
 467 348 l 1
 433 260 l 1
 200 260 l 1
 224 165 286 105 379 105 c 0
 415 105 452 115 525 145 c 1
 525 22 l 1
 466 -2 424 -11 365 -11 c 0
 308 -11 247 5 200 35 c 0
 131 77 96 138 69 260 c 1
 -32 260 l 1
 -8 348 l 1
 61 348 l 1
 61 367 l 2
 61 371 61 382 62 393 c 1
 -33 393 l 1
EndSplineSet
Validated: 1
EndChar

StartChar: quotesinglbase
Encoding: 275 8218 101
Width: 280
VWidth: 0
Flags: W
TeX: 128 -140
HStem: -140 67<70 114.952> 0 128<70 129>
VStem: 70 133<0 128> 129 74<-60.2031 0>
LayerCount: 2
Fore
SplineSet
70 0 m 1xe0
 70 128 l 1
 203 128 l 1xe0
 203 -7 l 2xd0
 203 -84 158 -140 70 -140 c 1
 70 -73 l 1xe0
 112 -65 129 -49 129 -17 c 0xd0
 129 -13 129 -6 128 0 c 1
 70 0 l 1xe0
EndSplineSet
Validated: 1
EndChar

StartChar: florin
Encoding: 276 402 102
Width: 560
VWidth: 0
Flags: W
TeX: 823 -149
HStem: -149 119<1.4269 107.203> 470 115<143 218 364 437> 703 120<403.96 474>
LayerCount: 2
Fore
SplineSet
-17 -142 m 1
 3 -26 l 1
 18 -29 25 -30 36 -30 c 0
 107 -30 134 -8 158 128 c 2
 218 470 l 1
 124 470 l 1
 143 585 l 1
 237 585 l 1
 242 611 l 2
 259 689 268 711 297 747 c 0
 337 796 397 823 465 823 c 0
 477 823 483 822 494 820 c 1
 474 703 l 1
 465 703 l 2
 403 703 381 670 364 585 c 1
 456 585 l 1
 437 470 l 1
 344 470 l 1
 282 106 l 2
 262 -8 245 -50 207 -87 c 0
 163 -129 110 -149 42 -149 c 0
 19 -149 5 -147 -17 -142 c 1
EndSplineSet
Validated: 1
EndChar

StartChar: quotedblbase
Encoding: 132 8222 103
Width: 480
VWidth: 0
GlyphClass: 3
Flags: W
TeX: 128 -140
HStem: -140 67<70 114.952 277 324.784> 0 128<70 129 277 336>
VStem: 70 133<0 128> 129 74<-60.2031 0> 277 133<0 128> 336 74<-60.2031 0>
LayerCount: 2
Fore
SplineSet
70 0 m 1xe0
 70 128 l 1
 203 128 l 1xe0
 203 -7 l 2xd0
 203 -84 158 -140 70 -140 c 1
 70 -73 l 1xe0
 112 -65 129 -49 129 -17 c 0xd0
 129 -13 129 -6 128 0 c 1
 70 0 l 1xe0
277 0 m 1xc8
 277 128 l 1
 410 128 l 1xc8
 410 -7 l 2xc4
 410 -84 364 -140 277 -140 c 1
 277 -73 l 1xc8
 319 -65 336 -49 336 -17 c 0xc4
 336 -13 336 -6 335 0 c 1
 277 0 l 1xc8
EndSplineSet
Validated: 1
Ligature2: "'dlig' Discretionary Ligatures in Latin lookup 12 subtable" comma comma
EndChar

StartChar: dagger
Encoding: 134 8224 104
Width: 560
VWidth: 0
Flags: W
TeX: 739 0
HStem: 436 118<48 211 344 505> 719 20G<211 344>
VStem: 211 133<-128 436 554 739>
LayerCount: 2
Fore
SplineSet
48 436 m 1
 48 554 l 1
 211 554 l 1
 211 739 l 1
 344 739 l 1
 344 554 l 1
 505 554 l 1
 505 436 l 1
 344 436 l 1
 344 -128 l 1
 211 -128 l 1
 211 436 l 1
 48 436 l 1
EndSplineSet
Validated: 1
EndChar

StartChar: daggerdbl
Encoding: 135 8225 105
Width: 560
VWidth: 0
Flags: W
TeX: 739 -250
HStem: 260 118<48 210 343 505> 473 118<48 210 343 505> 719 20G<210 343>
VStem: 210 133<-128 260 378 473 591 739>
LayerCount: 2
Fore
SplineSet
48 260 m 1
 48 378 l 1
 210 378 l 1
 210 473 l 1
 48 473 l 1
 48 591 l 1
 210 591 l 1
 210 739 l 1
 343 739 l 1
 343 591 l 1
 505 591 l 1
 505 473 l 1
 343 473 l 1
 343 378 l 1
 505 378 l 1
 505 260 l 1
 343 260 l 1
 343 -128 l 1
 210 -128 l 1
 210 260 l 1
 48 260 l 1
EndSplineSet
Validated: 1
EndChar

StartChar: perthousand
Encoding: 137 8240 106
Width: 1280
VWidth: 0
Flags: W
TeX: 739 0
HStem: -13 107<603.468 704.142 1016.47 1117.14> 0 21G<223 333.281> 242 106<603.575 704.249 1016.58 1117.25> 391 107<151.468 252.142> 646 106<151.575 252.249> 719 20G<519.746 631>
VStem: 21 108<520.747 622.646> 276 107<521.858 621.749> 473 108<116.747 218.646> 728 107<117.858 217.749> 886 108<116.747 218.646> 1141 107<117.858 217.749>
LayerCount: 2
Fore
SplineSet
21 571 m 0x3bf0
 21 672 101 752 203 752 c 0
 301 752 383 670 383 572 c 0
 383 472 302 391 202 391 c 0
 102 391 21 472 21 571 c 0x3bf0
129 572 m 0
 129 531 162 498 202 498 c 0
 242 498 276 532 276 572 c 0
 276 612 242 646 202 646 c 0
 162 646 129 613 129 572 c 0
223 0 m 1x77f0
 528 739 l 1
 631 739 l 1
 325 0 l 1
 223 0 l 1x77f0
473 167 m 0
 473 268 553 348 655 348 c 0
 753 348 835 266 835 168 c 0
 835 68 754 -13 654 -13 c 0xb3f0
 554 -13 473 68 473 167 c 0
581 168 m 0
 581 127 614 94 654 94 c 0
 694 94 728 128 728 168 c 0
 728 208 694 242 654 242 c 0
 614 242 581 209 581 168 c 0
886 167 m 0
 886 268 966 348 1068 348 c 0
 1166 348 1248 266 1248 168 c 0
 1248 68 1167 -13 1067 -13 c 0
 967 -13 886 68 886 167 c 0
994 168 m 0
 994 127 1027 94 1067 94 c 0
 1107 94 1141 128 1141 168 c 0
 1141 208 1107 242 1067 242 c 0
 1027 242 994 209 994 168 c 0
EndSplineSet
Validated: 1
EndChar

StartChar: guilsinglleft
Encoding: 277 8249 107
Width: 240
VWidth: 0
Flags: W
TeX: 469 0
VStem: 36 139
LayerCount: 2
Fore
SplineSet
36 239 m 1
 36 339 l 1
 175 469 l 1
 175 346 l 1
 108 289 l 1
 175 231 l 1
 175 108 l 1
 36 239 l 1
EndSplineSet
Validated: 1
EndChar

StartChar: OE
Encoding: 141 338 108
Width: 1060
VWidth: 0
Flags: W
TeX: 739 0
HStem: -13 132<318.367 516.405> 0 131<786 1004> 303 131<786 993> 608 131<786 1004> 620 132<317.577 513.73>
VStem: 38 138<262.176 468.613> 652 134<262.742 303 434 473.78>
LayerCount: 2
Fore
SplineSet
38 369 m 0xa6
 38 588 199 752 413 752 c 0xae
 514 752 591 721 647 657 c 1
 647 739 l 1
 1004 739 l 1
 1004 608 l 1
 786 608 l 1
 786 434 l 1
 993 434 l 1
 993 303 l 1
 786 303 l 1
 786 131 l 1
 1004 131 l 1
 1004 0 l 1
 647 0 l 1x76
 647 81 l 1
 592 20 511 -13 418 -13 c 0
 202 -13 38 151 38 369 c 0xa6
176 365 m 0
 176 226 280 119 416 119 c 0
 553 119 652 224 652 368 c 0
 652 512 551 620 415 620 c 0
 274 620 176 506 176 365 c 0
EndSplineSet
Validated: 1
AlternateSubs2: "'aalt' Access All Alternates lookup 0 subtable" oe.sc
AlternateSubs2: "'aalt' Access All Alternates in Latin lookup 0 subtable" oe.sc
Substitution2: "'c2sc' Capitals to Small Capitals in Latin lookup 13 subtable" oe.sc
Position2: "'cpsp' Capital Spacing in Latin lookup 13 subtable" dx=7 dy=0 dh=14 dv=0
EndChar

StartChar: quoteleft
Encoding: 145 8216 109
Width: 280
VWidth: 0
Flags: W
TeX: 739 0
HStem: 672 67<159.036 205>
VStem: 72 133<466 599> 72 74<599 657.466>
LayerCount: 2
Fore
SplineSet
72 466 m 1xc0
 72 606 l 2xa0
 72 686 123 739 205 739 c 1
 205 672 l 1xc0
 162 664 146 649 146 615 c 0xa0
 146 612 146 605 147 599 c 1
 205 599 l 1
 205 466 l 1
 72 466 l 1xc0
EndSplineSet
Validated: 1
EndChar

StartChar: quoteright
Encoding: 146 8217 110
Width: 280
VWidth: 0
Flags: W
TeX: 739 0
HStem: 466 67<72 116.58> 611 128<72 131>
VStem: 72 133<611 739> 131 74<548.359 610.672>
LayerCount: 2
Fore
SplineSet
72 466 m 1xe0
 72 533 l 1xe0
 114 541 131 558 131 593 c 0xd0
 131 597 131 604 130 611 c 1
 72 611 l 1
 72 739 l 1
 205 739 l 1xe0
 205 599 l 2xd0
 205 521 159 466 72 466 c 1xe0
EndSplineSet
Validated: 1
EndChar

StartChar: quotedblleft
Encoding: 147 8220 111
Width: 480
VWidth: 0
GlyphClass: 3
Flags: W
TeX: 739 0
HStem: 466 133<144 203 351 410> 672 67<157.036 203 364.036 410>
VStem: 70 133<466 599> 70 75<599 613.993 614 657.466> 277 133<466 599> 277 74<599 657.466>
LayerCount: 2
Fore
SplineSet
70 466 m 1xe0
 70 606 l 2xd0
 70 686 121 739 203 739 c 1
 203 672 l 1xe0
 160 664 144 649 144 614 c 2
 144 614 144 605 145 599 c 1xd0
 203 599 l 1
 203 466 l 1
 70 466 l 1xe0
277 466 m 1xc8
 277 606 l 2xc4
 277 686 328 739 410 739 c 1
 410 672 l 1xc8
 368 664 351 648 351 616 c 0xc4
 351 612 351 605 352 599 c 1
 410 599 l 1
 410 466 l 1
 277 466 l 1xc8
EndSplineSet
Validated: 1
Ligature2: "'dlig' Discretionary Ligatures in Latin lookup 12 subtable" quoteleft quoteleft
EndChar

StartChar: quotedblright
Encoding: 148 8221 112
Width: 480
VWidth: 0
GlyphClass: 3
Flags: W
TeX: 739 0
HStem: 466 67<70 114.58 277 321.209> 611 128<70 129 277 336>
VStem: 70 133<611 739> 129 74<548.771 610.672> 277 133<611 739> 336 74<548.359 610.672>
LayerCount: 2
Fore
SplineSet
70 466 m 1xe0
 70 533 l 1xe0
 111 541 129 559 129 593 c 0xd0
 129 597 129 604 128 611 c 1
 70 611 l 1
 70 739 l 1
 203 739 l 1xe0
 203 599 l 2xd0
 203 522 157 466 70 466 c 1xe0
277 466 m 1xc8
 277 533 l 1xc8
 319 541 336 558 336 593 c 0xc4
 336 597 336 604 335 611 c 1
 277 611 l 1
 277 739 l 1
 410 739 l 1xc8
 410 599 l 2xc4
 410 521 363 466 277 466 c 1xc8
EndSplineSet
Validated: 1
Ligature2: "'dlig' Discretionary Ligatures in Latin lookup 12 subtable" quoteright quoteright
EndChar

StartChar: endash
Encoding: 150 8211 113
Width: 500
VWidth: 0
GlyphClass: 3
Flags: W
TeX: 347 0
HStem: 229 118<0 500>
LayerCount: 2
Fore
SplineSet
0 229 m 1
 0 347 l 1
 500 347 l 1
 500 229 l 1
 0 229 l 1
EndSplineSet
Validated: 1
Ligature2: "'dlig' Discretionary Ligatures in Latin lookup 12 subtable" hyphen hyphen
EndChar

StartChar: emdash
Encoding: 151 8212 114
Width: 1000
VWidth: 0
GlyphClass: 3
Flags: W
TeX: 347 0
HStem: 229 118<0 1000>
LayerCount: 2
Fore
SplineSet
0 229 m 1
 0 347 l 1
 1000 347 l 1
 1000 229 l 1
 0 229 l 1
EndSplineSet
Validated: 1
Ligature2: "'dlig' Discretionary Ligatures in Latin lookup 12 subtable" hyphen hyphen hyphen hyphen
EndChar

StartChar: guilsinglright
Encoding: 278 8250 115
Width: 240
VWidth: 0
Flags: W
TeX: 469 0
VStem: 73 139
LayerCount: 2
Fore
SplineSet
73 108 m 1
 73 231 l 1
 140 289 l 1
 73 346 l 1
 73 469 l 1
 212 339 l 1
 212 239 l 1
 73 108 l 1
EndSplineSet
Validated: 1
EndChar

StartChar: oe
Encoding: 157 339 116
Width: 1080
VWidth: 0
Flags: W
TeX: 554 0
HStem: -13 122<246.898 407.19 684.315 846.185> 218 117<614 910> 445 122<245.646 405.651 676.09 845.619>
VStem: 30 134<194.752 363.37> 486 562<220.312 329.594>
LayerCount: 2
Fore
SplineSet
30 277 m 0
 30 439 158 567 320 567 c 0
 414 567 484 531 543 456 c 1
 607 534 672 567 762 567 c 0
 931 567 1048 444 1048 284 c 0
 1048 261 1047 245 1043 218 c 1
 614 218 l 1
 636 151 694 109 767 109 c 0
 813 109 862 131 888 163 c 1
 1030 163 l 1
 991 56 888 -13 768 -13 c 0
 674 -13 594 27 543 100 c 1
 490 23 419 -13 324 -13 c 0
 156 -13 30 112 30 277 c 0
164 281 m 0
 164 182 234 109 329 109 c 0
 418 109 486 181 486 276 c 0
 486 372 416 445 325 445 c 0
 235 445 164 372 164 281 c 0
608 335 m 1
 910 335 l 1
 889 408 839 445 760 445 c 0
 685 445 633 408 608 335 c 1
EndSplineSet
Validated: 1
AlternateSubs2: "'aalt' Access All Alternates lookup 0 subtable" oe.sc
AlternateSubs2: "'aalt' Access All Alternates in Latin lookup 0 subtable" oe.sc
Substitution2: "'smcp' Lowercase to Small Capitals in Latin lookup 2 subtable" oe.sc
EndChar

StartChar: cent
Encoding: 279 162 117
Width: 560
VWidth: 0
Flags: W
TeX: 715 0
HStem: 39 231<218.582 342.101> 489 226<219.254 341.934>
VStem: 39 133<313.256 447.935> 218 125<39 153.308 605.285 715>
LayerCount: 2
Fore
SplineSet
39 381 m 0
 39 486 103 582 218 611 c 1
 218 715 l 1
 343 715 l 1
 343 611 l 1
 429 590 493 525 511 443 c 1
 369 443 l 1
 349 471 313 489 276 489 c 0
 217 489 172 442 172 379 c 0
 172 316 218 270 280 270 c 0
 313 270 340 282 365 310 c 1
 511 310 l 1
 476 221 423 169 343 148 c 1
 343 39 l 1
 218 39 l 1
 218 148 l 1
 112 172 39 266 39 381 c 0
EndSplineSet
Validated: 1
AlternateSubs2: "'aalt' Access All Alternates lookup 0 subtable" cent.oldstyle
AlternateSubs2: "'aalt' Access All Alternates in Latin lookup 0 subtable" cent.oldstyle
Substitution2: "'onum' Oldstyle Figures in Latin lookup 3 subtable" cent.oldstyle
EndChar

StartChar: sterling
Encoding: 280 163 118
Width: 560
VWidth: 0
Flags: W
TeX: 739 0
HStem: 0 125<41 190.399 320 394.223> 310 125<0 58 301 408> 630 122<219.3 338.93>
VStem: 41 133<442.409 581.972> 200 133<126.058 268.167> 430 133<159.07 272.906>
LayerCount: 2
Fore
SplineSet
0 310 m 1
 0 435 l 1
 58 435 l 1
 46 462 41 486 41 516 c 0
 41 648 147 752 280 752 c 0
 407 752 503 666 514 541 c 1
 379 541 l 1
 364 598 329 630 281 630 c 0
 221 630 174 578 174 511 c 0
 174 481 183 457 201 435 c 1
 408 435 l 1
 408 310 l 1
 301 310 l 1
 324 265 333 235 333 200 c 0
 333 179 328 148 320 125 c 1
 393 125 430 165 430 220 c 0
 430 236 428 248 420 274 c 1
 552 274 l 1
 560 253 563 240 563 222 c 0
 563 157 535 95 488 54 c 0
 441 14 393 0 301 0 c 2
 41 0 l 1
 41 125 l 1
 180 125 l 1
 193 147 200 171 200 198 c 0
 200 239 184 271 142 310 c 1
 0 310 l 1
EndSplineSet
Validated: 1
EndChar

StartChar: currency
Encoding: 164 164 119
Width: 560
VWidth: 0
Flags: W
TeX: 654 0
HStem: 153 120<209.81 351.897> 526 120<210.321 351.967>
VStem: 33 120<331.564 468.806> 407 122<328.128 469.567>
LayerCount: 2
Fore
SplineSet
27 229 m 1
 69 272 l 1
 40 327 33 351 33 400 c 0
 33 449 40 474 69 529 c 1
 27 574 l 1
 107 654 l 1
 152 610 l 1
 193 635 234 646 280 646 c 0
 327 646 369 634 412 610 c 1
 457 653 l 1
 534 572 l 1
 492 529 l 1
 521 479 529 449 529 399 c 0
 529 349 520 317 491 271 c 1
 533 228 l 1
 456 148 l 1
 412 190 l 1
 372 166 325 153 281 153 c 0
 236 153 191 166 150 190 c 1
 106 148 l 1
 27 229 l 1
153 400 m 0
 153 331 211 273 281 273 c 0
 351 273 407 329 407 399 c 0
 407 468 351 526 284 526 c 0
 211 526 153 470 153 400 c 0
EndSplineSet
Validated: 1
EndChar

StartChar: yen
Encoding: 281 165 120
Width: 560
VWidth: 0
Flags: W
TeX: 739 0
HStem: 0 21G<208 341> 187 88<12 208 341 538> 380 88<12 106 446 538> 719 20G<-35 123.384 425.557 589>
VStem: 208 133<0 187>
LayerCount: 2
Fore
SplineSet
-35 739 m 1
 114 739 l 1
 274 398 l 1
 435 739 l 1
 589 739 l 1
 446 468 l 1
 538 468 l 1
 538 380 l 1
 398 380 l 1
 341 275 l 1
 538 275 l 1
 538 187 l 1
 341 187 l 1
 341 0 l 1
 208 0 l 1
 208 187 l 1
 12 187 l 1
 12 275 l 1
 208 275 l 1
 152 380 l 1
 12 380 l 1
 12 468 l 1
 106 468 l 1
 -35 739 l 1
EndSplineSet
Validated: 1
EndChar

StartChar: section
Encoding: 167 167 121
Width: 560
VWidth: 0
Flags: W
TeX: 739 -250
HStem: -157 122<220.973 355.356> 563 21G<366.5 497> 630 122<227.621 349.001>
VStem: 40 117<316.306 397.326> 90 127<537.227 618.082> 377 127<-13.7608 71.333> 405 124<228.238 316.448>
LayerCount: 2
Fore
SplineSet
40 347 m 0xf4
 40 408 63 452 118 493 c 1
 99 522 90 551 90 586 c 0
 90 684 173 752 291 752 c 0
 410 752 481 687 497 563 c 1
 371 563 l 1
 362 609 336 630 285 630 c 0
 243 630 217 611 217 582 c 0
 217 554 238 531 278 512 c 2
 442 431 l 2
 495 405 529 351 529 292 c 0xea
 529 238 502 186 454 150 c 1
 489 114 504 79 504 31 c 0
 504 -79 415 -157 289 -157 c 0
 162 -157 71 -82 60 55 c 1
 194 55 l 1
 194 -5 228 -35 290 -35 c 0
 340 -35 377 -7 377 30 c 0
 377 58 362 73 304 103 c 2
 141 187 l 2
 73 222 40 273 40 347 c 0xf4
157 354 m 0xf2
 157 331 174 313 217 291 c 2xe8
 368 215 l 1
 391 231 405 255 405 278 c 0
 405 302 393 315 345 339 c 2
 196 413 l 1
 168 391 157 375 157 354 c 0xf2
EndSplineSet
Validated: 1
EndChar

StartChar: ordfeminine
Encoding: 282 170 122
Width: 360
VWidth: 0
Flags: W
TeX: 739 0
HStem: 310 70<31 342> 431 74<130.5 238.702> 676 74<133.176 240.065> 719 20G<272 338>
VStem: 28 76<532.392 647.05> 272 66<441 482 540.997 642.31 700 739>
LayerCount: 2
Fore
SplineSet
28 592 m 0xdc
 28 680 93 750 175 750 c 0xec
 214 750 246 733 272 700 c 1
 272 739 l 1
 338 739 l 1
 338 441 l 1
 272 441 l 1
 272 482 l 1
 247 449 210 431 170 431 c 0
 90 431 28 501 28 592 c 0xdc
31 310 m 1
 31 380 l 1
 342 380 l 1
 342 310 l 1
 31 310 l 1
104 589 m 0
 104 543 140 505 185 505 c 0
 230 505 266 543 266 591 c 0
 266 639 231 676 185 676 c 0
 140 676 104 637 104 589 c 0
EndSplineSet
Validated: 1
EndChar

StartChar: guillemotleft
Encoding: 171 171 123
Width: 460
VWidth: 0
Flags: W
TeX: 469 0
LayerCount: 2
Fore
SplineSet
36 239 m 1
 36 339 l 1
 175 469 l 1
 175 346 l 1
 108 289 l 1
 175 231 l 1
 175 108 l 1
 36 239 l 1
249 239 m 1
 249 339 l 1
 388 469 l 1
 388 346 l 1
 321 289 l 1
 388 231 l 1
 388 108 l 1
 249 239 l 1
EndSplineSet
Validated: 1
EndChar

StartChar: degree
Encoding: 176 176 124
Width: 400
VWidth: 0
Flags: W
TeX: 739 0
HStem: 424 69<144.339 257.435> 673 69<143.823 257.167>
VStem: 44 68<524.526 642.129> 287 69<523.893 641.904>
LayerCount: 2
Fore
SplineSet
44 584 m 0
 44 672 115 742 204 742 c 0
 289 742 356 672 356 583 c 0
 356 494 287 424 200 424 c 0
 113 424 44 495 44 584 c 0
112 583 m 0
 112 533 152 493 200 493 c 0
 249 493 287 532 287 583 c 0
 287 633 249 673 202 673 c 0
 151 673 112 633 112 583 c 0
EndSplineSet
Validated: 1
EndChar

StartChar: two.superior
Encoding: 283 178 125
Width: 336
VWidth: 0
Flags: W
TeX: 739 0
HStem: 296 80<143 324> 668 79<118.804 220.734>
VStem: 10 87<582 645.09> 238 88<551.784 650.121>
LayerCount: 2
Fore
SplineSet
10 582 m 1
 10 689 75 747 169 747 c 0
 259 747 326 684 326 601 c 0
 326 549 296 498 237 451 c 2
 143 376 l 1
 324 376 l 1
 324 296 l 1
 13 296 l 1
 13 370 l 1
 183 518 l 2
 225 554 237 576 238 603 c 0
 238 640 209 668 170 668 c 0
 125 668 98 637 97 582 c 1
 10 582 l 1
EndSplineSet
Validated: 1
EndChar

StartChar: three.superior
Encoding: 284 179 126
Width: 336
VWidth: 0
Flags: W
TeX: 739 0
HStem: 288 79<114.92 224.195> 506 82<128 204.547> 668 78<132.425 207.4>
VStem: 4 88<389.128 435> 37 89<628 663.107> 211 88<597.003 662.889> 244 87<387.837 483.782>
LayerCount: 2
Fore
SplineSet
4 435 m 1xf2
 92 435 l 1
 98 393 127 367 170 367 c 0
 212 367 244 396 244 436 c 0xf2
 244 479 207 506 149 506 c 2
 128 506 l 1
 128 588 l 1
 189 589 211 600 211 630 c 0
 211 652 193 668 168 668 c 0
 143 668 131 657 126 628 c 1
 37 628 l 1
 45 710 100 746 167 746 c 0
 243 746 299 695 299 625 c 0xec
 299 593 287 568 265 551 c 1
 307 531 331 491 331 439 c 0
 331 352 263 288 170 288 c 0
 76 288 9 348 4 435 c 1xf2
EndSplineSet
Validated: 1
EndChar

StartChar: mu
Encoding: 181 956 127
Width: 576
VWidth: 0
Flags: W
TeX: 554 -185
HStem: -185 21G<54 187> -18 130<227.558 349.969> 0 21G<401 523> 534 20G<54 187 390 523>
VStem: 54 133<-185 1 158.133 554> 390 133<158.47 554> 401 122<0 59>
LayerCount: 2
Fore
SplineSet
54 -185 m 1xda
 54 554 l 1
 187 554 l 1
 187 282 l 2
 187 202 199 112 289 112 c 0
 379 112 390 203 390 282 c 2
 390 554 l 1
 523 554 l 1xdc
 523 0 l 1
 401 0 l 1xba
 401 59 l 1
 373 5 331 -18 270 -18 c 0
 237 -18 217 -12 187 1 c 1
 187 -185 l 1
 54 -185 l 1xda
EndSplineSet
Validated: 1
AlternateSubs2: "'aalt' Access All Alternates lookup 0 subtable" uni00B5
AlternateSubs2: "'aalt' Access All Alternates in Latin lookup 0 subtable" uni00B5
Substitution2: "'ss03' Style Set 3 in Latin lookup 17 subtable" uni00B5
Substitution2: "'ss01' Style Set 1 in Latin lookup 15 subtable" uni00B5
Substitution2: "'salt' Stylistic Alternatives in Latin lookup 14 subtable" uni00B5
EndChar

StartChar: paragraph
Encoding: 182 182 128
Width: 600
VWidth: 0
Flags: W
TeX: 739 -128
HStem: 632 107<342 426>
VStem: 37 305<437.924 630.255> 241 101<-128 330> 426 101<-128 632>
LayerCount: 2
Fore
SplineSet
37 533 m 0xd0
 37 665 115 739 309 739 c 2
 527 739 l 1
 527 -128 l 1
 426 -128 l 1
 426 632 l 1
 342 632 l 1
 342 -128 l 1
 241 -128 l 1
 241 330 l 1xb0
 119 332 37 414 37 533 c 0xd0
EndSplineSet
Validated: 1
AlternateSubs2: "'aalt' Access All Alternates lookup 0 subtable" paragraph.alt
AlternateSubs2: "'aalt' Access All Alternates in Latin lookup 0 subtable" paragraph.alt
Substitution2: "'ss02' Style Set 2 in Latin lookup 16 subtable" paragraph.alt
Substitution2: "'ss01' Style Set 1 in Latin lookup 15 subtable" paragraph.alt
Substitution2: "'salt' Stylistic Alternatives in Latin lookup 14 subtable" paragraph.alt
EndChar

StartChar: one.superior
Encoding: 285 185 129
Width: 336
VWidth: 0
Flags: W
TeX: 739 0
HStem: 659 80<94 153>
VStem: 94 147<659 739> 153 88<296 659>
LayerCount: 2
Fore
SplineSet
94 659 m 1xc0
 94 739 l 1
 241 739 l 1xc0
 241 296 l 1
 153 296 l 1
 153 659 l 1xa0
 94 659 l 1xc0
EndSplineSet
Validated: 1
EndChar

StartChar: ordmasculine
Encoding: 286 186 130
Width: 360
VWidth: 0
Flags: W
TeX: 739 0
HStem: 311 70<31 338> 442 74<130.541 238.852> 680 70<131.65 238.064>
VStem: 31 73<541.312 653.482> 265 73<541.648 652.666>
LayerCount: 2
Fore
SplineSet
31 311 m 1
 31 381 l 1
 338 381 l 1
 338 311 l 1
 31 311 l 1
31 599 m 0
 31 681 101 750 185 750 c 0
 270 750 338 682 338 596 c 0
 338 510 270 442 184 442 c 0
 100 442 31 513 31 599 c 0
104 599 m 0
 104 551 138 516 184 516 c 0
 230 516 265 551 265 597 c 0
 265 642 228 680 185 680 c 0
 141 680 104 643 104 599 c 0
EndSplineSet
Validated: 1
EndChar

StartChar: guillemotright
Encoding: 187 187 131
Width: 460
VWidth: 0
Flags: W
TeX: 469 0
LayerCount: 2
Fore
SplineSet
73 108 m 1
 73 231 l 1
 140 289 l 1
 73 346 l 1
 73 469 l 1
 212 339 l 1
 212 239 l 1
 73 108 l 1
286 108 m 1
 286 231 l 1
 353 289 l 1
 286 346 l 1
 286 469 l 1
 425 339 l 1
 425 239 l 1
 286 108 l 1
EndSplineSet
Validated: 1
EndChar

StartChar: onequarter
Encoding: 287 188 132
Width: 840
VWidth: 0
GlyphClass: 3
Flags: W
TeX: 739 0
HStem: 0 21G<220 323.281 700 788> 66 76<598 700 788 836> 659 80<94 153>
VStem: 94 147<659 739> 153 88<296 659> 700 88<0 66 142 296>
LayerCount: 2
Fore
SplineSet
94 659 m 1xf4
 94 739 l 1
 241 739 l 1xf4
 241 296 l 1
 153 296 l 1
 153 659 l 1xec
 94 659 l 1xf4
220 0 m 1
 526 739 l 1
 621 739 l 1
 315 0 l 1
 220 0 l 1
506 66 m 1
 506 133 l 1
 714 443 l 1
 788 443 l 1
 788 142 l 1
 836 142 l 1
 836 66 l 1
 788 66 l 1
 788 0 l 1
 700 0 l 1
 700 66 l 1
 506 66 l 1
598 142 m 1
 700 142 l 1
 700 296 l 1
 598 142 l 1
EndSplineSet
Validated: 1
Ligature2: "'frac' Diagonal Fractions in Latin lookup 20 subtable" one fraction four
Ligature2: "'frac' Diagonal Fractions in Latin lookup 20 subtable" one slash four
EndChar

StartChar: onehalf
Encoding: 288 189 133
Width: 840
VWidth: 0
GlyphClass: 3
Flags: W
TeX: 739 0
HStem: 0 80<647 828> 372 79<622.99 724.734> 659 80<94 153>
VStem: 94 147<659 739> 153 88<296 659> 514 87<286 349.491> 742 88<255.784 354.121>
LayerCount: 2
Fore
SplineSet
94 659 m 1xf6
 94 739 l 1
 241 739 l 1xf6
 241 296 l 1
 153 296 l 1
 153 659 l 1xee
 94 659 l 1xf6
199 0 m 1
 505 739 l 1
 600 739 l 1
 294 0 l 1
 199 0 l 1
514 286 m 1
 514 394 580 451 673 451 c 0
 763 451 830 388 830 305 c 0
 830 253 800 202 741 155 c 2
 647 80 l 1
 828 80 l 1
 828 0 l 1
 517 0 l 1
 517 74 l 1
 687 222 l 2
 729 258 741 280 742 307 c 0
 742 344 713 372 674 372 c 0
 629 372 602 341 601 286 c 1
 514 286 l 1
EndSplineSet
Validated: 1
Ligature2: "'frac' Diagonal Fractions in Latin lookup 20 subtable" one fraction two
Ligature2: "'frac' Diagonal Fractions in Latin lookup 20 subtable" one slash two
EndChar

StartChar: threequarters
Encoding: 289 190 134
Width: 840
VWidth: 0
GlyphClass: 3
Flags: W
TeX: 739 0
HStem: 0 21G<250 353.281 700 788> 66 76<598 700 788 836> 288 79<114.92 224.195> 506 82<128 204.547> 668 78<132.425 207.4> 719 20G<547.719 651>
VStem: 4 88<389.128 435> 37 89<628 663.107> 211 88<597.003 662.889> 244 87<387.837 483.782> 700 88<0 66 142 296>
LayerCount: 2
Fore
SplineSet
4 435 m 1xfa60
 92 435 l 1
 98 393 127 367 170 367 c 0
 212 367 244 396 244 436 c 0xfa60
 244 479 207 506 149 506 c 2
 128 506 l 1
 128 588 l 1
 189 589 211 600 211 630 c 0
 211 652 193 668 168 668 c 0
 143 668 131 657 126 628 c 1
 37 628 l 1
 45 710 100 746 167 746 c 0
 243 746 299 695 299 625 c 0xf9a0
 299 593 287 568 265 551 c 1
 307 531 331 491 331 439 c 0
 331 352 263 288 170 288 c 0
 76 288 9 348 4 435 c 1xfa60
250 0 m 1
 556 739 l 1
 651 739 l 1xf420
 345 0 l 1
 250 0 l 1
506 66 m 1
 506 133 l 1
 714 443 l 1
 788 443 l 1
 788 142 l 1
 836 142 l 1
 836 66 l 1
 788 66 l 1
 788 0 l 1
 700 0 l 1
 700 66 l 1
 506 66 l 1
598 142 m 1
 700 142 l 1
 700 296 l 1
 598 142 l 1
EndSplineSet
Validated: 1
Ligature2: "'frac' Diagonal Fractions in Latin lookup 20 subtable" three fraction four
Ligature2: "'frac' Diagonal Fractions in Latin lookup 20 subtable" three slash four
EndChar

StartChar: AE
Encoding: 170 198 135
Width: 900
VWidth: 0
Flags: W
TeX: 739 0
HStem: 0 131<625 843> 191 131<373 488> 303 131<625 832> 608 131<625 843>
VStem: 488 137<131 191 434 513>
LayerCount: 2
Fore
SplineSet
17 0 m 1xd8
 504 739 l 1
 843 739 l 1
 843 608 l 1
 625 608 l 1
 625 434 l 1
 832 434 l 1
 832 303 l 1
 625 303 l 1xb8
 625 131 l 1
 843 131 l 1
 843 0 l 1
 488 0 l 1
 488 191 l 1
 294 191 l 1
 182 0 l 1
 17 0 l 1xd8
373 322 m 1xd8
 488 322 l 1
 488 513 l 1
 373 322 l 1xd8
EndSplineSet
Validated: 1
AlternateSubs2: "'aalt' Access All Alternates lookup 0 subtable" ae.sc
AlternateSubs2: "'aalt' Access All Alternates in Latin lookup 0 subtable" ae.sc
Substitution2: "'c2sc' Capitals to Small Capitals in Latin lookup 13 subtable" ae.sc
Position2: "'cpsp' Capital Spacing in Latin lookup 13 subtable" dx=7 dy=0 dh=14 dv=0
EndChar

StartChar: Eth
Encoding: 208 208 136
Width: 742
VWidth: 0
Flags: W
TeX: 739 0
HStem: 0 131<247 431.927> 315 107<14 110 247 401> 608 131<247 431.75>
VStem: 110 137<131 315 422 608> 564 138<261.916 475.383>
LayerCount: 2
Fore
SplineSet
14 315 m 1
 14 422 l 1
 110 422 l 1
 110 739 l 1
 279 739 l 2
 395 739 483 721 541 686 c 0
 644 624 702 508 702 367 c 0
 702 218 635 97 521 41 c 0
 461 11 395 0 282 0 c 2
 110 0 l 1
 110 315 l 1
 14 315 l 1
247 131 m 1
 277 131 l 2
 359 131 416 141 457 164 c 0
 523 200 564 278 564 368 c 0
 564 462 521 542 451 578 c 0
 408 600 362 608 274 608 c 2
 247 608 l 1
 247 422 l 1
 401 422 l 1
 401 315 l 1
 247 315 l 1
 247 131 l 1
EndSplineSet
Validated: 1
AlternateSubs2: "'aalt' Access All Alternates lookup 0 subtable" eth.sc
AlternateSubs2: "'aalt' Access All Alternates in Latin lookup 0 subtable" eth.sc
Substitution2: "'c2sc' Capitals to Small Capitals in Latin lookup 13 subtable" eth.sc
Position2: "'cpsp' Capital Spacing in Latin lookup 13 subtable" dx=7 dy=0 dh=14 dv=0
EndChar

StartChar: Oslash
Encoding: 216 216 137
Width: 840
VWidth: 0
GlyphClass: 2
Flags: W
TeX: 739 0
HStem: -13 132<329.805 520.327> 620 132<316.377 503.999>
VStem: 30 138<270.71 469.762> 665 138<263.584 473.451>
AnchorPoint: "bot_acc" 417 -146 basechar 0
AnchorPoint: "dotbelow" 417 -146 basechar 0
AnchorPoint: "ogon_acc" 417 -146 basechar 0
AnchorPoint: "top_accu" 417 875 basechar 0
AnchorPoint: "dotabove" 417 875 basechar 0
LayerCount: 2
Fore
SplineSet
30 370 m 0
 30 582 202 752 416 752 c 0
 473 752 526 741 581 717 c 1
 643 809 l 1
 738 743 l 1
 677 653 l 1
 759 578 803 479 803 370 c 0
 803 154 636 -13 421 -13 c 0
 361 -13 306 -1 253 23 c 1
 193 -65 l 1
 97 0 l 1
 156 87 l 1
 76 159 30 263 30 370 c 0
168 370 m 0
 168 309 191 249 233 201 c 1
 505 605 l 1
 476 615 448 620 416 620 c 0
 278 620 168 510 168 370 c 0
329 135 m 1
 360 124 389 119 420 119 c 0
 560 119 665 226 665 368 c 0
 665 433 643 491 601 540 c 1
 329 135 l 1
EndSplineSet
Validated: 1
AlternateSubs2: "'aalt' Access All Alternates lookup 0 subtable" oslash.sc
AlternateSubs2: "'aalt' Access All Alternates in Latin lookup 0 subtable" oslash.sc
Substitution2: "'c2sc' Capitals to Small Capitals in Latin lookup 13 subtable" oslash.sc
Position2: "'cpsp' Capital Spacing in Latin lookup 13 subtable" dx=7 dy=0 dh=14 dv=0
EndChar

StartChar: Thorn
Encoding: 290 222 138
Width: 560
VWidth: 0
Flags: W
TeX: 739 0
HStem: 0 21G<68 205> 149 131<205 363.836> 477 131<205 366.5> 719 20G<68 205>
VStem: 68 137<0 149 280 477 608 739> 402 138<313.714 444.746>
LayerCount: 2
Fore
SplineSet
68 0 m 1
 68 739 l 1
 205 739 l 1
 205 608 l 1
 251 608 l 2
 349 608 398 599 440 574 c 0
 504 535 540 465 540 380 c 0
 540 294 503 219 443 182 c 0
 402 157 353 149 249 149 c 2
 205 149 l 1
 205 0 l 1
 68 0 l 1
205 280 m 1
 245 280 l 2
 369 280 402 314 402 377 c 0
 402 456 357 477 251 477 c 2
 205 477 l 1
 205 280 l 1
EndSplineSet
Validated: 1
AlternateSubs2: "'aalt' Access All Alternates lookup 0 subtable" thorn.sc
AlternateSubs2: "'aalt' Access All Alternates in Latin lookup 0 subtable" thorn.sc
Substitution2: "'c2sc' Capitals to Small Capitals in Latin lookup 13 subtable" thorn.sc
Position2: "'cpsp' Capital Spacing in Latin lookup 13 subtable" dx=7 dy=0 dh=14 dv=0
EndChar

StartChar: germandbls
Encoding: 223 223 139
Width: 600
VWidth: 0
Flags: W
TeX: 752 0
HStem: -13 122<302.155 417.207> 0 21G<51 173> 315 118<255 320.758> 630 122<216.052 327.812>
VStem: 51 133<189 598.375> 51 122<0 79> 356 134<467.578 600.69> 450 134<143.239 272.625>
LayerCount: 2
Fore
SplineSet
51 0 m 1x75
 51 487 l 2
 51 653 135 752 272 752 c 0
 395 752 490 663 490 546 c 0x7a
 490 480 467 437 415 408 c 1
 531 381 584 308 584 216 c 0
 584 82 487 -13 350 -13 c 0xb1
 269 -13 210 18 173 79 c 1
 173 0 l 1
 51 0 l 1x75
184 189 m 1
 266 189 l 1
 275 143 315 109 359 109 c 0
 411 109 450 150 450 205 c 0xb9
 450 278 410 315 266 315 c 2
 255 315 l 1
 255 433 l 1
 266 433 l 2
 318 433 356 477 356 536 c 0
 356 593 322 630 271 630 c 0
 213 630 184 588 184 503 c 2
 184 189 l 1
EndSplineSet
Validated: 1
AlternateSubs2: "'aalt' Access All Alternates lookup 0 subtable" germandbls.sc
AlternateSubs2: "'aalt' Access All Alternates in Latin lookup 0 subtable" germandbls.sc
Substitution2: "'smcp' Lowercase to Small Capitals in Latin lookup 2 subtable" germandbls.sc
EndChar

StartChar: ae
Encoding: 186 230 140
Width: 1080
VWidth: 0
Flags: W
TeX: 554 0
HStem: -13 122<244.09 404.026 685.479 849.742> 0 21G<485 607> 219 118<614 911> 445 122<244.019 401.485 673.285 849.821> 534 20G<485 607>
VStem: 30 134<193.456 362.868> 485 122<0 60 499 554>
LayerCount: 2
Fore
SplineSet
30 275 m 0xa6
 30 440 155 567 318 567 c 0xb6
 389 567 439 547 485 499 c 1
 485 554 l 1
 607 554 l 1x2e
 607 499 l 1
 654 547 704 567 774 567 c 0
 929 567 1051 444 1051 288 c 0
 1051 265 1049 249 1042 219 c 1
 614 219 l 1
 637 150 695 109 770 109 c 0
 819 109 855 126 887 164 c 1
 1032 164 l 1
 999 63 889 -13 776 -13 c 0xb6
 702 -13 651 9 607 60 c 1
 607 0 l 1
 485 0 l 1x66
 485 60 l 1
 440 7 396 -13 320 -13 c 0
 154 -13 30 110 30 275 c 0xa6
164 280 m 0
 164 181 231 109 325 109 c 0
 414 109 481 181 481 276 c 0
 481 372 412 445 323 445 c 0
 234 445 164 372 164 280 c 0
607 337 m 1
 911 337 l 1
 892 409 841 445 761 445 c 0
 684 445 633 410 607 337 c 1
EndSplineSet
Validated: 1
AlternateSubs2: "'aalt' Access All Alternates lookup 0 subtable" ae.sc
AlternateSubs2: "'aalt' Access All Alternates in Latin lookup 0 subtable" ae.sc
Substitution2: "'smcp' Lowercase to Small Capitals in Latin lookup 2 subtable" ae.sc
EndChar

StartChar: eth
Encoding: 240 240 141
Width: 640
VWidth: 0
Flags: W
TeX: 739 0
HStem: -13 122<249.681 400.228> 445 111<249.321 364> 729 20G<380.5 440.735>
VStem: 30 134<196.238 359.784> 485 134<193.929 359.797>
LayerCount: 2
Fore
SplineSet
30 278 m 0
 30 425 149 556 298 556 c 0
 314 556 338 553 365 547 c 1
 337 575 l 2
 311 601 309 603 288 621 c 1
 201 581 l 1
 161 627 l 1
 239 664 l 1
 169 721 l 1
 272 756 l 1
 281 750 286 746 288 745 c 2
 318 722 l 2
 321 721 327 716 337 709 c 1
 424 749 l 1
 465 700 l 1
 387 665 l 1
 559 517 619 411 619 284 c 0
 619 117 490 -13 325 -13 c 0
 163 -13 30 118 30 278 c 0
164 279 m 0
 164 184 235 109 325 109 c 0
 413 109 485 184 485 277 c 0
 485 369 413 445 324 445 c 0
 237 445 164 370 164 279 c 0
EndSplineSet
Validated: 1
AlternateSubs2: "'aalt' Access All Alternates lookup 0 subtable" eth.sc
AlternateSubs2: "'aalt' Access All Alternates in Latin lookup 0 subtable" eth.sc
Substitution2: "'smcp' Lowercase to Small Capitals in Latin lookup 2 subtable" eth.sc
EndChar

StartChar: oslash
Encoding: 248 248 142
Width: 660
VWidth: 0
GlyphClass: 2
Flags: W
TeX: 554 0
HStem: -13 122<271.789 400.565> 445 122<250.424 361.907>
VStem: 30 134<195.308 358.678> 486 134<195.322 360.161>
AnchorPoint: "bot_acc" 325 -213 basechar 0
AnchorPoint: "dotbelow" 325 -213 basechar 0
AnchorPoint: "ogon_acc" 325 -146 basechar 0
AnchorPoint: "top_accl" 325 700 basechar 0
AnchorPoint: "dotabove" 325 700 basechar 0
LayerCount: 2
Fore
SplineSet
30 277 m 0
 30 437 163 567 326 567 c 0
 365 567 400 560 435 546 c 1
 487 623 l 1
 573 565 l 1
 523 492 l 1
 587 433 620 360 620 277 c 0
 620 117 488 -13 326 -13 c 0
 282 -13 241 -4 200 15 c 1
 144 -67 l 1
 59 -10 l 1
 116 74 l 1
 61 126 30 200 30 277 c 0
164 278 m 0
 164 245 173 214 191 185 c 1
 363 440 l 1
 348 444 339 445 325 445 c 0
 237 445 164 370 164 278 c 0
271 119 m 1
 290 112 306 109 325 109 c 0
 414 109 486 184 486 276 c 0
 486 315 474 351 450 383 c 1
 271 119 l 1
EndSplineSet
Validated: 1
AlternateSubs2: "'aalt' Access All Alternates lookup 0 subtable" oslash.sc
AlternateSubs2: "'aalt' Access All Alternates in Latin lookup 0 subtable" oslash.sc
Substitution2: "'smcp' Lowercase to Small Capitals in Latin lookup 2 subtable" oslash.sc
EndChar

StartChar: thorn
Encoding: 291 254 143
Width: 660
VWidth: 0
Flags: W
TeX: 739 -185
HStem: -185 21G<54 187> -13 122<259.486 418.934> 445 122<259.709 418.934> 719 20G<54 187>
VStem: 54 133<-185 59 495 739> 54 125<192.554 362.659> 500 134<193.438 360.385>
LayerCount: 2
Fore
SplineSet
54 -185 m 1xfa
 54 739 l 1
 187 739 l 1
 187 495 l 1
 230 542 289 567 359 567 c 0
 519 567 634 445 634 277 c 0
 634 108 519 -13 359 -13 c 0
 289 -13 230 12 187 59 c 1
 187 -185 l 1
 54 -185 l 1xfa
179 279 m 0xf6
 179 181 248 109 341 109 c 0
 431 109 500 182 500 277 c 0
 500 372 431 445 341 445 c 0
 249 445 179 373 179 279 c 0xf6
EndSplineSet
Validated: 1
AlternateSubs2: "'aalt' Access All Alternates lookup 0 subtable" thorn.sc
AlternateSubs2: "'aalt' Access All Alternates in Latin lookup 0 subtable" thorn.sc
Substitution2: "'smcp' Lowercase to Small Capitals in Latin lookup 2 subtable" thorn.sc
EndChar

StartChar: space_uni0326
Encoding: 292 -1 144
Width: 351
VWidth: 0
Flags: W
TeX: 0 -250
HStem: -245 192<129 175>
VStem: 71 162
LayerCount: 2
Fore
SplineSet
71 -245 m 1
 129 -53 l 1
 233 -53 l 1
 175 -245 l 1
 71 -245 l 1
EndSplineSet
Validated: 1
EndChar

StartChar: Hbar
Encoding: 293 294 145
Width: 680
VWidth: 0
Flags: W
TeX: 739 0
HStem: 0 21G<68 205 469 606> 310 131<205 469> 549 100<8 68 205 469 606 672> 719 20G<68 205 469 606>
VStem: 68 137<0 310 441 549 649 739> 469 137<0 310 441 549 649 739>
LayerCount: 2
Fore
SplineSet
8 549 m 1
 8 649 l 1
 68 649 l 1
 68 739 l 1
 205 739 l 1
 205 649 l 1
 469 649 l 1
 469 739 l 1
 606 739 l 1
 606 649 l 1
 672 649 l 1
 672 549 l 1
 606 549 l 1
 606 0 l 1
 469 0 l 1
 469 310 l 1
 205 310 l 1
 205 0 l 1
 68 0 l 1
 68 549 l 1
 8 549 l 1
205 441 m 1
 469 441 l 1
 469 549 l 1
 205 549 l 1
 205 441 l 1
EndSplineSet
Validated: 1
AlternateSubs2: "'aalt' Access All Alternates lookup 0 subtable" hbar.sc
AlternateSubs2: "'aalt' Access All Alternates in Latin lookup 0 subtable" hbar.sc
Substitution2: "'c2sc' Capitals to Small Capitals in Latin lookup 13 subtable" hbar.sc
Position2: "'cpsp' Capital Spacing in Latin lookup 13 subtable" dx=7 dy=0 dh=14 dv=0
EndChar

StartChar: hbar
Encoding: 294 295 146
Width: 600
VWidth: 0
Flags: W
TeX: 739 0
HStem: 0 21G<53 186 411 544> 445 123<232.959 370.613> 602 100<-17 53 187 261> 719 20G<53 186>
VStem: 53 133<0 396.682 516 602 702 739> 411 133<0 401.32>
LayerCount: 2
Fore
SplineSet
-17 602 m 1
 -17 702 l 1
 53 702 l 1
 53 739 l 1
 186 739 l 1
 186 702 l 1
 261 702 l 1
 261 602 l 1
 187 602 l 1
 186 516 l 1
 226 552 270 568 327 568 c 0
 406 568 470 537 507 480 c 0
 534 439 544 394 544 313 c 2
 544 0 l 1
 411 0 l 1
 411 283 l 2
 411 399 381 445 303 445 c 0
 259 445 224 426 205 392 c 0
 191 367 186 336 186 281 c 2
 186 0 l 1
 53 0 l 1
 53 602 l 1
 -17 602 l 1
EndSplineSet
Validated: 1
AlternateSubs2: "'aalt' Access All Alternates lookup 0 subtable" hbar.sc
AlternateSubs2: "'aalt' Access All Alternates in Latin lookup 0 subtable" hbar.sc
Substitution2: "'smcp' Lowercase to Small Capitals in Latin lookup 2 subtable" hbar.sc
EndChar

StartChar: longs
Encoding: 295 383 147
Width: 280
VWidth: 0
Flags: W
TeX: 739 0
HStem: 0 21G<58 191> 433 111<10 58> 611 128<202.469 274>
VStem: 10 181<433 544> 58 133<0 433 544 598.977>
LayerCount: 2
Fore
SplineSet
10 433 m 1xf0
 10 544 l 1xf0
 58 544 l 1xe8
 65 613 75 645 102 677 c 0
 136 718 184 739 241 739 c 0
 250 739 258 739 274 737 c 1
 274 611 l 1
 261 611 l 2
 209 611 192 594 191 544 c 2xf0
 191 0 l 1
 58 0 l 1
 58 433 l 1xe8
 10 433 l 1xf0
EndSplineSet
Validated: 1
EndChar

StartChar: Ohorn
Encoding: 296 416 148
Width: 859
VWidth: 0
GlyphClass: 2
Flags: W
TeX: 739 0
HStem: -13 132<317.674 518.207> 620 132<317.211 519.351> 719 20G<732 827>
VStem: 30 138<269.071 470.194> 662 138<263.584 473.48> 732 95<649.621 739>
AnchorPoint: "bot_acc" 420 -146 basechar 0
AnchorPoint: "dotbelow" 420 -146 basechar 0
AnchorPoint: "ogon_acc" 420 -146 basechar 0
AnchorPoint: "top_accu" 420 875 basechar 0
AnchorPoint: "dotabove" 420 875 basechar 0
LayerCount: 2
Fore
SplineSet
30 369 m 0xb8
 30 585 200 752 420 752 c 0xd8
 530 752 629 705 698 630 c 1
 718 655 732 691 732 739 c 1
 827 739 l 1xb4
 827 658 795 596 754 552 c 1
 783 498 800 436 800 370 c 0
 800 154 634 -13 419 -13 c 0
 202 -13 30 156 30 369 c 0xb8
168 369 m 0
 168 229 278 119 418 119 c 0
 558 119 662 226 662 368 c 0
 662 510 555 620 418 620 c 0
 276 620 168 512 168 369 c 0
EndSplineSet
Validated: 1
AlternateSubs2: "'aalt' Access All Alternates lookup 0 subtable" ohorn.sc
AlternateSubs2: "'aalt' Access All Alternates in Latin lookup 0 subtable" ohorn.sc
Substitution2: "'c2sc' Capitals to Small Capitals in Latin lookup 13 subtable" ohorn.sc
Position2: "'cpsp' Capital Spacing in Latin lookup 13 subtable" dx=7 dy=0 dh=14 dv=0
EndChar

StartChar: Uhorn
Encoding: 297 431 149
Width: 748
VWidth: 0
GlyphClass: 2
Flags: W
TeX: 739 0
HStem: -13 132<249.894 384.253> 719 20G<68 205 430 567 629 724>
VStem: 68 137<163.485 739> 430 137<165.123 501.316 600 739> 629 95<649.469 739>
AnchorPoint: "bot_acc" 318 -146 basechar 0
AnchorPoint: "dotbelow" 318 -146 basechar 0
AnchorPoint: "ogon_acc" 318 -146 basechar 0
AnchorPoint: "top_accu" 318 875 basechar 0
AnchorPoint: "dotabove" 318 875 basechar 0
LayerCount: 2
Fore
SplineSet
68 271 m 2
 68 739 l 1
 205 739 l 1
 205 271 l 2
 205 216 209 193 223 169 c 0
 242 138 278 119 318 119 c 0
 357 119 393 138 412 169 c 0
 426 193 430 216 430 271 c 2
 430 739 l 1
 567 739 l 1
 567 600 l 1
 599 626 629 669 629 739 c 1
 724 739 l 1
 724 607 641 526 567 490 c 1
 567 271 l 2
 567 185 553 130 517 82 c 0
 473 23 397 -13 317 -13 c 0
 231 -13 151 29 108 97 c 0
 80 142 68 192 68 271 c 2
EndSplineSet
Validated: 1
AlternateSubs2: "'aalt' Access All Alternates lookup 0 subtable" uhorn.sc
AlternateSubs2: "'aalt' Access All Alternates in Latin lookup 0 subtable" uhorn.sc
Substitution2: "'c2sc' Capitals to Small Capitals in Latin lookup 13 subtable" uhorn.sc
Position2: "'cpsp' Capital Spacing in Latin lookup 13 subtable" dx=7 dy=0 dh=14 dv=0
EndChar

StartChar: ohorn
Encoding: 298 417 150
Width: 722
VWidth: 0
GlyphClass: 2
Flags: W
TeX: 554 0
HStem: -13 122<249.214 402.592> 445 122<249.194 400.549> 534 20G<598 693>
VStem: 30 134<195.777 358.653> 485 134<194.338 357.527> 598 95<463.842 554>
AnchorPoint: "bot_acc" 323 -146 basechar 0
AnchorPoint: "dotbelow" 323 -146 basechar 0
AnchorPoint: "ogon_acc" 323 -146 basechar 0
AnchorPoint: "top_accl" 323 700 basechar 0
AnchorPoint: "dotabove" 323 700 basechar 0
LayerCount: 2
Fore
SplineSet
30 277 m 0xb8
 30 436 162 567 323 567 c 0
 424 567 512 519 565 445 c 1xd8
 584 470 598 506 598 554 c 1
 693 554 l 1xb4
 693 465 655 400 607 356 c 1
 615 330 619 302 619 273 c 0
 619 117 485 -13 324 -13 c 0
 162 -13 30 117 30 277 c 0xb8
164 279 m 0
 164 184 235 109 325 109 c 0
 413 109 485 184 485 277 c 0
 485 369 413 445 324 445 c 0
 237 445 164 370 164 279 c 0
EndSplineSet
Validated: 1
AlternateSubs2: "'aalt' Access All Alternates lookup 0 subtable" ohorn.sc
AlternateSubs2: "'aalt' Access All Alternates in Latin lookup 0 subtable" ohorn.sc
Substitution2: "'smcp' Lowercase to Small Capitals in Latin lookup 2 subtable" ohorn.sc
EndChar

StartChar: uhorn
Encoding: 299 432 151
Width: 729
VWidth: 0
GlyphClass: 2
Flags: W
TeX: 554 0
HStem: -13 122<227.477 365.408> 0 21G<424 547> 534 20G<54 187 414 547 608 703>
VStem: 54 133<153.46 554> 414 133<158.51 317.316 416 554> 424 123<0 53> 608 95<465.047 554>
AnchorPoint: "bot_acc" 301 -146 basechar 0
AnchorPoint: "dotbelow" 301 -146 basechar 0
AnchorPoint: "ogon_acc" 446 -146 basechar 0
AnchorPoint: "top_accl" 301 700 basechar 0
AnchorPoint: "dotabove" 301 700 basechar 0
LayerCount: 2
Fore
SplineSet
54 257 m 2xb6
 54 554 l 1
 187 554 l 1
 187 283 l 2
 187 209 195 168 214 144 c 0
 232 120 258 109 292 109 c 0
 337 109 374 128 393 160 c 0
 409 184 414 220 414 293 c 2
 414 554 l 1
 547 554 l 1
 547 416 l 1
 579 442 608 484 608 554 c 1
 703 554 l 1
 703 423 621 342 547 306 c 1xba
 547 0 l 1
 424 0 l 1x76
 424 53 l 1
 374 4 332 -13 265 -13 c 0
 193 -13 133 16 96 69 c 0
 65 115 54 163 54 257 c 2xb6
EndSplineSet
Validated: 1
AlternateSubs2: "'aalt' Access All Alternates lookup 0 subtable" uhorn.sc
AlternateSubs2: "'aalt' Access All Alternates in Latin lookup 0 subtable" uhorn.sc
Substitution2: "'smcp' Lowercase to Small Capitals in Latin lookup 2 subtable" uhorn.sc
EndChar

StartChar: space_uni031B
Encoding: 300 -1 152
Width: 420
VWidth: 0
Flags: W
TeX: 554 0
HStem: 306 248
VStem: 325 95<465.047 554>
LayerCount: 2
Fore
SplineSet
251 361 m 1
 264 416 l 1
 296 442 325 484 325 554 c 1
 420 554 l 1
 420 423 338 342 264 306 c 1
 251 361 l 1
EndSplineSet
Validated: 1
EndChar

StartChar: aogonek
Encoding: 185 261 153
Width: 660
VWidth: 0
GlyphClass: 3
Flags: W
TeX: 554 -250
HStem: -250 106<523.033 613.556> -13 122<241.816 413.326> 445 122<244.324 409.507> 534 20G<493 615>
VStem: 30 134<187.087 359.104> 413 106<-141.382 -65.2256> 493 122<-6.92139 72 194.196 353.948 480 554>
AnchorPoint: "bot_acc" 514 -383 basechar 0
AnchorPoint: "dotbelow" 514 -383 basechar 0
AnchorPoint: "ogon_acc" 514 -383 basechar 0
AnchorPoint: "top_accl" 330 700 basechar 0
AnchorPoint: "dotabove" 330 700 basechar 0
LayerCount: 2
Fore
SplineSet
30 275 m 0xda
 30 444 148 567 312 567 c 0xea
 392 567 447 541 493 480 c 1
 493 554 l 1
 615 554 l 1
 615 0 l 1xda
 549 -21 519 -64 519 -91 c 0xdc
 519 -127 528 -144 557 -144 c 0
 569 -144 585 -144 615 -131 c 1
 615 -231 l 1xda
 583 -244 561 -250 539 -250 c 0
 470 -250 413 -202 413 -135 c 0xdc
 413 -87 447 -36 493 0 c 1
 493 72 l 1
 440 12 387 -13 309 -13 c 0
 147 -13 30 108 30 275 c 0xda
164 272 m 0
 164 175 231 109 328 109 c 0
 429 109 489 181 489 273 c 0
 489 374 421 445 326 445 c 0
 231 445 164 373 164 272 c 0
EndSplineSet
Validated: 1
AlternateSubs2: "'aalt' Access All Alternates lookup 0 subtable" aogonek.sc
AlternateSubs2: "'aalt' Access All Alternates in Latin lookup 0 subtable" aogonek.sc
Ligature2: "ccmp_lig subtable" a ogonekcomb
Substitution2: "'smcp' Lowercase to Small Capitals in Latin lookup 2 subtable" aogonek.sc
EndChar

StartChar: Aogonek
Encoding: 165 260 154
Width: 740
VWidth: 0
GlyphClass: 3
Flags: W
TeX: 739 -250
HStem: -250 106<641.033 731.556> 0 21G<7 166.586> 191 131<290 448> 719 20G<306.664 431.39>
VStem: 531 106<-141.382 -65.2256>
AnchorPoint: "bot_acc" 632 -383 basechar 0
AnchorPoint: "dotbelow" 632 -383 basechar 0
AnchorPoint: "ogon_acc" 632 -383 basechar 0
AnchorPoint: "top_accu" 369 875 basechar 0
AnchorPoint: "dotabove" 369 875 basechar 0
LayerCount: 2
Fore
SplineSet
7 0 m 1
 315 739 l 1
 423 739 l 1
 733 0 l 1
 667 -21 637 -64 637 -91 c 0
 637 -127 646 -144 675 -144 c 0
 687 -144 703 -144 733 -131 c 1
 733 -231 l 1
 701 -244 679 -250 657 -250 c 0
 588 -250 531 -202 531 -135 c 0
 531 -87 565 -36 611 0 c 1
 582 0 l 1
 503 191 l 1
 240 191 l 1
 158 0 l 1
 7 0 l 1
290 322 m 1
 448 322 l 1
 369 546 l 1
 290 322 l 1
EndSplineSet
Validated: 1
AlternateSubs2: "'aalt' Access All Alternates lookup 0 subtable" aogonek.sc
AlternateSubs2: "'aalt' Access All Alternates in Latin lookup 0 subtable" aogonek.sc
Ligature2: "ccmp_lig subtable" A ogonekcomb
Substitution2: "'c2sc' Capitals to Small Capitals in Latin lookup 13 subtable" aogonek.sc
Position2: "'cpsp' Capital Spacing in Latin lookup 13 subtable" dx=7 dy=0 dh=14 dv=0
EndChar

StartChar: Eogonek
Encoding: 202 280 155
Width: 520
VWidth: 0
GlyphClass: 3
Flags: W
TeX: 739 -250
HStem: -250 106<373.033 463.556> 0 131<205 343 419.914 465> 303 131<205 454> 608 131<205 465>
VStem: 68 397<0 131 608 739> 68 137<131 303 434 608> 263 106<-141.382 -65.2256>
AnchorPoint: "bot_acc" 364 -383 basechar 0
AnchorPoint: "dotbelow" 364 -383 basechar 0
AnchorPoint: "ogon_acc" 364 -383 basechar 0
AnchorPoint: "top_accu" 267 875 basechar 0
AnchorPoint: "dotabove" 267 875 basechar 0
LayerCount: 2
Fore
SplineSet
68 0 m 1xf8
 68 739 l 1
 465 739 l 1
 465 608 l 1xf8
 205 608 l 1
 205 434 l 1
 454 434 l 1
 454 303 l 1
 205 303 l 1
 205 131 l 1xf4
 465 131 l 1
 465 0 l 1xf8
 399 -21 369 -64 369 -91 c 0xf2
 369 -127 378 -144 407 -144 c 0
 419 -144 435 -144 465 -131 c 1
 465 -231 l 1xf8
 433 -244 411 -250 389 -250 c 0
 320 -250 263 -202 263 -135 c 0xf2
 263 -87 297 -36 343 0 c 1
 68 0 l 1xf8
EndSplineSet
Validated: 1
AlternateSubs2: "'aalt' Access All Alternates lookup 0 subtable" eogonek.sc
AlternateSubs2: "'aalt' Access All Alternates in Latin lookup 0 subtable" eogonek.sc
Ligature2: "ccmp_lig subtable" E ogonekcomb
Substitution2: "'c2sc' Capitals to Small Capitals in Latin lookup 13 subtable" eogonek.sc
Position2: "'cpsp' Capital Spacing in Latin lookup 13 subtable" dx=7 dy=0 dh=14 dv=0
EndChar

StartChar: eogonek
Encoding: 234 281 156
Width: 640
VWidth: 0
GlyphClass: 3
Flags: W
TeX: 554 -250
HStem: -250 106<384.033 474.556> -13 122<239.805 337.06> 218 117<174 477> 445 122<238.393 412.229>
VStem: 274 106<-141.382 -65.1672>
AnchorPoint: "bot_acc" 375 -383 basechar 0
AnchorPoint: "dotbelow" 375 -383 basechar 0
AnchorPoint: "ogon_acc" 375 -383 basechar 0
AnchorPoint: "top_accl" 322 700 basechar 0
AnchorPoint: "dotabove" 322 700 basechar 0
LayerCount: 2
Fore
SplineSet
30 275 m 0
 30 438 159 567 322 567 c 0
 487 567 608 441 608 269 c 0
 608 249 607 237 603 218 c 1
 174 218 l 1
 190 151 248 109 327 109 c 0
 382 109 415 124 449 164 c 1
 594 164 l 1
 574 101 530 54 476 24 c 0
 428 -2 380 -38 380 -91 c 0
 380 -127 389 -144 418 -144 c 0
 430 -144 446 -144 476 -131 c 1
 476 -231 l 1
 444 -244 422 -250 400 -250 c 0
 331 -250 274 -202 274 -135 c 0
 274 -92 301 -48 339 -13 c 1
 330 -13 l 2
 161 -13 30 113 30 275 c 0
170 335 m 1
 477 335 l 1
 460 406 406 445 324 445 c 0
 245 445 191 406 170 335 c 1
EndSplineSet
Validated: 1
AlternateSubs2: "'aalt' Access All Alternates lookup 0 subtable" eogonek.sc
AlternateSubs2: "'aalt' Access All Alternates in Latin lookup 0 subtable" eogonek.sc
Ligature2: "ccmp_lig subtable" e ogonekcomb
Substitution2: "'smcp' Lowercase to Small Capitals in Latin lookup 2 subtable" eogonek.sc
EndChar

StartChar: Iogonek
Encoding: 222 302 157
Width: 280
VWidth: 0
GlyphClass: 3
Flags: W
TeX: 739 -250
HStem: -250 106<113.033 203.556> 719 20G<68 205>
VStem: 3 106<-141.382 -65.2256> 68 137<0 739>
AnchorPoint: "bot_acc" 104 -383 basechar 0
AnchorPoint: "dotbelow" 104 -383 basechar 0
AnchorPoint: "ogon_acc" 104 -383 basechar 0
AnchorPoint: "top_accu" 137 875 basechar 0
AnchorPoint: "dotabove" 137 875 basechar 0
LayerCount: 2
Fore
SplineSet
3 -135 m 0xe0
 3 -87 37 -36 83 0 c 1
 68 0 l 1
 68 739 l 1
 205 739 l 1
 205 0 l 1xd0
 139 -21 109 -64 109 -91 c 0xe0
 109 -127 118 -144 147 -144 c 0
 159 -144 175 -144 205 -131 c 1
 205 -231 l 1xd0
 173 -244 151 -250 129 -250 c 0
 60 -250 3 -202 3 -135 c 0xe0
EndSplineSet
Validated: 1
AlternateSubs2: "'aalt' Access All Alternates lookup 0 subtable" iogonek.sc
AlternateSubs2: "'aalt' Access All Alternates in Latin lookup 0 subtable" iogonek.sc
Ligature2: "ccmp_lig subtable" I ogonekcomb
Substitution2: "'c2sc' Capitals to Small Capitals in Latin lookup 13 subtable" iogonek.sc
Position2: "'cpsp' Capital Spacing in Latin lookup 13 subtable" dx=7 dy=0 dh=14 dv=0
EndChar

StartChar: dotlessiogonek
Encoding: 301 -1 158
Width: 240
VWidth: 0
GlyphClass: 3
Flags: W
TeX: 554 -204
HStem: -250 106<95.0335 185.556> 534 20G<54 187>
VStem: -15 106<-141.382 -65.2256> 54 133<0 554>
AnchorPoint: "bot_acc" 86 -383 basechar 0
AnchorPoint: "dotbelow" 86 -383 basechar 0
AnchorPoint: "ogon_acc" 86 -383 basechar 0
AnchorPoint: "top_accl" 121 700 basechar 0
AnchorPoint: "dotabove" 121 700 basechar 0
LayerCount: 2
Fore
SplineSet
-15 -135 m 0xe0
 -15 -87 19 -36 65 0 c 1
 54 0 l 1
 54 554 l 1
 187 554 l 1
 187 0 l 1xd0
 121 -21 91 -64 91 -91 c 0xe0
 91 -127 100 -144 129 -144 c 0
 141 -144 157 -144 187 -131 c 1
 187 -231 l 1xd0
 155 -244 133 -250 111 -250 c 0
 42 -250 -15 -202 -15 -135 c 0xe0
EndSplineSet
Validated: 1
Ligature2: "ccmp_lig subtable" dotlessi ogonekcomb
EndChar

StartChar: Oogonek
Encoding: 302 490 159
Width: 840
VWidth: 0
GlyphClass: 3
Flags: W
TeX: 739 -250
HStem: -250 106<478.033 568.556> -13 132<321.062 433> 620 132<317.211 517.362>
VStem: 30 138<269.071 470.194> 368 106<-141.382 -65.341> 662 138<262.738 473.754>
AnchorPoint: "bot_acc" 469 -383 basechar 0
AnchorPoint: "dotbelow" 469 -383 basechar 0
AnchorPoint: "ogon_acc" 469 -383 basechar 0
AnchorPoint: "top_accu" 415 875 basechar 0
AnchorPoint: "dotabove" 415 875 basechar 0
LayerCount: 2
Fore
SplineSet
30 369 m 0
 30 585 200 752 420 752 c 0
 631 752 800 581 800 370 c 0
 800 219 719 92 596 29 c 0
 540 0 474 -34 474 -91 c 0
 474 -127 483 -144 512 -144 c 0
 524 -144 540 -144 570 -131 c 1
 570 -231 l 1
 538 -244 516 -250 494 -250 c 0
 425 -250 368 -202 368 -135 c 0
 368 -92 395 -47 433 -13 c 1
 419 -13 l 2
 202 -13 30 156 30 369 c 0
168 369 m 0
 168 229 278 119 418 119 c 0
 558 119 662 226 662 368 c 0
 662 510 555 620 418 620 c 0
 276 620 168 512 168 369 c 0
EndSplineSet
Validated: 1
AlternateSubs2: "'aalt' Access All Alternates lookup 0 subtable" oogonek.sc
AlternateSubs2: "'aalt' Access All Alternates in Latin lookup 0 subtable" oogonek.sc
Ligature2: "ccmp_lig subtable" O ogonekcomb
Substitution2: "'c2sc' Capitals to Small Capitals in Latin lookup 13 subtable" oogonek.sc
Position2: "'cpsp' Capital Spacing in Latin lookup 13 subtable" dx=7 dy=0 dh=14 dv=0
EndChar

StartChar: oogonek
Encoding: 303 491 160
Width: 640
VWidth: 0
GlyphClass: 3
Flags: W
TeX: 554 -250
HStem: -250 106<382.033 472.556> -13 122<250.649 333.201> 445 122<249.194 399.465>
VStem: 30 134<195.777 358.653> 272 106<-141.382 -65.4751> 485 134<194.238 360.839>
AnchorPoint: "bot_acc" 373 -383 basechar 0
AnchorPoint: "dotbelow" 373 -383 basechar 0
AnchorPoint: "ogon_acc" 373 -383 basechar 0
AnchorPoint: "top_accl" 325 700 basechar 0
AnchorPoint: "dotabove" 325 700 basechar 0
LayerCount: 2
Fore
SplineSet
30 277 m 0
 30 436 162 567 323 567 c 0
 490 567 619 438 619 273 c 0
 619 172 562 81 479 30 c 0
 430 1 378 -35 378 -91 c 0
 378 -127 387 -144 416 -144 c 0
 428 -144 444 -144 474 -131 c 1
 474 -231 l 1
 442 -244 420 -250 398 -250 c 0
 329 -250 272 -202 272 -135 c 0
 272 -92 299 -47 337 -13 c 1
 324 -13 l 2
 162 -13 30 117 30 277 c 0
164 279 m 0
 164 184 235 109 325 109 c 0
 413 109 485 184 485 277 c 0
 485 369 413 445 324 445 c 0
 237 445 164 370 164 279 c 0
EndSplineSet
Validated: 1
AlternateSubs2: "'aalt' Access All Alternates lookup 0 subtable" oogonek.sc
AlternateSubs2: "'aalt' Access All Alternates in Latin lookup 0 subtable" oogonek.sc
Ligature2: "ccmp_lig subtable" o ogonekcomb
Substitution2: "'smcp' Lowercase to Small Capitals in Latin lookup 2 subtable" oogonek.sc
EndChar

StartChar: Uogonek
Encoding: 168 370 161
Width: 640
VWidth: 0
GlyphClass: 3
Flags: W
TeX: 739 -250
HStem: -250 106<370.033 460.556> -13 132<247.128 321.17> 719 20G<68 205 430 567>
VStem: 68 137<167.859 739> 260 106<-141.382 -64.9616> 430 137<166.248 739>
AnchorPoint: "bot_acc" 361 -383 basechar 0
AnchorPoint: "dotbelow" 361 -383 basechar 0
AnchorPoint: "ogon_acc" 361 -383 basechar 0
AnchorPoint: "top_accu" 318 875 basechar 0
AnchorPoint: "dotabove" 318 875 basechar 0
LayerCount: 2
Fore
SplineSet
68 271 m 2
 68 739 l 1
 205 739 l 1
 205 271 l 2
 205 156 248 119 318 119 c 0
 386 119 430 155 430 271 c 2
 430 739 l 1
 567 739 l 1
 567 271 l 2
 567 158 530 78 468 33 c 0
 422 -2 366 -43 366 -91 c 0
 366 -127 375 -144 404 -144 c 0
 416 -144 432 -144 462 -131 c 1
 462 -231 l 1
 430 -244 408 -250 386 -250 c 0
 317 -250 260 -202 260 -135 c 0
 260 -92 286 -48 324 -13 c 1
 317 -13 l 2
 172 -13 68 83 68 271 c 2
EndSplineSet
Validated: 1
AlternateSubs2: "'aalt' Access All Alternates lookup 0 subtable" uogonek.sc
AlternateSubs2: "'aalt' Access All Alternates in Latin lookup 0 subtable" uogonek.sc
Ligature2: "ccmp_lig subtable" U ogonekcomb
Substitution2: "'c2sc' Capitals to Small Capitals in Latin lookup 13 subtable" uogonek.sc
Position2: "'cpsp' Capital Spacing in Latin lookup 13 subtable" dx=7 dy=0 dh=14 dv=0
EndChar

StartChar: uogonek
Encoding: 184 371 162
Width: 600
VWidth: 0
GlyphClass: 3
Flags: W
TeX: 554 -250
HStem: -250 106<455.033 545.556> -13 122<224.518 365.187> 534 20G<54 187 414 547>
VStem: 54 133<154.043 554> 345 106<-141.382 -65.2256> 414 133<158.51 554> 425 122<-6.92139 53>
AnchorPoint: "bot_acc" 446 -383 basechar 0
AnchorPoint: "dotbelow" 446 -383 basechar 0
AnchorPoint: "ogon_acc" 446 -383 basechar 0
AnchorPoint: "top_accl" 301 700 basechar 0
AnchorPoint: "dotabove" 301 700 basechar 0
LayerCount: 2
Fore
SplineSet
54 257 m 2xf2
 54 554 l 1
 187 554 l 1
 187 283 l 2
 187 136 228 109 292 109 c 0
 337 109 373 128 393 160 c 0
 408 185 414 219 414 293 c 2
 414 554 l 1
 547 554 l 1xf4
 547 0 l 1xf2
 481 -21 451 -64 451 -91 c 0xf8
 451 -127 460 -144 489 -144 c 0
 501 -144 517 -144 547 -131 c 1
 547 -231 l 1xf2
 515 -244 493 -250 471 -250 c 0
 402 -250 345 -202 345 -135 c 0xf8
 345 -87 379 -36 425 0 c 1
 424 53 l 1
 374 4 332 -13 265 -13 c 0
 136 -13 54 62 54 257 c 2xf2
EndSplineSet
Validated: 1
AlternateSubs2: "'aalt' Access All Alternates lookup 0 subtable" uogonek.sc
AlternateSubs2: "'aalt' Access All Alternates in Latin lookup 0 subtable" uogonek.sc
Ligature2: "ccmp_lig subtable" u ogonekcomb
Substitution2: "'smcp' Lowercase to Small Capitals in Latin lookup 2 subtable" uogonek.sc
EndChar

StartChar: Ccedilla
Encoding: 199 199 163
Width: 780
VWidth: 0
GlyphClass: 3
Flags: W
TeX: 739 -250
HStem: -256 64<396.861 469.761> -13 132<319.875 405> 620 132<312.525 520.103>
VStem: 30 138<271.079 474.916> 475 64<-186.62 -114.093>
AnchorPoint: "bot_acc" 408 -389 basechar 0
AnchorPoint: "dotbelow" 408 -389 basechar 0
AnchorPoint: "ogon_acc" 408 -389 basechar 0
AnchorPoint: "top_accu" 395 875 basechar 0
AnchorPoint: "dotabove" 395 875 basechar 0
LayerCount: 2
Fore
SplineSet
30 372 m 0
 30 581 201 752 410 752 c 0
 562 752 695 670 760 527 c 1
 607 527 l 1
 557 592 499 620 413 620 c 0
 272 620 168 510 168 371 c 0
 168 233 280 119 416 119 c 0
 487 119 539 143 599 206 c 1
 760 206 l 1
 709 88 603 10 476 -9 c 1
 449 -46 l 1
 500 -53 539 -97 539 -150 c 0
 539 -209 492 -256 433 -256 c 0
 380 -256 335 -217 328 -165 c 1
 394 -165 l 1
 400 -181 415 -192 433 -192 c 0
 456 -192 475 -174 475 -150 c 0
 475 -127 456 -108 433 -108 c 0
 419 -108 407 -115 399 -125 c 1
 349 -87 l 1
 405 -13 l 1
 196 -6 30 164 30 372 c 0
EndSplineSet
Validated: 1
AlternateSubs2: "'aalt' Access All Alternates lookup 0 subtable" ccedilla.sc
AlternateSubs2: "'aalt' Access All Alternates in Latin lookup 0 subtable" ccedilla.sc
Ligature2: "ccmp_lig subtable" C cedillacmb
Substitution2: "'c2sc' Capitals to Small Capitals in Latin lookup 13 subtable" ccedilla.sc
Position2: "'cpsp' Capital Spacing in Latin lookup 13 subtable" dx=7 dy=0 dh=14 dv=0
EndChar

StartChar: ccedilla
Encoding: 231 231 164
Width: 640
VWidth: 0
GlyphClass: 3
Flags: W
TeX: 554 -250
HStem: -256 64<306.861 379.761> -13 122<243.492 315> 445 122<241.172 402.346>
VStem: 30 134<192.351 365.502> 385 64<-186.62 -114.093>
AnchorPoint: "bot_acc" 318 -389 basechar 0
AnchorPoint: "dotbelow" 318 -389 basechar 0
AnchorPoint: "ogon_acc" 318 -389 basechar 0
AnchorPoint: "top_accl" 316 700 basechar 0
AnchorPoint: "dotabove" 316 700 basechar 0
LayerCount: 2
Fore
SplineSet
30 277 m 0
 30 440 158 567 322 567 c 0
 448 567 558 496 601 369 c 1
 451 369 l 1
 424 420 382 445 322 445 c 0
 230 445 164 375 164 278 c 0
 164 181 233 109 325 109 c 0
 380 109 418 131 451 182 c 1
 601 182 l 1
 563 79 487 12 388 -7 c 1
 359 -46 l 1
 410 -53 449 -97 449 -150 c 0
 449 -209 402 -256 343 -256 c 0
 290 -256 245 -217 238 -165 c 1
 304 -165 l 1
 310 -181 325 -192 343 -192 c 0
 366 -192 385 -174 385 -150 c 0
 385 -127 366 -108 343 -108 c 0
 329 -108 317 -115 309 -125 c 1
 259 -87 l 1
 315 -13 l 1
 156 -7 30 120 30 277 c 0
EndSplineSet
Validated: 1
AlternateSubs2: "'aalt' Access All Alternates lookup 0 subtable" ccedilla.sc
AlternateSubs2: "'aalt' Access All Alternates in Latin lookup 0 subtable" ccedilla.sc
Ligature2: "ccmp_lig subtable" c cedillacmb
Substitution2: "'smcp' Lowercase to Small Capitals in Latin lookup 2 subtable" ccedilla.sc
EndChar

StartChar: Scedilla
Encoding: 304 350 165
Width: 520
VWidth: 0
GlyphClass: 3
Flags: W
TeX: 739 -250
HStem: -256 64<226.861 299.761> 620 132<201.153 310.312>
VStem: 41 138<494.89 599.425> 305 64<-186.62 -114.093> 357 136<150.77 270.383>
AnchorPoint: "bot_acc" 238 -389 basechar 0
AnchorPoint: "dotbelow" 238 -389 basechar 0
AnchorPoint: "ogon_acc" 238 -389 basechar 0
AnchorPoint: "top_accu" 254 875 basechar 0
AnchorPoint: "dotabove" 254 875 basechar 0
LayerCount: 2
Fore
SplineSet
14 211 m 1xf0
 157 211 l 1
 163 149 196 119 257 119 c 0
 316 119 357 156 357 209 c 0
 357 239 345 267 323 284 c 0
 301 301 293 304 195 341 c 0
 96 378 41 449 41 542 c 0
 41 659 137 752 256 752 c 0
 375 752 468 672 475 542 c 1
 333 542 l 1
 329 592 301 620 255 620 c 0
 210 620 179 589 179 545 c 0
 179 518 193 495 220 478 c 0
 230 472 232 471 302 445 c 0
 452 389 493 324 493 224 c 0xe8
 493 107 415 14 307 -8 c 1
 279 -46 l 1
 330 -53 369 -97 369 -150 c 0
 369 -209 322 -256 263 -256 c 0
 210 -256 165 -217 158 -165 c 1
 224 -165 l 1
 230 -181 245 -192 263 -192 c 0
 286 -192 305 -174 305 -150 c 0
 305 -127 286 -108 263 -108 c 0
 249 -108 237 -115 229 -125 c 1
 179 -87 l 1
 236 -12 l 1
 116 -4 25 79 14 211 c 1xf0
EndSplineSet
Validated: 1
AlternateSubs2: "'aalt' Access All Alternates lookup 0 subtable" scedilla.sc
AlternateSubs2: "'aalt' Access All Alternates in Latin lookup 0 subtable" scedilla.sc uni0218
Ligature2: "ccmp_lig subtable" S cedillacmb
Substitution2: "'c2sc' Capitals to Small Capitals in Latin lookup 13 subtable" scedilla.sc
Position2: "'cpsp' Capital Spacing in Latin lookup 13 subtable" dx=7 dy=0 dh=14 dv=0
Substitution2: "locl_ROM subtable" uni0218
EndChar

StartChar: scedilla
Encoding: 305 351 166
Width: 440
VWidth: 0
GlyphClass: 3
Flags: W
TeX: 554 -250
HStem: -256 64<171.861 244.761> 445 122<180.422 266.268>
VStem: 39 133<364.714 436.652> 250 64<-186.62 -114.093> 287 133<122.351 203.233>
AnchorPoint: "bot_acc" 183 -389 basechar 0
AnchorPoint: "dotbelow" 183 -389 basechar 0
AnchorPoint: "ogon_acc" 183 -389 basechar 0
AnchorPoint: "top_accl" 220 700 basechar 0
AnchorPoint: "dotabove" 220 700 basechar 0
LayerCount: 2
Fore
SplineSet
19 176 m 1xf0
 153 176 l 1
 166 129 188 109 227 109 c 0
 261 109 287 132 287 163 c 0
 287 195 282 204 193 234 c 0
 83 271 39 317 39 398 c 0
 39 493 120 567 223 567 c 0
 317 567 400 505 405 401 c 1
 275 401 l 1
 269 430 251 445 223 445 c 0
 194 445 172 425 172 398 c 0
 172 369 175 367 266 338 c 0
 382 302 420 258 420 176 c 0xe8
 420 79 347 1 250 -11 c 1
 224 -46 l 1
 275 -53 314 -97 314 -150 c 0
 314 -209 267 -256 208 -256 c 0
 155 -256 110 -217 103 -165 c 1
 169 -165 l 1
 175 -181 190 -192 208 -192 c 0
 231 -192 250 -174 250 -150 c 0
 250 -127 231 -108 208 -108 c 0
 194 -108 182 -115 174 -125 c 1
 124 -87 l 1
 182 -10 l 1
 93 3 31 63 19 176 c 1xf0
EndSplineSet
Validated: 1
AlternateSubs2: "'aalt' Access All Alternates lookup 0 subtable" scedilla.sc
AlternateSubs2: "'aalt' Access All Alternates in Latin lookup 0 subtable" scedilla.sc uni0219
Ligature2: "ccmp_lig subtable" s cedillacmb
Substitution2: "'smcp' Lowercase to Small Capitals in Latin lookup 2 subtable" scedilla.sc
Substitution2: "locl_ROM subtable" uni0219
EndChar

StartChar: Tcedilla
Encoding: 306 354 167
Width: 420
VWidth: 0
GlyphClass: 3
Flags: W
TeX: 739 -250
HStem: -256 64<176.861 249.761> 608 131<7 144 281 418>
VStem: 144 137<0 608> 255 64<-186.62 -114.093>
AnchorPoint: "bot_acc" 188 -389 basechar 0
AnchorPoint: "dotbelow" 188 -389 basechar 0
AnchorPoint: "ogon_acc" 188 -389 basechar 0
AnchorPoint: "top_accu" 213 875 basechar 0
AnchorPoint: "dotabove" 213 875 basechar 0
LayerCount: 2
Fore
SplineSet
7 608 m 1xe0
 7 739 l 1
 418 739 l 1
 418 608 l 1
 281 608 l 1
 281 0 l 1xe0
 263 0 l 1
 229 -46 l 1
 280 -53 319 -97 319 -150 c 0
 319 -209 272 -256 213 -256 c 0
 160 -256 115 -217 108 -165 c 1
 174 -165 l 1
 180 -181 195 -192 213 -192 c 0
 236 -192 255 -174 255 -150 c 0xd0
 255 -127 236 -108 213 -108 c 0
 199 -108 187 -115 179 -125 c 1
 129 -87 l 1
 195 0 l 1
 144 0 l 1
 144 608 l 1
 7 608 l 1xe0
EndSplineSet
Validated: 1
AlternateSubs2: "'aalt' Access All Alternates lookup 0 subtable" tcedilla.sc
AlternateSubs2: "'aalt' Access All Alternates in Latin lookup 0 subtable" tcedilla.sc uni021A
Ligature2: "ccmp_lig subtable" T cedillacmb
Substitution2: "'c2sc' Capitals to Small Capitals in Latin lookup 13 subtable" tcedilla.sc
Position2: "'cpsp' Capital Spacing in Latin lookup 13 subtable" dx=7 dy=0 dh=14 dv=0
Substitution2: "locl_ROM subtable" uni021A
EndChar

StartChar: tcedilla
Encoding: 307 355 168
Width: 300
VWidth: 0
GlyphClass: 3
Flags: W
TeX: 739 -250
HStem: -256 64<106.861 179.761> 433 121<9 74 207 287> 719 20G<74 207>
VStem: 74 133<0 433 554 739> 185 64<-186.62 -114.093>
AnchorPoint: "bot_acc" 118 -389 basechar 0
AnchorPoint: "dotbelow" 118 -389 basechar 0
AnchorPoint: "ogon_acc" 118 -389 basechar 0
AnchorPoint: "top_accl" 141 885 basechar 0
AnchorPoint: "dotabove" 141 885 basechar 0
AnchorPoint: "ccmped" 338 716 basechar 0
LayerCount: 2
Fore
SplineSet
9 433 m 1xf0
 9 554 l 1
 74 554 l 1
 74 739 l 1
 207 739 l 1
 207 554 l 1
 287 554 l 1
 287 433 l 1
 207 433 l 1
 207 0 l 1xf0
 193 0 l 1
 159 -46 l 1
 210 -53 249 -97 249 -150 c 0
 249 -209 202 -256 143 -256 c 0
 90 -256 45 -217 38 -165 c 1
 104 -165 l 1
 110 -181 125 -192 143 -192 c 0
 166 -192 185 -174 185 -150 c 0xe8
 185 -127 166 -108 143 -108 c 0
 129 -108 117 -115 109 -125 c 1
 59 -87 l 1
 125 0 l 1
 74 0 l 1
 74 433 l 1
 9 433 l 1xf0
EndSplineSet
Validated: 1
AlternateSubs2: "'aalt' Access All Alternates lookup 0 subtable" tcedilla.sc
AlternateSubs2: "'aalt' Access All Alternates in Latin lookup 0 subtable" tcedilla.sc uni021B
Ligature2: "ccmp_lig subtable" t cedillacmb
Substitution2: "'smcp' Lowercase to Small Capitals in Latin lookup 2 subtable" tcedilla.sc
Substitution2: "locl_ROM subtable" uni021B
EndChar

StartChar: dcroat
Encoding: 308 273 169
Width: 660
VWidth: 0
Flags: W
TeX: 739 -13
HStem: -13 122<250.25 406.798> 0 21G<491 613> 452 122<247.975 406.626> 602 87<354 480 613 660> 719 20G<480 613>
VStem: 30 134<196.733 367.561> 480 133<504 602 689 739> 491 122<0 72 197.8 363.318>
LayerCount: 2
Fore
SplineSet
30 278 m 0xbd
 30 444 152 574 308 574 c 0
 377 574 441 548 480 504 c 1
 480 602 l 1
 354 602 l 1
 354 689 l 1
 480 689 l 1
 480 739 l 1
 613 739 l 1
 613 689 l 1
 660 689 l 1
 660 602 l 1
 613 602 l 1xbe
 613 0 l 1
 491 0 l 1x7d
 491 72 l 1
 437 12 383 -13 308 -13 c 0
 151 -13 30 114 30 278 c 0xbd
164 284 m 0
 164 186 236 109 329 109 c 0
 419 109 490 184 490 280 c 0
 490 378 419 452 326 452 c 0
 235 452 164 378 164 284 c 0
EndSplineSet
Validated: 1
AlternateSubs2: "'aalt' Access All Alternates lookup 0 subtable" dcroat.sc
AlternateSubs2: "'aalt' Access All Alternates in Latin lookup 0 subtable" dcroat.sc
Substitution2: "'smcp' Lowercase to Small Capitals in Latin lookup 2 subtable" dcroat.sc
EndChar

StartChar: uni203D
Encoding: 309 8253 170
Width: 560
VWidth: 0
Flags: W
TeX: 839 0
HStem: 0 128<185 318>
VStem: 185 133<0 128 187 298.1 452 583 739.595 839> 352 133<467.178 587.231>
LayerCount: 2
Fore
SplineSet
32 520 m 1
 41 641 102 714 185 741 c 1
 185 839 l 1
 318 839 l 1
 318 745 l 1
 416 720 485 633 485 523 c 0
 485 456 460 411 383 344 c 0
 328 296 319 274 318 187 c 1
 185 187 l 1
 185 205 l 1
 185 583 l 1
 175 567 168 546 165 520 c 1
 32 520 l 1
185 0 m 1
 185 128 l 1
 318 128 l 1
 318 0 l 1
 185 0 l 1
318 452 m 1
 340 475 352 501 352 527 c 0
 352 557 339 583 318 600 c 1
 318 452 l 1
EndSplineSet
Validated: 1
EndChar

StartChar: paragraph.alt
Encoding: 310 -1 171
Width: 426
VWidth: 0
Flags: W
TeX: 739 -128
HStem: 719 20G<212 342>
VStem: 37 305<437.924 634.808> 241 101<-128 330>
LayerCount: 2
Fore
SplineSet
37 533 m 0xc0
 37 665 115 739 309 739 c 2
 342 739 l 1
 342 -128 l 1
 241 -128 l 1
 241 330 l 1xa0
 119 332 37 414 37 533 c 0xc0
EndSplineSet
Validated: 1
EndChar

StartChar: zero.taboldstyle
Encoding: 311 -1 172
Width: 560
VWidth: 0
Flags: W
TeX: 571 -13
HStem: -13 122<195.5 366.003> 449 122<192.397 363.378>
VStem: 30 133<140.253 419.056> 392 133<140.253 418.294>
LayerCount: 2
Fore
SplineSet
30 217 m 2
 30 347 l 2
 30 503 126 571 278 571 c 0
 428 571 525 504 525 354 c 2
 525 217 l 2
 525 51 429 -13 284 -13 c 0
 132 -13 30 51 30 217 c 2
163 221 m 2
 163 129 204 109 280 109 c 0
 351 109 392 123 392 218 c 2
 392 347 l 2
 392 432 351 449 279 449 c 0
 207 449 163 429 163 347 c 2
 163 221 l 2
EndSplineSet
Validated: 1
AlternateSubs2: "'aalt' Access All Alternates lookup 0 subtable" zero.oldstyle zero
AlternateSubs2: "'aalt' Access All Alternates in Latin lookup 0 subtable" zero.oldstyle zero
Substitution2: "'pnum' Proportional Numbers in Latin lookup 5 subtable" zero.oldstyle
Substitution2: "'lnum' Lining Figures in Latin lookup 4 subtable" zero
EndChar

StartChar: one.taboldstyle
Encoding: 312 -1 173
Width: 560
VWidth: 0
Flags: W
TeX: 554 0
HStem: 0 21G<246 379> 429 125<153 246>
VStem: 246 133<0 429>
LayerCount: 2
Fore
SplineSet
153 429 m 1
 153 554 l 1
 379 554 l 1
 379 0 l 1
 246 0 l 1
 246 429 l 1
 153 429 l 1
EndSplineSet
Validated: 1
AlternateSubs2: "'aalt' Access All Alternates lookup 0 subtable" one.oldstyle one
AlternateSubs2: "'aalt' Access All Alternates in Latin lookup 0 subtable" one.oldstyle one
Substitution2: "'pnum' Proportional Numbers in Latin lookup 5 subtable" one.oldstyle
Substitution2: "'lnum' Lining Figures in Latin lookup 4 subtable" one
EndChar

StartChar: two.taboldstyle
Encoding: 313 -1 174
Width: 560
VWidth: 0
Flags: W
TeX: 573 0
HStem: 0 125<246 517> 451 122<185.547 369.796>
VStem: 34 131<360 430.663> 387 133<314.768 431.771>
LayerCount: 2
Fore
SplineSet
34 360 m 1
 34 530 137 573 279 573 c 0
 416 573 520 524 520 388 c 0
 520 270 441 219 377 188 c 2
 246 125 l 1
 517 125 l 1
 517 0 l 1
 39 0 l 1
 39 117 l 1
 302 267 l 2
 371 307 387 332 387 380 c 0
 387 446 341 451 280 451 c 0
 211 451 165 448 165 360 c 1
 34 360 l 1
EndSplineSet
Validated: 1
AlternateSubs2: "'aalt' Access All Alternates lookup 0 subtable" two.oldstyle two
AlternateSubs2: "'aalt' Access All Alternates in Latin lookup 0 subtable" two.oldstyle two
Substitution2: "'pnum' Proportional Numbers in Latin lookup 5 subtable" two.oldstyle
Substitution2: "'lnum' Lining Figures in Latin lookup 4 subtable" two
EndChar

StartChar: four.taboldstyle
Encoding: 314 -1 175
Width: 560
VWidth: 0
Flags: W
TeX: 554 -111
HStem: 0 119<135 319 452 530> 534 20G<324.753 452>
VStem: 319 133<-111 0 119 357>
LayerCount: 2
Fore
SplineSet
0 0 m 1
 0 108 l 1
 340 554 l 1
 452 554 l 1
 452 119 l 1
 530 119 l 1
 530 0 l 1
 452 0 l 1
 452 -111 l 1
 319 -111 l 1
 319 0 l 1
 0 0 l 1
135 119 m 1
 319 119 l 1
 319 357 l 1
 135 119 l 1
EndSplineSet
Validated: 1
AlternateSubs2: "'aalt' Access All Alternates lookup 0 subtable" four.oldstyle four
AlternateSubs2: "'aalt' Access All Alternates in Latin lookup 0 subtable" four.oldstyle four
Substitution2: "'pnum' Proportional Numbers in Latin lookup 5 subtable" four.oldstyle
Substitution2: "'lnum' Lining Figures in Latin lookup 4 subtable" four
EndChar

StartChar: three.taboldstyle
Encoding: 315 -1 176
Width: 560
VWidth: 0
Flags: W
TeX: 571 -194
HStem: -194 122<200.595 335.71> 175 128<218 308.157> 449 122<222.05 313.516>
VStem: 15 134<-18.9359 43> 332 133<326 432.708> 385 133<-21.7633 121.335>
LayerCount: 2
Fore
SplineSet
15 43 m 1xf4
 149 43 l 1
 158 -27 205 -72 269 -72 c 0
 336 -72 385 -20 385 51 c 0xf4
 385 126 328 175 240 175 c 2
 218 175 l 1
 218 303 l 1
 302 305 332 328 332 379 c 0
 332 420 305 449 267 449 c 0
 231 449 211 428 205 382 c 1
 70 382 l 1
 80 507 163 571 266 571 c 0
 380 571 465 486 465 372 c 0xf8
 465 315 446 276 403 245 c 1
 479 211 518 147 518 54 c 0
 518 -89 413 -194 270 -194 c 0
 128 -194 23 -96 15 43 c 1xf4
EndSplineSet
Validated: 1
AlternateSubs2: "'aalt' Access All Alternates lookup 0 subtable" three.oldstyle three
AlternateSubs2: "'aalt' Access All Alternates in Latin lookup 0 subtable" three.oldstyle three
Substitution2: "'pnum' Proportional Numbers in Latin lookup 5 subtable" three.oldstyle
Substitution2: "'lnum' Lining Figures in Latin lookup 4 subtable" three
EndChar

StartChar: five.taboldstyle
Encoding: 316 -1 177
Width: 560
VWidth: 0
Flags: W
TeX: 554 -198
HStem: -198 122<196.563 334.216> 192 122<198.239 334.833> 429 125<215 449>
VStem: 387 133<-18.9042 135.187>
LayerCount: 2
Fore
SplineSet
12 36 m 1
 145 36 l 1
 158 -36 201 -76 265 -76 c 0
 337 -76 387 -20 387 60 c 0
 387 135 335 192 267 192 c 0
 225 192 197 177 164 136 c 1
 46 168 l 1
 115 554 l 1
 449 554 l 1
 449 429 l 1
 215 429 l 1
 191 293 l 1
 229 309 252 314 286 314 c 0
 421 314 520 207 520 62 c 0
 520 -86 412 -198 269 -198 c 0
 138 -198 19 -100 12 36 c 1
EndSplineSet
Validated: 1
AlternateSubs2: "'aalt' Access All Alternates lookup 0 subtable" five.oldstyle five
AlternateSubs2: "'aalt' Access All Alternates in Latin lookup 0 subtable" five.oldstyle five
Substitution2: "'pnum' Proportional Numbers in Latin lookup 5 subtable" five.oldstyle
Substitution2: "'lnum' Lining Figures in Latin lookup 4 subtable" five
EndChar

StartChar: six.taboldstyle
Encoding: 317 -1 178
Width: 560
VWidth: 0
Flags: W
TeX: 739 -13
HStem: -13 122<207.521 347.413> 370 116<270.625 346.37> 719 20G<273.69 446>
VStem: 21 133<164.36 317.448> 400 133<162.765 314.414>
LayerCount: 2
Fore
SplineSet
21 242 m 0
 21 313 41 369 94 449 c 2
 287 739 l 1
 446 739 l 1
 269 476 l 1
 293 484 306 486 329 486 c 0
 447 486 533 387 533 252 c 0
 533 98 427 -13 280 -13 c 0
 131 -13 21 96 21 242 c 0
154 239 m 0
 154 163 207 109 280 109 c 0
 351 109 400 162 400 239 c 0
 400 315 348 370 278 370 c 0
 204 370 154 317 154 239 c 0
EndSplineSet
Validated: 1
AlternateSubs2: "'aalt' Access All Alternates lookup 0 subtable" six.oldstyle six
AlternateSubs2: "'aalt' Access All Alternates in Latin lookup 0 subtable" six.oldstyle six
Substitution2: "'pnum' Proportional Numbers in Latin lookup 5 subtable" six.oldstyle
Substitution2: "'lnum' Lining Figures in Latin lookup 4 subtable" six
EndChar

StartChar: seven.taboldstyle
Encoding: 318 -1 179
Width: 560
VWidth: 0
Flags: W
TeX: 554 -185
HStem: -185 21G<80 238.795> 429 125<65 360>
LayerCount: 2
Fore
SplineSet
65 429 m 1
 65 554 l 1
 500 554 l 1
 500 429 l 1
 230 -185 l 1
 80 -185 l 1
 360 429 l 1
 65 429 l 1
EndSplineSet
Validated: 1
AlternateSubs2: "'aalt' Access All Alternates lookup 0 subtable" seven.oldstyle seven
AlternateSubs2: "'aalt' Access All Alternates in Latin lookup 0 subtable" seven.oldstyle seven
Substitution2: "'pnum' Proportional Numbers in Latin lookup 5 subtable" seven.oldstyle
Substitution2: "'lnum' Lining Figures in Latin lookup 4 subtable" seven
EndChar

StartChar: eight.taboldstyle
Encoding: 319 -1 180
Width: 560
VWidth: 0
Flags: W
TeX: 739 -13
HStem: -13 122<213.594 342.395> 341 128<228.93 329.261> 630 122<227.138 331.035>
VStem: 31 133<157.453 292.795> 76 127<494.2 605.13> 354 127<493.565 604.72> 390 133<156.083 292.066>
LayerCount: 2
Fore
SplineSet
31 231 m 0xf2
 31 309 60 368 137 411 c 1
 91 460 76 495 76 549 c 0
 76 662 166 752 279 752 c 0
 395 752 481 666 481 551 c 0xec
 481 489 461 445 419 411 c 1
 492 367 523 315 523 232 c 0
 523 92 418 -13 278 -13 c 0
 139 -13 31 93 31 231 c 0xf2
164 226 m 0xf2
 164 160 214 109 279 109 c 0
 342 109 390 159 390 225 c 0
 390 289 340 341 279 341 c 0
 215 341 164 291 164 226 c 0xf2
203 549 m 0xec
 203 505 237 469 279 469 c 0
 320 469 354 505 354 550 c 0
 354 595 321 630 280 630 c 0
 236 630 203 595 203 549 c 0xec
EndSplineSet
Validated: 1
AlternateSubs2: "'aalt' Access All Alternates lookup 0 subtable" eight.oldstyle eight
AlternateSubs2: "'aalt' Access All Alternates in Latin lookup 0 subtable" eight.oldstyle eight
Substitution2: "'pnum' Proportional Numbers in Latin lookup 5 subtable" eight.oldstyle
Substitution2: "'lnum' Lining Figures in Latin lookup 4 subtable" eight
EndChar

StartChar: nine.taboldstyle
Encoding: 320 -1 181
Width: 560
VWidth: 0
Flags: W
TeX: 571 -181
HStem: 70 118<207.983 283.329> 449 122<206.356 345.479>
VStem: 22 133<243.688 395.018> 399 133<241.822 393.371>
LayerCount: 2
Fore
SplineSet
22 306 m 0
 22 460 127 571 273 571 c 0
 422 571 532 462 532 315 c 0
 532 244 512 188 459 109 c 2
 266 -181 l 1
 107 -181 l 1
 285 82 l 1
 261 73 247 70 225 70 c 0
 110 70 22 172 22 306 c 0
155 319 m 0
 155 243 206 188 276 188 c 0
 349 188 399 242 399 319 c 0
 399 395 346 449 273 449 c 0
 203 449 155 395 155 319 c 0
EndSplineSet
Validated: 1
AlternateSubs2: "'aalt' Access All Alternates lookup 0 subtable" nine.oldstyle nine
AlternateSubs2: "'aalt' Access All Alternates in Latin lookup 0 subtable" nine.oldstyle nine
Substitution2: "'pnum' Proportional Numbers in Latin lookup 5 subtable" nine.oldstyle
Substitution2: "'lnum' Lining Figures in Latin lookup 4 subtable" nine
EndChar

StartChar: Eng
Encoding: 321 330 182
Width: 740
VWidth: 0
Flags: W
TeX: 739 0
HStem: -250 132<417.042 511.223> 0 21G<68 205> 719 20G<68 235.375 530 667>
VStem: 68 137<0 537> 530 137<-97.3801 -28 201 739>
LayerCount: 2
Fore
SplineSet
68 0 m 1
 68 739 l 1
 224 739 l 1
 530 201 l 1
 530 739 l 1
 667 739 l 1
 667 -25 l 2
 667 -164 591 -250 467 -250 c 0
 360 -250 275 -187 262 -62 c 1
 399 -62 l 1
 408 -99 430 -118 464 -118 c 0
 502 -118 530 -85 530 -46 c 2
 530 -28 l 1
 205 537 l 1
 205 0 l 1
 68 0 l 1
EndSplineSet
Validated: 1
AlternateSubs2: "'aalt' Access All Alternates lookup 0 subtable" eng.sc
AlternateSubs2: "'aalt' Access All Alternates in Latin lookup 0 subtable" eng.sc
Substitution2: "'c2sc' Capitals to Small Capitals in Latin lookup 13 subtable" eng.sc
Position2: "'cpsp' Capital Spacing in Latin lookup 13 subtable" dx=7 dy=0 dh=14 dv=0
EndChar

StartChar: eng
Encoding: 322 331 183
Width: 600
VWidth: 0
Flags: W
TeX: 567 0
HStem: -185 21G<358 414.5> 0 21G<54 187> 445 122<237.444 375.036> 534 20G<54 177>
VStem: 54 133<0 393.992> 54 123<501 554> 413 133<-44.4148 401.504>
LayerCount: 2
Fore
SplineSet
54 0 m 1xea
 54 554 l 1
 177 554 l 1
 177 501 l 1xd6
 226 548 270 567 333 567 c 0
 410 567 470 539 506 487 c 0
 536 444 546 396 546 297 c 2
 546 37 l 2
 546 -112 471 -185 358 -185 c 1
 358 -56 l 1
 408 -47 413 -38 413 40 c 2
 413 271 l 2
 413 419 373 445 307 445 c 0
 265 445 230 427 209 394 c 0
 192 367 187 335 187 261 c 2
 187 0 l 1
 54 0 l 1xea
EndSplineSet
Validated: 1
AlternateSubs2: "'aalt' Access All Alternates lookup 0 subtable" eng.sc
AlternateSubs2: "'aalt' Access All Alternates in Latin lookup 0 subtable" eng.sc
Substitution2: "'smcp' Lowercase to Small Capitals in Latin lookup 2 subtable" eng.sc
EndChar

StartChar: at.alt
Encoding: 323 -1 184
Width: 740
VWidth: 0
Flags: W
TeX: 612 -167
HStem: -167 73<278.877 506.977> 0 106<302.811 403.848> 0 83<507.5 619.153> 311 112<320.231 431.571> 540 72<271.098 506.396>
VStem: 3 71<105.071 340.648> 157 120<133.195 267.962> 455 91<109 220> 672 73<153.41 371.651>
LayerCount: 2
Fore
SplineSet
3 223 m 0xbf80
 3 444 169 612 388 612 c 0
 599 612 745 469 745 243 c 0
 745 98 657 0 534 0 c 0xbf80
 481 0 448 18 435 54 c 1
 410 17 375 0 322 0 c 0xdf80
 222 0 157 74 157 191 c 0
 157 323 244 423 359 423 c 0
 413 423 444 408 477 365 c 1
 484 419 l 1
 580 419 l 1
 547 124 l 2
 546 119 546 116 546 109 c 0
 546 92 555 83 573 83 c 0
 626 83 672 165 672 259 c 0
 672 426 558 540 390 540 c 0
 208 540 74 404 74 220 c 0
 74 51 198 -94 401 -94 c 0
 460 -94 506 -80 550 -47 c 1
 596 -107 l 1
 542 -149 484 -167 399 -167 c 0
 172 -167 3 -2 3 223 c 0xbf80
277 201 m 0
 277 143 307 106 355 106 c 0xdf80
 413 106 455 153 455 220 c 0
 455 276 426 311 379 311 c 0
 323 311 277 262 277 201 c 0
EndSplineSet
Validated: 1
EndChar

StartChar: Gamma
Encoding: 324 915 185
Width: 480
VWidth: 0
Flags: W
TeX: 684 0
HStem: 0 21G<68 205> 608 131<205 444>
VStem: 68 137<0 608>
LayerCount: 2
Fore
SplineSet
68 0 m 1
 68 739 l 1
 444 739 l 1
 444 608 l 1
 205 608 l 1
 205 0 l 1
 68 0 l 1
EndSplineSet
Validated: 1
EndChar

StartChar: Lambda
Encoding: 325 923 186
Width: 740
VWidth: 0
Flags: W
TeX: 683 -1
HStem: 0 21G<7 165.729 574.198 733> 719 20G<306.664 431.39>
LayerCount: 2
Fore
SplineSet
7 0 m 1
 315 739 l 1
 423 739 l 1
 733 0 l 1
 582 0 l 1
 369 546 l 1
 158 0 l 1
 7 0 l 1
EndSplineSet
Validated: 1
EndChar

StartChar: Theta
Encoding: 326 920 187
Width: 840
VWidth: 0
Flags: W
TeX: 697 -17
HStem: -13 132<317.674 518.207> 301 138<275 555> 620 132<317.211 517.362>
VStem: 30 138<269.071 470.194> 662 138<263.584 473.754>
LayerCount: 2
Fore
SplineSet
30 369 m 0
 30 585 200 752 420 752 c 0
 631 752 800 581 800 370 c 0
 800 154 634 -13 419 -13 c 0
 202 -13 30 156 30 369 c 0
168 369 m 0
 168 229 278 119 418 119 c 0
 558 119 662 226 662 368 c 0
 662 510 555 620 418 620 c 0
 276 620 168 512 168 369 c 0
275 301 m 1
 275 439 l 1
 555 439 l 1
 555 301 l 1
 275 301 l 1
EndSplineSet
Validated: 1
EndChar

StartChar: Upsilon
Encoding: 327 933 188
Width: 620
VWidth: 0
Flags: W
TeX: 684 0
HStem: 0 21G<246 383> 719 20G<3 160.647 468.412 626>
VStem: 246 137<0 273>
LayerCount: 2
Fore
SplineSet
3 739 m 1
 151 739 l 1
 315 399 l 1
 478 739 l 1
 626 739 l 1
 383 273 l 1
 383 0 l 1
 246 0 l 1
 246 273 l 1
 3 739 l 1
EndSplineSet
Validated: 1
EndChar

StartChar: Xi
Encoding: 328 926 189
Width: 680
VWidth: 0
Flags: W
TeX: 684 0
HStem: 0 138<69 611> 301 138<207 473> 601 138<69 611>
LayerCount: 2
Fore
SplineSet
69 0 m 1
 69 138 l 1
 611 138 l 1
 611 0 l 1
 69 0 l 1
69 601 m 1
 69 739 l 1
 611 739 l 1
 611 601 l 1
 69 601 l 1
207 301 m 1
 207 439 l 1
 473 439 l 1
 473 301 l 1
 207 301 l 1
EndSplineSet
Validated: 1
EndChar

StartChar: Delta
Encoding: 329 916 190
Width: 647
VWidth: 0
Flags: W
TeX: 683 0
HStem: -1 135<194 455>
LayerCount: 2
Fore
SplineSet
-3 -1 m 1
 268 683 l 1
 382 683 l 1
 652 -1 l 1
 -3 -1 l 1
194 134 m 1
 455 134 l 1
 325 495 l 1
 194 134 l 1
EndSplineSet
Validated: 1
EndChar

StartChar: Omega
Encoding: 330 937 191
Width: 771
VWidth: 0
Flags: W
TeX: 697 0
HStem: -1 138<33 95 259.116 286 483 509.513 673 732> 560 137<289.458 482.798>
VStem: 20 141<243.045 432.987> 608 140<247.742 435.836>
LayerCount: 2
Fore
SplineSet
20 338 m 0
 20 438 56 523 127 592 c 0
 197 661 283 697 384 697 c 0
 485 697 571 662 641 593 c 0
 712 524 748 439 748 339 c 0
 748 260 722 178 673 137 c 1
 732 137 l 1
 732 -1 l 1
 483 -1 l 1
 468 134 l 1
 545 168 608 242 608 339 c 0
 608 401 586 454 542 497 c 0
 500 538 450 560 392 562 c 1
 393 560 l 1
 257 560 161 461 161 338 c 0
 161 240 223 168 301 134 c 1
 286 -1 l 1
 33 -1 l 1
 33 137 l 1
 95 137 l 1
 45 178 20 258 20 338 c 0
EndSplineSet
Validated: 1
EndChar

StartChar: Pi
Encoding: 331 928 192
Width: 629
VWidth: 0
Flags: W
TeX: 739 0
HStem: 0 21G<56 197 427 568> 549 135<197 427>
VStem: 56 141<0 549> 427 141<0 549>
LayerCount: 2
Fore
SplineSet
56 0 m 1
 56 684 l 1
 568 684 l 1
 568 0 l 1
 427 0 l 1
 427 549 l 1
 197 549 l 1
 197 0 l 1
 56 0 l 1
EndSplineSet
Validated: 1
EndChar

StartChar: Sigma
Encoding: 332 931 193
Width: 462
VWidth: 0
Flags: W
TeX: 684 0
HStem: 0 134<180 451> 549 135<191 431>
LayerCount: 2
Fore
SplineSet
9 115 m 1
 147 351 l 1
 21 562 l 1
 21 684 l 1
 431 684 l 1
 431 549 l 1
 191 549 l 1
 309 351 l 1
 180 134 l 1
 451 134 l 1
 451 0 l 1
 10 0 l 1
 9 115 l 1
EndSplineSet
Validated: 1
EndChar

StartChar: lira
Encoding: 333 8356 194
Width: 560
VWidth: 0
Flags: W
TeX: 752 0
HStem: 0 125<41 190.399 320 394.223> 282 105<0 90 318 408> 413 105<0 41 218 408> 630 122<219.165 338.93>
VStem: 41 133<518 582.685> 200 133<126.058 264.756> 430 133<159.07 272.906>
LayerCount: 2
Fore
SplineSet
0 282 m 1
 0 387 l 1
 90 387 l 1
 73 413 l 1
 0 413 l 1
 0 518 l 1
 41 518 l 1
 42 649 147 752 280 752 c 0
 407 752 503 666 514 541 c 1
 379 541 l 1
 364 598 329 630 281 630 c 0
 223 630 177 581 174 518 c 1
 408 518 l 1
 408 413 l 1
 218 413 l 1
 239 387 l 1
 408 387 l 1
 408 282 l 1
 318 282 l 1
 333 252 333 227 333 200 c 0
 333 179 328 148 320 125 c 1
 393 125 430 165 430 220 c 0
 430 236 428 248 420 274 c 1
 552 274 l 1
 560 253 563 240 563 222 c 0
 563 157 535 95 488 54 c 0
 441 14 393 0 301 0 c 2
 41 0 l 1
 41 125 l 1
 180 125 l 1
 193 147 200 171 200 198 c 0
 200 229 188 254 166 282 c 1
 0 282 l 1
EndSplineSet
Validated: 1
EndChar

StartChar: partialdiff
Encoding: 334 8706 195
Width: 494
VWidth: 0
Flags: W
TeX: 753 0
HStem: -16 103<169.743 261.613> 331 103<184.532 309.506> 652 103<121.375 260.901>
VStem: 23 138<91.1777 296.444> 332 139<413 520.865>
LayerCount: 2
Fore
SplineSet
23 185 m 0
 23 314 103 434 224 434 c 0
 261 434 298 427 332 413 c 1
 328 534 301 652 198 652 c 0
 181 652 159 628 143 611 c 1
 41 705 l 1
 80 746 140 755 198 755 c 0
 373 755 471 565 471 370 c 0
 471 174 373 -16 198 -16 c 0
 96 -16 23 78 23 185 c 0
161 185 m 0
 161 140 161 87 198 87 c 0
 292 87 323 186 331 296 c 1
 300 318 262 331 224 331 c 0
 165 331 161 253 161 185 c 0
EndSplineSet
Validated: 1
EndChar

StartChar: eta
Encoding: 335 951 196
Width: 600
VWidth: 0
Flags: W
TeX: 567 -200
HStem: 0 21G<54 187> 445 122<237.444 375.036> 534 20G<54 177>
VStem: 54 133<0 393.992> 54 123<501 554> 413 133<-200 401.504>
LayerCount: 2
Fore
SplineSet
54 0 m 1xd4
 54 554 l 1
 177 554 l 1
 177 501 l 1xac
 226 548 270 567 333 567 c 0
 410 567 470 539 506 487 c 0
 536 444 546 396 546 297 c 2
 546 -200 l 1
 413 -200 l 1
 413 271 l 2
 413 419 373 445 307 445 c 0
 265 445 230 427 209 394 c 0
 192 367 187 335 187 261 c 2
 187 0 l 1
 54 0 l 1xd4
EndSplineSet
Validated: 1
EndChar

StartChar: numero
Encoding: 336 8470 197
Width: 1123
VWidth: 0
Flags: W
TeX: 739 0
HStem: 0 84<714 1083> 187 89<837.669 958.975> 473 84<839.737 958> 719 20G<68 235.375 530 667>
VStem: 68 137<0 537> 530 137<201 739> 714 88<311.204 434.257> 995 88<311.525 432.937>
LayerCount: 2
Fore
SplineSet
68 0 m 1
 68 739 l 1
 224 739 l 1
 530 201 l 1
 530 739 l 1
 667 739 l 1
 667 0 l 1
 514 0 l 1
 205 537 l 1
 205 0 l 1
 68 0 l 1
714 0 m 1
 714 84 l 1
 1083 84 l 1
 1083 0 l 1
 714 0 l 1
714 376 m 0
 714 474 798 557 899 557 c 0
 1001 557 1083 475 1083 372 c 0
 1083 269 1001 187 898 187 c 0
 797 187 714 272 714 376 c 0
802 376 m 0
 802 318 843 276 898 276 c 0
 953 276 995 318 995 373 c 0
 995 427 951 473 899 473 c 0
 846 473 802 428 802 376 c 0
EndSplineSet
Validated: 1
EndChar

StartChar: a.sc
Encoding: 337 -1 198
Width: 637
VWidth: 0
GlyphClass: 2
Flags: W
TeX: 554 0
HStem: 0 21G<14 170.481 466.815 623> 135 123<276 359> 534 20G<258.83 376.242>
AnchorPoint: "bot_acc" 318 -146 basechar 0
AnchorPoint: "dotbelow" 318 -146 basechar 0
AnchorPoint: "ogon_acc" 522 -146 basechar 0
AnchorPoint: "top_accl" 318 700 basechar 0
AnchorPoint: "dotabove" 318 700 basechar 0
LayerCount: 2
Fore
SplineSet
14 0 m 1
 268 554 l 1
 367 554 l 1
 623 0 l 1
 476 0 l 1
 414 135 l 1
 225 135 l 1
 161 0 l 1
 14 0 l 1
276 258 m 1
 359 258 l 1
 318 365 l 1
 276 258 l 1
EndSplineSet
Validated: 1
EndChar

StartChar: aogonek.sc
Encoding: 338 -1 199
Width: 637
VWidth: 0
GlyphClass: 3
Flags: W
TeX: 554 -250
HStem: -250 106<531.033 621.556> 0 21G<14 170.481> 135 123<276 359> 534 20G<258.83 376.242>
VStem: 421 106<-141.382 -65.2256>
AnchorPoint: "bot_acc" 522 -383 basechar 0
AnchorPoint: "dotbelow" 522 -383 basechar 0
AnchorPoint: "ogon_acc" 522 -383 basechar 0
AnchorPoint: "top_accl" 318 700 basechar 0
AnchorPoint: "dotabove" 318 700 basechar 0
LayerCount: 2
Fore
SplineSet
14 0 m 1
 268 554 l 1
 367 554 l 1
 623 0 l 1
 557 -21 527 -64 527 -91 c 0
 527 -127 536 -144 565 -144 c 0
 577 -144 593 -144 623 -131 c 1
 623 -231 l 1
 591 -244 569 -250 547 -250 c 0
 478 -250 421 -202 421 -135 c 0
 421 -87 455 -36 501 0 c 1
 476 0 l 1
 414 135 l 1
 225 135 l 1
 161 0 l 1
 14 0 l 1
276 258 m 1
 359 258 l 1
 318 365 l 1
 276 258 l 1
EndSplineSet
Validated: 1
Ligature2: "ccmp_lig subtable" a.sc ogonekcomb
EndChar

StartChar: b.sc
Encoding: 339 -1 200
Width: 512
VWidth: 0
GlyphClass: 2
Flags: W
TeX: 554 0
HStem: 0 123<203 323.075> 227 125<203 298.816> 429 125<203 297.482>
VStem: 70 133<123 227 352 429> 303 133<359.188 421.833> 337 133<134.092 213.025>
AnchorPoint: "bot_acc" 270 -146 basechar 0
AnchorPoint: "dotbelow" 270 -146 basechar 0
AnchorPoint: "ogon_acc" 136 -146 basechar 0
AnchorPoint: "top_accl" 270 700 basechar 0
AnchorPoint: "dotabove" 270 700 basechar 0
LayerCount: 2
Fore
SplineSet
70 0 m 1xf4
 70 554 l 1
 201 554 l 2
 290 554 328 547 363 526 c 0
 409 500 436 453 436 399 c 0xf8
 436 354 423 325 391 302 c 1
 450 273 470 231 470 171 c 0
 470 68 395 0 237 0 c 2
 70 0 l 1xf4
203 123 m 1
 243 123 l 2
 306 123 337 134 337 173 c 0xf4
 337 213 304 227 240 227 c 2
 203 227 l 1
 203 123 l 1
203 352 m 1
 224 352 l 2
 277 352 303 359 303 390 c 0xf8
 303 420 278 429 233 429 c 2
 203 429 l 1
 203 352 l 1
EndSplineSet
Validated: 1
EndChar

StartChar: c.sc
Encoding: 340 -1 201
Width: 641
VWidth: 0
GlyphClass: 2
Flags: W
TeX: 554 0
HStem: -9 123<255.284 428.351> 439 124<251.483 434.299>
VStem: 28 134<201.664 355.88>
AnchorPoint: "bot_acc" 338 -146 basechar 0
AnchorPoint: "dotbelow" 338 -146 basechar 0
AnchorPoint: "ogon_acc" 338 -146 basechar 0
AnchorPoint: "top_accl" 338 700 basechar 0
AnchorPoint: "dotabove" 338 700 basechar 0
LayerCount: 2
Fore
SplineSet
28 279 m 0
 28 434 167 563 338 563 c 0
 470 563 583 493 632 373 c 1
 485 373 l 1
 448 420 405 439 340 439 c 0
 238 439 162 369 162 278 c 0
 162 187 244 114 342 114 c 0
 396 114 435 131 480 176 c 1
 631 176 l 1
 590 63 476 -9 345 -9 c 0
 168 -9 28 120 28 279 c 0
EndSplineSet
Validated: 1
EndChar

StartChar: ccedilla.sc
Encoding: 341 -1 202
Width: 641
VWidth: 0
GlyphClass: 3
Flags: W
TeX: 554 -256
HStem: -256 64<330.172 403.56> -9 123<255.479 342> 439 124<251.483 434.299>
VStem: 28 134<201.878 355.88> 409 64<-186.62 -114.093>
AnchorPoint: "bot_acc" 342 -389 basechar 0
AnchorPoint: "dotbelow" 342 -389 basechar 0
AnchorPoint: "ogon_acc" 342 -389 basechar 0
AnchorPoint: "top_accl" 338 700 basechar 0
AnchorPoint: "dotabove" 338 700 basechar 0
LayerCount: 2
Fore
SplineSet
28 279 m 0
 28 434 167 563 338 563 c 0
 470 563 583 493 632 373 c 1
 485 373 l 1
 448 420 405 439 340 439 c 0
 238 439 162 369 162 278 c 0
 162 187 244 114 342 114 c 0
 396 114 435 131 480 176 c 1
 631 176 l 1
 597 84 516 19 415 -2 c 1
 382 -46 l 1
 433 -53 473 -97 473 -150 c 0
 473 -209 425 -256 367 -256 c 0
 313 -256 269 -217 262 -165 c 1
 327 -165 l 1
 333 -181 349 -192 367 -192 c 0
 390 -192 409 -174 409 -150 c 0
 409 -127 390 -108 367 -108 c 0
 353 -108 341 -115 333 -125 c 1
 283 -87 l 1
 342 -9 l 1
 167 -8 28 121 28 279 c 0
EndSplineSet
Validated: 1
Ligature2: "ccmp_lig subtable" c.sc cedillacmb
EndChar

StartChar: d.sc
Encoding: 342 -1 203
Width: 593
VWidth: 0
GlyphClass: 2
Flags: W
TeX: 554 0
HStem: 0 123<203 347.554> 431 123<203 346.284>
VStem: 70 133<123 431> 424 133<195.924 356.412>
AnchorPoint: "bot_acc" 248 -146 basechar 0
AnchorPoint: "dotbelow" 248 -146 basechar 0
AnchorPoint: "ogon_acc" 116 -146 basechar 0
AnchorPoint: "top_accl" 248 700 basechar 0
AnchorPoint: "dotabove" 248 700 basechar 0
LayerCount: 2
Fore
SplineSet
70 0 m 1
 70 554 l 1
 215 554 l 2
 308 554 378 540 424 515 c 0
 510 468 557 381 557 276 c 0
 557 164 502 72 408 30 c 0
 360 8 307 0 217 0 c 2
 70 0 l 1
203 123 m 1
 213 123 l 2
 275 123 317 129 348 145 c 0
 395 168 424 219 424 276 c 0
 424 337 393 387 344 411 c 0
 312 426 276 431 211 431 c 2
 203 431 l 1
 203 123 l 1
EndSplineSet
Validated: 1
EndChar

StartChar: e.sc
Encoding: 343 -1 204
Width: 450
VWidth: 0
GlyphClass: 2
Flags: W
TeX: 554 0
HStem: 0 123<203 405> 215 122<203 397> 431 123<203 405>
VStem: 70 335<0 123 431 554> 70 133<123 215 337 431>
AnchorPoint: "bot_acc" 238 -146 basechar 0
AnchorPoint: "dotbelow" 238 -146 basechar 0
AnchorPoint: "ogon_acc" 304 -146 basechar 0
AnchorPoint: "top_accl" 238 700 basechar 0
AnchorPoint: "dotabove" 238 700 basechar 0
LayerCount: 2
Fore
SplineSet
70 0 m 1xf0
 70 554 l 1
 405 554 l 1
 405 431 l 1xf0
 203 431 l 1
 203 337 l 1
 397 337 l 1
 397 215 l 1
 203 215 l 1
 203 123 l 1xe8
 405 123 l 1
 405 0 l 1
 70 0 l 1xf0
EndSplineSet
Validated: 1
EndChar

StartChar: eogonek.sc
Encoding: 344 -1 205
Width: 450
VWidth: 0
GlyphClass: 3
Flags: W
TeX: 554 -250
HStem: -250 106<313.033 403.556> 0 123<203 283 359.914 405> 215 122<203 397> 431 123<203 405>
VStem: 70 335<0 123 431 554> 70 133<123 215 337 431> 203 106<-141.382 -65.2256>
AnchorPoint: "bot_acc" 304 -383 basechar 0
AnchorPoint: "dotbelow" 304 -383 basechar 0
AnchorPoint: "ogon_acc" 304 -383 basechar 0
AnchorPoint: "top_accl" 238 700 basechar 0
AnchorPoint: "dotabove" 238 700 basechar 0
LayerCount: 2
Fore
SplineSet
70 0 m 1xf8
 70 554 l 1
 405 554 l 1
 405 431 l 1xf8
 203 431 l 1
 203 337 l 1
 397 337 l 1
 397 215 l 1
 203 215 l 1
 203 123 l 1xf4
 405 123 l 1
 405 0 l 1xf8
 339 -21 309 -64 309 -91 c 0xf2
 309 -127 318 -144 347 -144 c 0
 359 -144 375 -144 405 -131 c 1
 405 -231 l 1xf8
 373 -244 351 -250 329 -250 c 0
 260 -250 203 -202 203 -135 c 0xf2
 203 -87 237 -36 283 0 c 1
 70 0 l 1xf8
EndSplineSet
Validated: 1
Ligature2: "ccmp_lig subtable" e.sc ogonekcomb
EndChar

StartChar: f.sc
Encoding: 345 -1 206
Width: 419
VWidth: 0
GlyphClass: 2
Flags: W
TeX: 554 0
HStem: 0 21G<70 203> 215 122<203 380> 431 123<203 389>
VStem: 70 133<0 215 337 431>
AnchorPoint: "bot_acc" 229 -146 basechar 0
AnchorPoint: "dotbelow" 229 -146 basechar 0
AnchorPoint: "ogon_acc" 102 -146 basechar 0
AnchorPoint: "top_accl" 229 700 basechar 0
AnchorPoint: "dotabove" 229 700 basechar 0
LayerCount: 2
Fore
SplineSet
70 0 m 1
 70 554 l 1
 389 554 l 1
 389 431 l 1
 203 431 l 1
 203 337 l 1
 380 337 l 1
 380 215 l 1
 203 215 l 1
 203 0 l 1
 70 0 l 1
EndSplineSet
Validated: 1
EndChar

StartChar: g.sc
Encoding: 346 -1 207
Width: 688
VWidth: 0
GlyphClass: 2
Flags: W
TeX: 554 0
HStem: -9 123<255.302 438.022> 176 121<266 491> 439 124<249.97 437.038>
VStem: 28 134<200.019 355.005>
AnchorPoint: "bot_acc" 345 -146 basechar 0
AnchorPoint: "dotbelow" 345 -146 basechar 0
AnchorPoint: "ogon_acc" 345 -146 basechar 0
AnchorPoint: "top_accl" 345 700 basechar 0
AnchorPoint: "dotabove" 345 700 basechar 0
LayerCount: 2
Fore
SplineSet
28 278 m 0
 28 435 168 563 345 563 c 0
 485 563 616 479 645 370 c 1
 494 370 l 1
 461 416 407 439 342 439 c 0
 237 439 162 367 162 276 c 0
 162 184 244 114 348 114 c 0
 408 114 459 137 491 176 c 1
 266 176 l 1
 266 297 l 1
 655 297 l 1
 668 282 l 1
 668 269 l 2
 668 120 533 -9 355 -9 c 0
 169 -9 28 118 28 278 c 0
EndSplineSet
Validated: 1
EndChar

StartChar: h.sc
Encoding: 347 -1 208
Width: 590
VWidth: 0
GlyphClass: 2
Flags: W
TeX: 554 0
HStem: 0 21G<70 203 382 515> 220 122<203 382> 534 20G<70 203 382 515>
VStem: 70 133<0 220 342 554> 382 133<0 220 342 554>
AnchorPoint: "bot_acc" 293 -146 basechar 0
AnchorPoint: "dotbelow" 293 -146 basechar 0
AnchorPoint: "ogon_acc" 414 -146 basechar 0
AnchorPoint: "top_accl" 293 700 basechar 0
AnchorPoint: "dotabove" 293 700 basechar 0
LayerCount: 2
Fore
SplineSet
70 0 m 1
 70 554 l 1
 203 554 l 1
 203 342 l 1
 382 342 l 1
 382 554 l 1
 515 554 l 1
 515 0 l 1
 382 0 l 1
 382 220 l 1
 203 220 l 1
 203 0 l 1
 70 0 l 1
EndSplineSet
Validated: 1
EndChar

StartChar: i.sc
Encoding: 348 -1 209
Width: 278
VWidth: 0
GlyphClass: 2
Flags: W
TeX: 554 0
HStem: 0 21G<70 203> 534 20G<70 203>
VStem: 70 133<0 554>
AnchorPoint: "bot_acc" 137 -146 basechar 0
AnchorPoint: "dotbelow" 137 -146 basechar 0
AnchorPoint: "ogon_acc" 102 -146 basechar 0
AnchorPoint: "top_accl" 136 700 basechar 0
AnchorPoint: "dotabove" 136 700 basechar 0
LayerCount: 2
Fore
SplineSet
70 0 m 1
 70 554 l 1
 203 554 l 1
 203 0 l 1
 70 0 l 1
EndSplineSet
Validated: 1
EndChar

StartChar: iogonek.sc
Encoding: 349 -1 210
Width: 278
VWidth: 0
GlyphClass: 3
Flags: W
TeX: 554 -250
HStem: -250 106<111.033 201.556> 534 20G<70 203>
VStem: 1 106<-141.382 -65.2256> 70 133<0 554>
AnchorPoint: "bot_acc" 102 -383 basechar 0
AnchorPoint: "dotbelow" 102 -383 basechar 0
AnchorPoint: "ogon_acc" 102 -383 basechar 0
AnchorPoint: "top_accl" 136 700 basechar 0
AnchorPoint: "dotabove" 136 700 basechar 0
LayerCount: 2
Fore
SplineSet
1 -135 m 0xe0
 1 -87 35 -36 81 0 c 1
 70 0 l 1
 70 554 l 1
 203 554 l 1
 203 0 l 1xd0
 137 -21 107 -64 107 -91 c 0xe0
 107 -127 116 -144 145 -144 c 0
 157 -144 173 -144 203 -131 c 1
 203 -231 l 1xd0
 171 -244 149 -250 127 -250 c 0
 58 -250 1 -202 1 -135 c 0xe0
EndSplineSet
Validated: 1
Ligature2: "ccmp_lig subtable" i.sc ogonekcomb
EndChar

StartChar: j.sc
Encoding: 350 -1 211
Width: 434
VWidth: 0
GlyphClass: 2
Flags: W
TeX: 554 0
HStem: -9 123<160.403 226.605> 534 20G<233 366>
VStem: 233 133<117.876 554>
AnchorPoint: "bot_acc" 300 -146 basechar 0
AnchorPoint: "dotbelow" 300 -146 basechar 0
AnchorPoint: "ogon_acc" 157 -146 basechar 0
AnchorPoint: "top_accl" 299 700 basechar 0
AnchorPoint: "dotabove" 299 700 basechar 0
LayerCount: 2
Fore
SplineSet
23 154 m 1
 154 154 l 1
 157 127 171 114 194 114 c 0
 221 114 233 133 233 168 c 2
 233 554 l 1
 366 554 l 1
 366 165 l 2
 366 58 302 -9 197 -9 c 0
 101 -9 27 47 23 154 c 1
EndSplineSet
Validated: 1
EndChar

StartChar: k.sc
Encoding: 351 -1 212
Width: 543
VWidth: 0
GlyphClass: 2
Flags: W
TeX: 554 0
HStem: 0 21G<70 203 346.563 527> 534 20G<70 203 346.335 528>
VStem: 70 133<0 206 351 554>
AnchorPoint: "bot_acc" 279 -146 basechar 0
AnchorPoint: "dotbelow" 279 -146 basechar 0
AnchorPoint: "ogon_acc" 426 -146 basechar 0
AnchorPoint: "top_accl" 279 700 basechar 0
AnchorPoint: "dotabove" 279 700 basechar 0
LayerCount: 2
Fore
SplineSet
70 0 m 1
 70 554 l 1
 203 554 l 1
 203 351 l 1
 362 554 l 1
 528 554 l 1
 298 281 l 1
 527 0 l 1
 362 0 l 1
 203 206 l 1
 203 0 l 1
 70 0 l 1
EndSplineSet
Validated: 1
EndChar

StartChar: l.sc
Encoding: 352 -1 213
Width: 388
VWidth: 0
GlyphClass: 2
Flags: W
TeX: 554 0
HStem: 0 123<203 379> 534 20G<70 203>
VStem: 70 133<123 554>
AnchorPoint: "bot_acc" 224 -146 basechar 0
AnchorPoint: "dotbelow" 224 -146 basechar 0
AnchorPoint: "ogon_acc" 278 -146 basechar 0
AnchorPoint: "top_accl" 136 700 basechar 0
AnchorPoint: "dotabove" 136 700 basechar 0
LayerCount: 2
Fore
SplineSet
70 0 m 1
 70 554 l 1
 203 554 l 1
 203 123 l 1
 379 123 l 1
 379 0 l 1
 70 0 l 1
EndSplineSet
Validated: 1
EndChar

StartChar: lslash.sc
Encoding: 353 -1 214
Width: 419
VWidth: 0
GlyphClass: 2
Flags: W
TeX: 554 0
HStem: 0 121<235 412> 534 20G<103 235>
VStem: 103 132<121 181 378 554>
AnchorPoint: "bot_acc" 257 -146 basechar 0
AnchorPoint: "dotbelow" 257 -146 basechar 0
AnchorPoint: "ogon_acc" 311 -146 basechar 0
AnchorPoint: "top_accl" 169 700 basechar 0
AnchorPoint: "dotabove" 169 700 basechar 0
LayerCount: 2
Fore
SplineSet
28 125 m 1
 28 248 l 1
 103 304 l 1
 103 554 l 1
 235 554 l 1
 235 378 l 1
 346 455 l 1
 346 333 l 1
 235 255 l 1
 235 121 l 1
 412 121 l 1
 412 0 l 1
 103 0 l 1
 103 181 l 1
 28 125 l 1
EndSplineSet
Validated: 1
EndChar

StartChar: m.sc
Encoding: 354 -1 215
Width: 761
VWidth: 0
GlyphClass: 2
Flags: W
TeX: 554 0
HStem: 0 21G<70 203 324.321 443.679 565 698> 534 20G<70 245.819 522.287 698>
VStem: 70 133<0 336> 565 133<0 336>
AnchorPoint: "bot_acc" 384 -146 basechar 0
AnchorPoint: "dotbelow" 384 -146 basechar 0
AnchorPoint: "ogon_acc" 597 -146 basechar 0
AnchorPoint: "top_accl" 384 700 basechar 0
AnchorPoint: "dotabove" 384 700 basechar 0
LayerCount: 2
Fore
SplineSet
70 0 m 1
 70 554 l 1
 238 554 l 1
 385 178 l 1
 530 554 l 1
 698 554 l 1
 698 0 l 1
 565 0 l 1
 565 336 l 1
 436 0 l 1
 332 0 l 1
 203 336 l 1
 203 0 l 1
 70 0 l 1
EndSplineSet
Validated: 1
EndChar

StartChar: n.sc
Encoding: 355 -1 216
Width: 637
VWidth: 0
GlyphClass: 2
Flags: W
TeX: 554 0
HStem: 0 21G<70 203 411.335 563> 534 20G<70 223.514 430 563>
VStem: 70 133<0 349> 430 133<204 554>
AnchorPoint: "bot_acc" 317 -146 basechar 0
AnchorPoint: "dotbelow" 317 -146 basechar 0
AnchorPoint: "ogon_acc" 462 -146 basechar 0
AnchorPoint: "top_accl" 317 700 basechar 0
AnchorPoint: "dotabove" 317 700 basechar 0
LayerCount: 2
Fore
SplineSet
70 0 m 1
 70 554 l 1
 211 554 l 1
 430 204 l 1
 430 554 l 1
 563 554 l 1
 563 0 l 1
 424 0 l 1
 203 349 l 1
 203 0 l 1
 70 0 l 1
EndSplineSet
Validated: 1
EndChar

StartChar: eng.sc
Encoding: 356 -1 217
Width: 637
VWidth: 0
Flags: W
TeX: 554 -246
HStem: -246 123<357.49 422.737> 0 21G<70 203> 534 20G<70 223.514 430 563>
VStem: 70 133<0 349> 430 133<-114.692 -10 204 554>
LayerCount: 2
Fore
SplineSet
70 0 m 1
 70 554 l 1
 211 554 l 1
 430 204 l 1
 430 554 l 1
 563 554 l 1
 563 -72 l 2
 563 -179 499 -246 394 -246 c 0
 298 -246 224 -190 220 -83 c 1
 351 -83 l 1
 354 -110 369 -123 392 -123 c 0
 415 -123 430 -98 430 -72 c 2
 430 -10 l 1
 203 349 l 1
 203 0 l 1
 70 0 l 1
EndSplineSet
Validated: 1
EndChar

StartChar: o.sc
Encoding: 357 -1 218
Width: 691
VWidth: 0
GlyphClass: 2
Flags: W
TeX: 554 0
HStem: -9 123<255.188 432.337> 439 124<254.567 431.317>
VStem: 28 134<201.339 355.455> 521 133<197.599 354.987>
AnchorPoint: "bot_acc" 345 -146 basechar 0
AnchorPoint: "dotbelow" 345 -146 basechar 0
AnchorPoint: "ogon_acc" 345 -146 basechar 0
AnchorPoint: "top_accl" 345 700 basechar 0
AnchorPoint: "dotabove" 345 700 basechar 0
LayerCount: 2
Fore
SplineSet
28 276 m 0
 28 437 166 563 345 563 c 0
 518 563 654 434 654 277 c 0
 654 117 520 -9 345 -9 c 0
 167 -9 28 118 28 276 c 0
162 276 m 0
 162 185 243 114 344 114 c 0
 445 114 521 183 521 276 c 0
 521 369 442 439 344 439 c 0
 241 439 162 370 162 276 c 0
EndSplineSet
Validated: 1
EndChar

StartChar: oogonek.sc
Encoding: 358 -1 219
Width: 691
VWidth: 0
GlyphClass: 3
Flags: W
TeX: 554 -250
HStem: -250 106<357.033 447.556> 439 124<254.567 431.317>
VStem: 28 134<200.005 355.455> 247 106<-141.382 -65.3279> 521 133<196.738 354.987>
AnchorPoint: "bot_acc" 348 -383 basechar 0
AnchorPoint: "dotbelow" 348 -383 basechar 0
AnchorPoint: "ogon_acc" 348 -383 basechar 0
AnchorPoint: "top_accl" 341 700 basechar 0
AnchorPoint: "dotabove" 341 700 basechar 0
LayerCount: 2
Fore
SplineSet
28 276 m 0
 28 437 166 563 345 563 c 0
 518 563 654 434 654 277 c 0
 654 157 579 56 467 13 c 0
 412 -8 353 -35 353 -91 c 0
 353 -127 362 -144 391 -144 c 0
 403 -144 419 -144 449 -131 c 1
 449 -231 l 1
 417 -244 395 -250 373 -250 c 0
 304 -250 247 -202 247 -135 c 0
 247 -91 276 -43 317 -8 c 1
 153 4 28 127 28 276 c 0
162 276 m 0
 162 185 243 114 344 114 c 0
 445 114 521 183 521 276 c 0
 521 369 442 439 344 439 c 0
 241 439 162 370 162 276 c 0
EndSplineSet
Validated: 1
Ligature2: "ccmp_lig subtable" o.sc ogonekcomb
EndChar

StartChar: p.sc
Encoding: 359 -1 220
Width: 484
VWidth: 0
GlyphClass: 2
Flags: W
TeX: 554 0
HStem: 0 21G<70 203> 199 123<203 319.524> 431 123<203 318.875>
VStem: 70 133<0 199 322 431> 330 134<334.934 418.669>
AnchorPoint: "bot_acc" 267 -146 basechar 0
AnchorPoint: "dotbelow" 267 -146 basechar 0
AnchorPoint: "ogon_acc" 102 -146 basechar 0
AnchorPoint: "top_accl" 267 700 basechar 0
AnchorPoint: "dotabove" 267 700 basechar 0
LayerCount: 2
Fore
SplineSet
70 0 m 1
 70 554 l 1
 226 554 l 2
 305 554 344 546 378 528 c 0
 433 498 464 443 464 377 c 0
 464 311 432 253 381 224 c 0
 348 206 309 199 224 199 c 2
 203 199 l 1
 203 0 l 1
 70 0 l 1
203 322 m 1
 221 322 l 2
 304 322 330 336 330 376 c 0
 330 423 296 431 226 431 c 2
 203 431 l 1
 203 322 l 1
EndSplineSet
Validated: 1
EndChar

StartChar: q.sc
Encoding: 360 -1 221
Width: 691
VWidth: 0
GlyphClass: 2
Flags: W
TeX: 554 -11
HStem: -11 117<608.406 665> -9 123<254.446 388.954> 166 110<212.312 339.842> 439 124<252.331 439.129>
VStem: 28 133<269.616 349.159> 533 133<196.849 350.865>
AnchorPoint: "bot_acc" 352 -146 basechar 0
AnchorPoint: "dotbelow" 352 -146 basechar 0
AnchorPoint: "ogon_acc" 352 -146 basechar 0
AnchorPoint: "top_accl" 352 700 basechar 0
AnchorPoint: "dotabove" 352 700 basechar 0
LayerCount: 2
Fore
SplineSet
28 277 m 0x7c
 28 437 167 563 348 563 c 0
 531 563 666 438 666 274 c 0
 666 209 647 155 608 111 c 1
 618 108 626 106 637 106 c 0
 644 106 661 107 676 110 c 1
 676 5 l 1
 665 -10 l 1
 658 -11 646 -11 643 -11 c 0xbc
 593 -11 561 1 513 30 c 1
 471 6 411 -9 353 -9 c 0
 171 -9 28 119 28 277 c 0x7c
161 269 m 1
 184 274 209 276 239 276 c 0
 330 276 427 239 498 179 c 1
 521 204 533 234 533 273 c 0
 533 369 452 439 347 439 c 0
 242 439 161 370 161 276 c 2
 161 269 l 1
212 165 m 1
 249 130 295 114 353 114 c 0x7c
 368 114 379 115 390 118 c 1
 337 152 290 166 238 166 c 0
 228 166 220 166 212 165 c 1
EndSplineSet
Validated: 1
EndChar

StartChar: r.sc
Encoding: 361 -1 222
Width: 512
VWidth: 0
GlyphClass: 2
Flags: W
TeX: 554 0
HStem: 0 21G<70 203 319.914 502> 446 108<190 336.75>
VStem: 70 133<0 175> 70 120<288 446> 360 120<313.115 423.044>
AnchorPoint: "bot_acc" 256 -146 basechar 0
AnchorPoint: "dotbelow" 256 -146 basechar 0
AnchorPoint: "ogon_acc" 401 -146 basechar 0
AnchorPoint: "top_accl" 256 700 basechar 0
AnchorPoint: "dotabove" 256 700 basechar 0
LayerCount: 2
Fore
SplineSet
70 0 m 1xe8
 70 554 l 1xd8
 249 554 l 2
 331 554 374 542 414 512 c 0
 457 479 480 429 480 371 c 0
 480 289 438 228 342 199 c 1
 502 0 l 1
 335 0 l 1
 203 175 l 1
 203 0 l 1
 70 0 l 1xe8
190 288 m 1
 242 288 l 2
 325 288 360 313 360 368 c 0
 360 415 339 446 237 446 c 2
 190 446 l 1
 190 288 l 1
EndSplineSet
Validated: 1
EndChar

StartChar: s.sc
Encoding: 362 -1 223
Width: 441
VWidth: 0
GlyphClass: 2
Flags: W
TeX: 554 0
HStem: -9 123<165.536 273.048> 439 124<174.856 257.275>
VStem: 37 133<369.376 432.824> 283 132<126.661 201.989>
AnchorPoint: "bot_acc" 217 -146 basechar 0
AnchorPoint: "dotbelow" 217 -146 basechar 0
AnchorPoint: "ogon_acc" 178 -146 basechar 0
AnchorPoint: "top_accl" 217 700 basechar 0
AnchorPoint: "dotabove" 217 700 basechar 0
LayerCount: 2
Fore
SplineSet
15 179 m 1
 153 179 l 1
 152 134 175 114 218 114 c 0
 255 114 283 133 283 163 c 0
 283 179 276 194 263 203 c 0
 247 214 240 217 166 242 c 0
 82 271 37 327 37 399 c 0
 37 489 117 563 217 563 c 0
 323 563 403 493 401 384 c 1
 265 384 l 1
 267 420 249 439 217 439 c 0
 190 439 170 425 170 401 c 0
 170 387 180 376 195 367 c 0
 203 363 204 362 257 345 c 0
 383 302 415 250 415 174 c 0
 415 71 330 -9 218 -9 c 0
 104 -9 18 63 15 179 c 1
EndSplineSet
Validated: 33
EndChar

StartChar: scedilla.sc
Encoding: 363 -1 224
Width: 441
VWidth: 0
GlyphClass: 3
Flags: W
TeX: 554 -256
HStem: -256 64<199.861 272.761> 439 124<174.856 257.275>
VStem: 37 133<369.376 432.824> 278 64<-186.62 -114.093> 283 132<126.154 201.989>
AnchorPoint: "bot_acc" 211 -389 basechar 0
AnchorPoint: "dotbelow" 211 -389 basechar 0
AnchorPoint: "ogon_acc" 211 -389 basechar 0
AnchorPoint: "top_accl" 215 700 basechar 0
AnchorPoint: "dotabove" 215 700 basechar 0
LayerCount: 2
Fore
SplineSet
15 179 m 1xf0
 153 179 l 1
 152 134 175 114 218 114 c 0
 255 114 283 133 283 163 c 0
 283 179 276 194 263 203 c 0
 247 214 240 217 166 242 c 0
 82 271 37 327 37 399 c 0
 37 489 117 563 217 563 c 0
 323 563 403 493 401 384 c 1
 265 384 l 1
 267 420 249 439 217 439 c 0
 190 439 170 425 170 401 c 0
 170 387 180 376 195 367 c 0
 203 363 204 362 257 345 c 0
 383 302 415 250 415 174 c 0xe8
 415 93 362 26 285 1 c 1
 287 1 l 1
 252 -46 l 1
 303 -53 342 -97 342 -150 c 0
 342 -209 295 -256 236 -256 c 0
 183 -256 138 -217 131 -165 c 1
 197 -165 l 1
 203 -181 218 -192 236 -192 c 0
 259 -192 278 -174 278 -150 c 0
 278 -127 259 -108 236 -108 c 0
 222 -108 210 -115 202 -125 c 1
 152 -87 l 1
 211 -9 l 1
 100 -6 18 66 15 179 c 1xf0
EndSplineSet
Validated: 33
AlternateSubs2: "'aalt' Access All Alternates in Latin lookup 0 subtable" uni0219.sc
Ligature2: "ccmp_lig subtable" s.sc cedillacmb
Substitution2: "locl_ROM subtable" uni0219.sc
EndChar

StartChar: t.sc
Encoding: 364 -1 225
Width: 357
VWidth: 0
GlyphClass: 2
Flags: W
TeX: 554 0
HStem: 0 21G<114 247> 431 123<7 114 247 354>
VStem: 114 133<0 431>
AnchorPoint: "bot_acc" 181 -146 basechar 0
AnchorPoint: "dotbelow" 181 -146 basechar 0
AnchorPoint: "ogon_acc" 146 -146 basechar 0
AnchorPoint: "top_accl" 181 700 basechar 0
AnchorPoint: "dotabove" 181 700 basechar 0
LayerCount: 2
Fore
SplineSet
7 431 m 1
 7 554 l 1
 354 554 l 1
 354 431 l 1
 247 431 l 1
 247 0 l 1
 114 0 l 1
 114 431 l 1
 7 431 l 1
EndSplineSet
Validated: 1
EndChar

StartChar: tcedilla.sc
Encoding: 365 -1 226
Width: 357
VWidth: 0
GlyphClass: 3
Flags: W
TeX: 554 -256
HStem: -256 64<156.861 229.761> 431 123<7 114 247 354>
VStem: 114 133<0 431> 235 64<-186.62 -114.093>
AnchorPoint: "bot_acc" 168 -389 basechar 0
AnchorPoint: "dotbelow" 168 -389 basechar 0
AnchorPoint: "ogon_acc" 168 -389 basechar 0
AnchorPoint: "top_accl" 181 700 basechar 0
AnchorPoint: "dotabove" 181 700 basechar 0
LayerCount: 2
Fore
SplineSet
7 431 m 1xe0
 7 554 l 1
 354 554 l 1
 354 431 l 1
 247 431 l 1
 247 0 l 1xe0
 243 0 l 1
 209 -46 l 1
 260 -53 299 -97 299 -150 c 0
 299 -209 252 -256 193 -256 c 0
 140 -256 95 -217 88 -165 c 1
 154 -165 l 1
 160 -181 175 -192 193 -192 c 0
 216 -192 235 -174 235 -150 c 0xd0
 235 -127 216 -108 193 -108 c 0
 179 -108 167 -115 159 -125 c 1
 109 -87 l 1
 175 0 l 1
 114 0 l 1
 114 431 l 1
 7 431 l 1xe0
EndSplineSet
Validated: 1
AlternateSubs2: "'aalt' Access All Alternates in Latin lookup 0 subtable" uni021B.sc
Ligature2: "ccmp_lig subtable" t.sc cedillacmb
Substitution2: "locl_ROM subtable" uni021B.sc
EndChar

StartChar: u.sc
Encoding: 366 -1 227
Width: 559
VWidth: 0
GlyphClass: 2
Flags: W
TeX: 554 0
HStem: -9 123<222.362 332.213> 534 20G<70 203 352 485>
VStem: 70 133<133.965 554> 352 133<133.965 554>
AnchorPoint: "bot_acc" 278 -146 basechar 0
AnchorPoint: "dotbelow" 278 -146 basechar 0
AnchorPoint: "ogon_acc" 278 -146 basechar 0
AnchorPoint: "top_accl" 278 700 basechar 0
AnchorPoint: "dotabove" 278 700 basechar 0
LayerCount: 2
Fore
SplineSet
70 207 m 2
 70 554 l 1
 203 554 l 1
 203 207 l 2
 203 137 231 114 278 114 c 0
 323 114 352 137 352 207 c 2
 352 554 l 1
 485 554 l 1
 485 207 l 2
 485 64 399 -9 277 -9 c 0
 156 -9 70 64 70 207 c 2
EndSplineSet
Validated: 1
EndChar

StartChar: uogonek.sc
Encoding: 367 -1 228
Width: 559
VWidth: 0
GlyphClass: 3
Flags: W
TeX: 554 -250
HStem: -250 106<324.033 414.556> -9 123<223.039 282.171> 534 20G<70 203 352 485>
VStem: 70 133<133.965 554> 214 106<-141.382 -64.3524> 352 133<133.76 554>
AnchorPoint: "bot_acc" 315 -383 basechar 0
AnchorPoint: "dotbelow" 315 -383 basechar 0
AnchorPoint: "ogon_acc" 315 -383 basechar 0
AnchorPoint: "top_accl" 277 700 basechar 0
AnchorPoint: "dotabove" 277 700 basechar 0
LayerCount: 2
Fore
SplineSet
70 207 m 2
 70 554 l 1
 203 554 l 1
 203 207 l 2
 203 137 231 114 278 114 c 0
 323 114 352 137 352 207 c 2
 352 554 l 1
 485 554 l 1
 485 207 l 2
 485 121 454 60 403 26 c 0
 360 -3 320 -41 320 -91 c 0
 320 -127 329 -144 358 -144 c 0
 370 -144 386 -144 416 -131 c 1
 416 -231 l 1
 384 -244 362 -250 340 -250 c 0
 271 -250 214 -202 214 -135 c 0
 214 -91 242 -44 283 -9 c 1
 277 -9 l 2
 156 -9 70 64 70 207 c 2
EndSplineSet
Validated: 1
Ligature2: "ccmp_lig subtable" u.sc ogonekcomb
EndChar

StartChar: v.sc
Encoding: 368 -1 229
Width: 605
VWidth: 0
GlyphClass: 2
Flags: W
TeX: 554 0
HStem: 0 21G<244.408 364.52> 534 20G<15 164.798 442.255 592>
AnchorPoint: "bot_acc" 303 -146 basechar 0
AnchorPoint: "dotbelow" 303 -146 basechar 0
AnchorPoint: "ogon_acc" 255 -146 basechar 0
AnchorPoint: "top_accl" 303 700 basechar 0
AnchorPoint: "dotabove" 303 700 basechar 0
LayerCount: 2
Fore
SplineSet
15 554 m 1
 157 554 l 1
 304 177 l 1
 450 554 l 1
 592 554 l 1
 356 0 l 1
 253 0 l 1
 15 554 l 1
EndSplineSet
Validated: 1
EndChar

StartChar: w.sc
Encoding: 369 -1 230
Width: 761
VWidth: 0
GlyphClass: 2
Flags: W
TeX: 554 0
HStem: 0 21G<189.538 303.531 461.662 577.39> 534 20G<17 159.559 328.683 437.257 605.441 748>
AnchorPoint: "bot_acc" 383 -146 basechar 0
AnchorPoint: "dotbelow" 383 -146 basechar 0
AnchorPoint: "ogon_acc" 470 -146 basechar 0
AnchorPoint: "top_accl" 383 700 basechar 0
AnchorPoint: "dotabove" 383 700 basechar 0
LayerCount: 2
Fore
SplineSet
17 554 m 1
 154 554 l 1
 246 223 l 1
 334 554 l 1
 432 554 l 1
 519 223 l 1
 611 554 l 1
 748 554 l 1
 571 0 l 1
 467 0 l 1
 384 311 l 1
 298 0 l 1
 196 0 l 1
 17 554 l 1
EndSplineSet
Validated: 1
EndChar

StartChar: x.sc
Encoding: 370 -1 231
Width: 590
VWidth: 0
GlyphClass: 2
Flags: W
TeX: 554 0
HStem: 0 21G<5 181.798 411.74 586> 534 20G<5 181.629 411.914 585>
AnchorPoint: "bot_acc" 295 -146 basechar 0
AnchorPoint: "dotbelow" 295 -146 basechar 0
AnchorPoint: "ogon_acc" 485 -146 basechar 0
AnchorPoint: "top_accl" 295 700 basechar 0
AnchorPoint: "dotabove" 295 700 basechar 0
LayerCount: 2
Fore
SplineSet
5 0 m 1
 215 276 l 1
 5 554 l 1
 167 554 l 1
 295 379 l 1
 427 554 l 1
 585 554 l 1
 375 276 l 1
 586 0 l 1
 427 0 l 1
 295 173 l 1
 167 0 l 1
 5 0 l 1
EndSplineSet
Validated: 1
EndChar

StartChar: y.sc
Encoding: 371 -1 232
Width: 543
VWidth: 0
GlyphClass: 2
Flags: W
TeX: 554 0
HStem: 0 21G<209 341> 534 20G<8 165.526 384.474 542>
VStem: 209 132<0 204>
AnchorPoint: "bot_acc" 275 -146 basechar 0
AnchorPoint: "dotbelow" 275 -146 basechar 0
AnchorPoint: "ogon_acc" 240 -146 basechar 0
AnchorPoint: "top_accl" 275 700 basechar 0
AnchorPoint: "dotabove" 275 700 basechar 0
LayerCount: 2
Fore
SplineSet
8 554 m 1
 155 554 l 1
 275 326 l 1
 395 554 l 1
 542 554 l 1
 341 204 l 1
 341 0 l 1
 209 0 l 1
 209 204 l 1
 8 554 l 1
EndSplineSet
Validated: 1
EndChar

StartChar: z.sc
Encoding: 372 -1 233
Width: 420
VWidth: 0
GlyphClass: 2
Flags: W
TeX: 554 0
HStem: 0 123<183 402> 431 123<28 222>
AnchorPoint: "bot_acc" 207 -146 basechar 0
AnchorPoint: "dotbelow" 207 -146 basechar 0
AnchorPoint: "ogon_acc" 301 -146 basechar 0
AnchorPoint: "top_accl" 207 700 basechar 0
AnchorPoint: "dotabove" 207 700 basechar 0
LayerCount: 2
Fore
SplineSet
16 0 m 1
 16 102 l 1
 222 431 l 1
 28 431 l 1
 28 554 l 1
 387 554 l 1
 387 447 l 1
 183 123 l 1
 402 123 l 1
 402 0 l 1
 16 0 l 1
EndSplineSet
Validated: 1
EndChar

StartChar: ohorn.sc
Encoding: 373 -1 234
Width: 740
VWidth: 0
GlyphClass: 2
Flags: W
TeX: 563 -9
HStem: -9 123<273.188 450.337> 439 124<272.567 450.813> 534 20G<616 711>
VStem: 46 134<201.339 355.455> 539 133<197.599 354.949> 616 95<467.208 554>
AnchorPoint: "bot_acc" 359 -146 basechar 0
AnchorPoint: "dotbelow" 359 -146 basechar 0
AnchorPoint: "ogon_acc" 359 -146 basechar 0
AnchorPoint: "top_accl" 359 700 basechar 0
AnchorPoint: "dotabove" 359 700 basechar 0
LayerCount: 2
Fore
SplineSet
46 276 m 0xb8
 46 437 184 563 363 563 c 0xd8
 457 563 540 525 596 465 c 1
 608 488 616 517 616 554 c 1
 711 554 l 1xb4
 711 481 686 424 651 381 c 1
 665 349 672 314 672 277 c 0
 672 117 538 -9 363 -9 c 0
 185 -9 46 118 46 276 c 0xb8
180 276 m 0
 180 185 261 114 362 114 c 0
 463 114 539 183 539 276 c 0
 539 369 460 439 362 439 c 0
 259 439 180 370 180 276 c 0
EndSplineSet
Validated: 1
EndChar

StartChar: uhorn.sc
Encoding: 374 -1 235
Width: 687
VWidth: 0
GlyphClass: 2
Flags: W
TeX: 554 -9
HStem: -9 123<252.362 362.213> 534 20G<100 233 382 515 576 671>
VStem: 100 133<133.965 554> 382 133<133.965 317.316 416 554> 576 95<465.047 554>
AnchorPoint: "bot_acc" 307 -146 basechar 0
AnchorPoint: "dotbelow" 307 -146 basechar 0
AnchorPoint: "ogon_acc" 307 -146 basechar 0
AnchorPoint: "top_accl" 307 700 basechar 0
AnchorPoint: "dotabove" 307 700 basechar 0
LayerCount: 2
Fore
SplineSet
100 207 m 2
 100 554 l 1
 233 554 l 1
 233 207 l 2
 233 137 261 114 308 114 c 0
 353 114 382 137 382 207 c 2
 382 554 l 1
 515 554 l 1
 515 416 l 1
 547 442 576 484 576 554 c 1
 671 554 l 1
 671 423 589 342 515 306 c 1
 515 207 l 2
 515 64 429 -9 307 -9 c 0
 186 -9 100 64 100 207 c 2
EndSplineSet
Validated: 1
EndChar

StartChar: ae.sc
Encoding: 375 -1 236
Width: 746
VWidth: 0
Flags: W
TeX: 554 0
HStem: 0 123<530 700> 215 122<530 691> 431 123<530 700>
LayerCount: 2
Fore
SplineSet
15 0 m 1
 417 554 l 1
 700 554 l 1
 700 431 l 1
 530 431 l 1
 530 337 l 1
 691 337 l 1
 691 215 l 1
 530 215 l 1
 530 123 l 1
 700 123 l 1
 700 0 l 1
 397 0 l 1
 397 135 l 1
 266 135 l 1
 178 0 l 1
 15 0 l 1
347 258 m 1
 397 258 l 1
 397 334 l 1
 347 258 l 1
EndSplineSet
Validated: 1
EndChar

StartChar: oe.sc
Encoding: 376 -1 237
Width: 859
VWidth: 0
Flags: W
TeX: 554 0
HStem: -9 123<255.855 430.448> 0 123<644 813> 215 122<644 805> 431 123<644 813> 439 124<253.325 428.631>
VStem: 35 133<196.459 356.338>
LayerCount: 2
Fore
SplineSet
35 276 m 0xa4
 35 439 165 563 340 563 c 0xac
 410 563 466 546 509 511 c 1
 509 554 l 1
 813 554 l 1
 813 431 l 1
 644 431 l 1
 644 337 l 1
 805 337 l 1
 805 215 l 1
 644 215 l 1
 644 123 l 1
 813 123 l 1
 813 0 l 1
 509 0 l 1x74
 509 42 l 1
 466 9 408 -9 344 -9 c 0
 167 -9 35 114 35 276 c 0xa4
168 274 m 0
 168 183 244 114 342 114 c 0
 441 114 513 182 513 276 c 0
 513 370 439 439 341 439 c 0
 240 439 168 366 168 274 c 0
EndSplineSet
Validated: 1
EndChar

StartChar: thorn.sc
Encoding: 377 -1 238
Width: 484
VWidth: 0
Flags: W
TeX: 554 0
HStem: 0 21G<70 203> 106 122<203 319.298> 338 123<203 318.875> 534 20G<70 203>
VStem: 70 133<0 106 228 338 461 554> 330 134<241.365 325.588>
LayerCount: 2
Fore
SplineSet
70 0 m 1
 70 554 l 1
 203 554 l 1
 203 461 l 1
 226 461 l 2
 305 461 344 454 378 435 c 0
 433 405 464 350 464 284 c 0
 464 217 432 159 381 130 c 0
 348 112 308 106 224 106 c 2
 203 106 l 1
 203 0 l 1
 70 0 l 1
203 228 m 1
 221 228 l 2
 305 228 330 243 330 282 c 0
 330 330 297 338 226 338 c 2
 203 338 l 1
 203 228 l 1
EndSplineSet
Validated: 1
EndChar

StartChar: eth.sc
Encoding: 378 -1 239
Width: 626
VWidth: 0
Flags: W
TeX: 554 0
HStem: 0 123<235 380.554> 223 106<28 103 235 355> 431 123<235 379.284>
VStem: 103 132<123 223 329 431> 457 133<195.321 356.027>
LayerCount: 2
Fore
SplineSet
28 223 m 1
 28 329 l 1
 103 329 l 1
 103 554 l 1
 247 554 l 2
 340 554 411 540 457 515 c 0
 542 468 590 381 590 275 c 0
 590 163 535 72 441 30 c 0
 393 8 340 0 250 0 c 2
 103 0 l 1
 103 223 l 1
 28 223 l 1
235 123 m 1
 246 123 l 2
 307 123 350 129 381 145 c 0
 428 168 457 218 457 276 c 0
 457 336 426 387 377 411 c 0
 344 426 310 431 244 431 c 2
 235 431 l 1
 235 329 l 1
 355 329 l 1
 355 223 l 1
 235 223 l 1
 235 123 l 1
EndSplineSet
Validated: 1
EndChar

StartChar: oslash.sc
Encoding: 379 -1 240
Width: 703
VWidth: 0
GlyphClass: 2
Flags: W
TeX: 607 -50
HStem: -9 123<310.675 445.718> 439 124<266.033 399.363>
VStem: 40 134<200.473 355.326> 535 134<197.599 354.872>
AnchorPoint: "bot_acc" 355 -146 basechar 0
AnchorPoint: "dotbelow" 355 -146 basechar 0
AnchorPoint: "ogon_acc" 355 -146 basechar 0
AnchorPoint: "top_accl" 355 700 basechar 0
AnchorPoint: "dotabove" 355 700 basechar 0
LayerCount: 2
Fore
SplineSet
40 277 m 0
 40 435 179 563 354 563 c 0
 397 563 437 556 479 540 c 1
 528 607 l 1
 625 546 l 1
 576 480 l 1
 637 425 669 354 669 277 c 0
 669 117 534 -9 358 -9 c 0
 313 -9 271 -2 231 14 c 1
 183 -50 l 1
 85 11 l 1
 133 74 l 1
 74 128 40 202 40 277 c 0
174 277 m 0
 174 242 187 208 211 179 c 1
 400 435 l 1
 385 438 370 439 354 439 c 0
 255 439 174 369 174 277 c 0
310 120 m 1
 326 116 341 114 357 114 c 0
 458 114 535 183 535 276 c 0
 535 313 523 346 499 376 c 1
 310 120 l 1
EndSplineSet
Validated: 1
EndChar

StartChar: f_i
Encoding: 129 64257 241
Width: 520
VWidth: 0
GlyphClass: 3
Flags: W
TeX: 739 0
HStem: 0 21G<58 191 334 467> 433 111<10 58 191 266> 534 20G<334 467> 611 128<202.016 274> 634 133<335 468>
VStem: 58 133<0 433 544 599.973> 334 133<0 554 634 767>
LayerCount: 2
Fore
SplineSet
10 433 m 1xd6
 10 544 l 1
 58 544 l 1
 73 690 145 739 241 739 c 0
 250 739 258 739 274 737 c 1
 274 611 l 1
 261 611 l 2
 209 611 192 594 191 544 c 1
 266 544 l 1
 266 433 l 1
 191 433 l 1
 191 0 l 1
 58 0 l 1
 58 433 l 1
 10 433 l 1xd6
334 0 m 1
 334 554 l 1
 467 554 l 1xa6
 467 0 l 1
 334 0 l 1
335 634 m 1x8e
 335 767 l 1
 468 767 l 1
 468 634 l 1
 335 634 l 1x8e
EndSplineSet
Validated: 1
Ligature2: "liga_PLK subtable" f i
Ligature2: "liga_NLDb subtable" f i
Ligature2: "liga_f_i subtable" f i
EndChar

StartChar: f_l
Encoding: 130 64258 242
Width: 520
VWidth: 0
GlyphClass: 3
Flags: W
TeX: 739 0
HStem: 0 21G<58 191 334 467> 433 111<10 58 191 266> 611 128<202.016 274>
VStem: 58 133<0 433 544 599.973> 334 133<0 739>
LayerCount: 2
Fore
SplineSet
10 433 m 1
 10 544 l 1
 58 544 l 1
 73 690 145 739 241 739 c 0
 250 739 258 739 274 737 c 1
 274 611 l 1
 261 611 l 2
 209 611 192 594 191 544 c 1
 266 544 l 1
 266 433 l 1
 191 433 l 1
 191 0 l 1
 58 0 l 1
 58 433 l 1
 10 433 l 1
334 0 m 1
 334 739 l 1
 467 739 l 1
 467 0 l 1
 334 0 l 1
EndSplineSet
Validated: 1
Ligature2: "liga_f_f_l subtable" f l
EndChar

StartChar: f_f
Encoding: 380 64256 243
Width: 560
VWidth: 0
GlyphClass: 3
Flags: W
TeX: 739 0
HStem: 0 21G<58 191 334 467> 433 111<10 58 191 334 467 542> 611 128<202.016 274 478.016 550>
VStem: 58 133<0 433 544 599.973> 334 133<0 433 544 599.973>
LayerCount: 2
Fore
SplineSet
10 433 m 1
 10 544 l 1
 58 544 l 1
 73 690 145 739 241 739 c 0
 250 739 258 739 274 737 c 1
 274 611 l 1
 261 611 l 2
 209 611 192 594 191 544 c 1
 334 544 l 1
 349 690 421 739 517 739 c 0
 526 739 534 739 550 737 c 1
 550 611 l 1
 537 611 l 2
 485 611 468 594 467 544 c 1
 542 544 l 1
 542 433 l 1
 467 433 l 1
 467 0 l 1
 334 0 l 1
 334 433 l 1
 191 433 l 1
 191 0 l 1
 58 0 l 1
 58 433 l 1
 10 433 l 1
EndSplineSet
Validated: 1
Ligature2: "liga_f_f_l subtable" f f
EndChar

StartChar: f_f_i
Encoding: 381 64259 244
Width: 796
VWidth: 0
GlyphClass: 3
Flags: W
TeX: 739 0
HStem: 0 21G<58 191 334 467 610 743> 433 111<10 58 191 334 467 542> 534 20G<610 743> 611 128<202.016 274 478.016 550> 634 133<611 744>
VStem: 58 133<0 433 544 599.973> 334 133<0 433 544 599.973> 610 133<0 554 634 767>
CounterMasks: 1 07
LayerCount: 2
Fore
SplineSet
10 433 m 1xd7
 10 544 l 1
 58 544 l 1
 73 690 145 739 241 739 c 0
 250 739 258 739 274 737 c 1
 274 611 l 1
 261 611 l 2
 209 611 192 594 191 544 c 1
 334 544 l 1
 349 690 421 739 517 739 c 0
 526 739 534 739 550 737 c 1
 550 611 l 1
 537 611 l 2
 485 611 468 594 467 544 c 1
 542 544 l 1
 542 433 l 1
 467 433 l 1
 467 0 l 1
 334 0 l 1
 334 433 l 1
 191 433 l 1
 191 0 l 1
 58 0 l 1
 58 433 l 1
 10 433 l 1xd7
610 0 m 1
 610 554 l 1
 743 554 l 1xa7
 743 0 l 1
 610 0 l 1
611 634 m 1x8f
 611 767 l 1
 744 767 l 1
 744 634 l 1
 611 634 l 1x8f
EndSplineSet
Validated: 1
Ligature2: "liga_PLK subtable" f_f i
Ligature2: "liga_NLDb subtable" f_f i
Ligature2: "liga_f_i subtable" f_f i
EndChar

StartChar: f_f_l
Encoding: 382 64260 245
Width: 796
VWidth: 0
GlyphClass: 3
Flags: W
TeX: 739 0
HStem: 0 21G<58 191 334 467 610 743> 433 111<10 58 191 334 467 542> 611 128<202.016 274 478.016 550>
VStem: 58 133<0 433 544 599.973> 334 133<0 433 544 599.973> 610 133<0 739>
CounterMasks: 1 1c
LayerCount: 2
Fore
SplineSet
10 433 m 1
 10 544 l 1
 58 544 l 1
 73 690 145 739 241 739 c 0
 250 739 258 739 274 737 c 1
 274 611 l 1
 261 611 l 2
 209 611 192 594 191 544 c 1
 334 544 l 1
 349 690 421 739 517 739 c 0
 526 739 534 739 550 737 c 1
 550 611 l 1
 537 611 l 2
 485 611 468 594 467 544 c 1
 542 544 l 1
 542 433 l 1
 467 433 l 1
 467 0 l 1
 334 0 l 1
 334 433 l 1
 191 433 l 1
 191 0 l 1
 58 0 l 1
 58 433 l 1
 10 433 l 1
610 0 m 1
 610 739 l 1
 743 739 l 1
 743 0 l 1
 610 0 l 1
EndSplineSet
Validated: 1
Ligature2: "liga_f_f_l subtable" f f l
EndChar

StartChar: f_k
Encoding: 383 -1 246
Width: 860
VWidth: 0
GlyphClass: 3
Flags: W
TeX: 739 0
HStem: 0 21G<58 191 334 467 641.405 835> 433 111<10 58 191 266> 534 20G<630.437 803> 611 128<202.016 274>
VStem: 58 133<0 433 544 599.973> 334 133<0 259 293 739>
LayerCount: 2
Fore
SplineSet
10 433 m 1xdc
 10 544 l 1
 58 544 l 1
 73 690 145 739 241 739 c 0
 250 739 258 739 274 737 c 1
 274 611 l 1
 261 611 l 2
 209 611 192 594 191 544 c 1
 266 544 l 1
 266 433 l 1
 191 433 l 1
 191 0 l 1
 58 0 l 1
 58 433 l 1
 10 433 l 1xdc
334 0 m 1
 334 739 l 1
 467 739 l 1
 467 293 l 1
 644 554 l 1
 803 554 l 1xbc
 605 283 l 1
 835 0 l 1
 656 0 l 1
 467 259 l 1
 467 0 l 1
 334 0 l 1
EndSplineSet
Validated: 1
Ligature2: "liga_PLK subtable" f k
EndChar

